%TF.GenerationSoftware,KiCad,Pcbnew,10.0.3*%
%TF.CreationDate,2026-06-23T00:25:54+01:00*%
%TF.ProjectId,STM32_Buck_converter,53544d33-325f-4427-9563-6b5f636f6e76,rev?*%
%TF.SameCoordinates,Original*%
%TF.FileFunction,Copper,L3,Inr*%
%TF.FilePolarity,Positive*%
%FSLAX46Y46*%
G04 Gerber Fmt 4.6, Leading zero omitted, Abs format (unit mm)*
G04 Created by KiCad (PCBNEW 10.0.3) date 2026-06-23 00:25:54*
%MOMM*%
%LPD*%
G01*
G04 APERTURE LIST*
G04 Aperture macros list*
%AMRoundRect*
0 Rectangle with rounded corners*
0 $1 Rounding radius*
0 $2 $3 $4 $5 $6 $7 $8 $9 X,Y pos of 4 corners*
0 Add a 4 corners polygon primitive as box body*
4,1,4,$2,$3,$4,$5,$6,$7,$8,$9,$2,$3,0*
0 Add four circle primitives for the rounded corners*
1,1,$1+$1,$2,$3*
1,1,$1+$1,$4,$5*
1,1,$1+$1,$6,$7*
1,1,$1+$1,$8,$9*
0 Add four rect primitives between the rounded corners*
20,1,$1+$1,$2,$3,$4,$5,0*
20,1,$1+$1,$4,$5,$6,$7,0*
20,1,$1+$1,$6,$7,$8,$9,0*
20,1,$1+$1,$8,$9,$2,$3,0*%
G04 Aperture macros list end*
%TA.AperFunction,ComponentPad*%
%ADD10RoundRect,0.200000X0.200000X0.450000X-0.200000X0.450000X-0.200000X-0.450000X0.200000X-0.450000X0*%
%TD*%
%TA.AperFunction,ComponentPad*%
%ADD11O,0.800000X1.300000*%
%TD*%
%TA.AperFunction,ComponentPad*%
%ADD12C,0.900000*%
%TD*%
%TA.AperFunction,ComponentPad*%
%ADD13C,8.600000*%
%TD*%
%TA.AperFunction,ComponentPad*%
%ADD14O,1.900000X1.050000*%
%TD*%
%TA.AperFunction,ComponentPad*%
%ADD15RoundRect,0.250001X0.949999X-0.949999X0.949999X0.949999X-0.949999X0.949999X-0.949999X-0.949999X0*%
%TD*%
%TA.AperFunction,ComponentPad*%
%ADD16C,2.400000*%
%TD*%
%TA.AperFunction,ComponentPad*%
%ADD17RoundRect,0.200000X-0.200000X-0.450000X0.200000X-0.450000X0.200000X0.450000X-0.200000X0.450000X0*%
%TD*%
%TA.AperFunction,ViaPad*%
%ADD18C,0.800000*%
%TD*%
G04 APERTURE END LIST*
D10*
%TO.N,+3.3V*%
%TO.C,J3*%
X50875000Y-42400000D03*
D11*
%TO.N,I2C1_SCL*%
X49625000Y-42400000D03*
%TO.N,I2C1_SDA*%
X48375000Y-42400000D03*
%TO.N,GND*%
X47125000Y-42400000D03*
%TD*%
D12*
%TO.N,GND*%
%TO.C,H4*%
X33275000Y-42250000D03*
X34219581Y-39969581D03*
X34219581Y-44530419D03*
X36500000Y-39025000D03*
D13*
X36500000Y-42250000D03*
D12*
X36500000Y-45475000D03*
X38780419Y-39969581D03*
X38780419Y-44530419D03*
X39725000Y-42250000D03*
%TD*%
D14*
%TO.N,unconnected-(J5-Shield-PadSH)_5*%
%TO.C,J5*%
X85300000Y-56525000D03*
%TO.N,unconnected-(J5-Shield-PadSH)_2*%
X85300000Y-49375000D03*
%TD*%
D12*
%TO.N,GND*%
%TO.C,H3*%
X33275000Y-82250000D03*
X34219581Y-79969581D03*
X34219581Y-84530419D03*
X36500000Y-79025000D03*
D13*
X36500000Y-82250000D03*
D12*
X36500000Y-85475000D03*
X38780419Y-79969581D03*
X38780419Y-84530419D03*
X39725000Y-82250000D03*
%TD*%
D15*
%TO.N,+12V*%
%TO.C,J1*%
X79000000Y-73750000D03*
D16*
%TO.N,GND*%
X79000000Y-70250000D03*
%TD*%
D12*
%TO.N,GND*%
%TO.C,H1*%
X78275000Y-42250000D03*
X79219581Y-39969581D03*
X79219581Y-44530419D03*
X81500000Y-39025000D03*
D13*
X81500000Y-42250000D03*
D12*
X81500000Y-45475000D03*
X83780419Y-39969581D03*
X83780419Y-44530419D03*
X84725000Y-42250000D03*
%TD*%
%TO.N,GND*%
%TO.C,H2*%
X78275000Y-82250000D03*
X79219581Y-79969581D03*
X79219581Y-84530419D03*
X81500000Y-79025000D03*
D13*
X81500000Y-82250000D03*
D12*
X81500000Y-85475000D03*
X83780419Y-79969581D03*
X83780419Y-84530419D03*
X84725000Y-82250000D03*
%TD*%
D17*
%TO.N,+3.3V*%
%TO.C,J4*%
X47125000Y-82050000D03*
D11*
%TO.N,USART3_TX*%
X48375000Y-82050000D03*
%TO.N,USART3_RX*%
X49625000Y-82050000D03*
%TO.N,GND*%
X50875000Y-82050000D03*
%TD*%
D18*
%TO.N,+3.3V*%
X56000000Y-60325000D03*
X47900000Y-72450000D03*
X62750000Y-80000000D03*
X38750000Y-68900000D03*
X60800000Y-83025000D03*
X54475000Y-71450000D03*
X44000000Y-56300000D03*
X65275000Y-38950000D03*
X38750000Y-67450000D03*
X70125000Y-78600000D03*
X45750000Y-56450000D03*
X60800000Y-80000000D03*
X36300000Y-50300000D03*
X63150000Y-76325000D03*
X59850000Y-77350000D03*
X62750000Y-83025000D03*
X70375000Y-41000000D03*
X42000000Y-61600000D03*
X71000000Y-79375000D03*
X59850000Y-76325000D03*
X63150000Y-77350000D03*
X47300000Y-55300000D03*
X51950000Y-55250000D03*
%TO.N,GND*%
X56675000Y-70925000D03*
X81350000Y-50575000D03*
X77000000Y-50925000D03*
X75375000Y-76925000D03*
X68250000Y-76000000D03*
X72450000Y-68200000D03*
X65625000Y-81000000D03*
X57750000Y-58800000D03*
X55875000Y-72675000D03*
X72200000Y-71525000D03*
X65700000Y-70550000D03*
X36325000Y-54775000D03*
X62725000Y-38950000D03*
X65650000Y-79075000D03*
X68250000Y-77950000D03*
X65700000Y-69400000D03*
X41250000Y-69525000D03*
X45575000Y-72425000D03*
X72425000Y-65925000D03*
X41625000Y-57175000D03*
X42000000Y-65500000D03*
X56000000Y-58000000D03*
X65600000Y-84000000D03*
X81350000Y-51600000D03*
X40750000Y-65500000D03*
X65650000Y-82075000D03*
X80300000Y-50600000D03*
X73850000Y-73675000D03*
X68250000Y-78925000D03*
X70375000Y-42975000D03*
X64000000Y-38975000D03*
X74500000Y-76125000D03*
X47425000Y-57200000D03*
X40450000Y-61875000D03*
X60200000Y-38950000D03*
X39825000Y-60000000D03*
X36000000Y-64100000D03*
X37475000Y-66025000D03*
X41300000Y-59950000D03*
X73000000Y-72875000D03*
X80300000Y-51600000D03*
X70250000Y-71525000D03*
%TO.N,NRST*%
X52775000Y-61075000D03*
X52775000Y-53875000D03*
%TD*%
%TA.AperFunction,Conductor*%
%TO.N,+3.3V*%
G36*
X79877222Y-37520185D02*
G01*
X79922977Y-37572989D01*
X79932921Y-37642147D01*
X79903896Y-37705703D01*
X79852596Y-37741020D01*
X79661178Y-37810691D01*
X79661174Y-37810692D01*
X79661168Y-37810695D01*
X79661160Y-37810698D01*
X79281273Y-37987843D01*
X79281257Y-37987851D01*
X78918244Y-38197438D01*
X78918218Y-38197454D01*
X78574855Y-38437879D01*
X78253737Y-38707331D01*
X77957331Y-39003737D01*
X77687879Y-39324855D01*
X77447454Y-39668218D01*
X77447438Y-39668244D01*
X77237851Y-40031257D01*
X77237843Y-40031273D01*
X77060698Y-40411160D01*
X77060695Y-40411168D01*
X77060692Y-40411174D01*
X77060691Y-40411178D01*
X77007068Y-40558507D01*
X76917316Y-40805097D01*
X76808828Y-41209984D01*
X76808824Y-41210001D01*
X76736035Y-41622805D01*
X76736035Y-41622809D01*
X76699500Y-42040402D01*
X76699500Y-42459597D01*
X76736035Y-42877190D01*
X76736035Y-42877194D01*
X76808824Y-43289998D01*
X76808828Y-43290015D01*
X76917316Y-43694902D01*
X76917319Y-43694912D01*
X76917320Y-43694913D01*
X77060691Y-44088822D01*
X77060692Y-44088824D01*
X77060695Y-44088831D01*
X77060698Y-44088839D01*
X77237843Y-44468726D01*
X77237848Y-44468736D01*
X77447443Y-44831764D01*
X77447447Y-44831770D01*
X77447454Y-44831781D01*
X77687879Y-45175144D01*
X77882640Y-45407249D01*
X77957329Y-45496260D01*
X78253740Y-45792671D01*
X78387255Y-45904704D01*
X78574855Y-46062120D01*
X78918218Y-46302545D01*
X78918225Y-46302549D01*
X78918236Y-46302557D01*
X79281264Y-46512152D01*
X79281273Y-46512156D01*
X79661160Y-46689301D01*
X79661164Y-46689302D01*
X79661178Y-46689309D01*
X80055087Y-46832680D01*
X80055093Y-46832681D01*
X80055097Y-46832683D01*
X80165359Y-46862227D01*
X80459992Y-46941174D01*
X80872812Y-47013965D01*
X81290404Y-47050499D01*
X81290405Y-47050500D01*
X81290406Y-47050500D01*
X81709595Y-47050500D01*
X81709595Y-47050499D01*
X82127188Y-47013965D01*
X82540008Y-46941174D01*
X82944913Y-46832680D01*
X83338822Y-46689309D01*
X83718736Y-46512152D01*
X84081764Y-46302557D01*
X84425143Y-46062121D01*
X84746260Y-45792671D01*
X85042671Y-45496260D01*
X85312121Y-45175143D01*
X85552557Y-44831764D01*
X85762152Y-44468736D01*
X85939309Y-44088822D01*
X86008979Y-43897404D01*
X86050404Y-43841142D01*
X86115673Y-43816206D01*
X86184061Y-43830516D01*
X86233857Y-43879527D01*
X86249500Y-43939816D01*
X86249500Y-48296682D01*
X86229815Y-48363721D01*
X86177011Y-48409476D01*
X86107853Y-48419420D01*
X86078048Y-48411243D01*
X86024131Y-48388910D01*
X86024119Y-48388907D01*
X85826007Y-48349500D01*
X85826003Y-48349500D01*
X84773997Y-48349500D01*
X84773992Y-48349500D01*
X84575880Y-48388907D01*
X84575872Y-48388909D01*
X84389247Y-48466212D01*
X84389237Y-48466217D01*
X84221281Y-48578441D01*
X84078441Y-48721281D01*
X83966217Y-48889237D01*
X83966212Y-48889247D01*
X83888909Y-49075872D01*
X83888907Y-49075880D01*
X83849500Y-49273992D01*
X83849500Y-49476007D01*
X83888907Y-49674119D01*
X83888909Y-49674127D01*
X83966212Y-49860752D01*
X83966217Y-49860762D01*
X84078441Y-50028718D01*
X84221281Y-50171558D01*
X84389237Y-50283782D01*
X84389241Y-50283784D01*
X84389244Y-50283786D01*
X84575873Y-50361091D01*
X84773992Y-50400499D01*
X84773996Y-50400500D01*
X84773997Y-50400500D01*
X85826004Y-50400500D01*
X85826005Y-50400499D01*
X86024127Y-50361091D01*
X86078048Y-50338755D01*
X86147516Y-50331287D01*
X86209995Y-50362562D01*
X86245648Y-50422650D01*
X86249500Y-50453317D01*
X86249500Y-55446682D01*
X86229815Y-55513721D01*
X86177011Y-55559476D01*
X86107853Y-55569420D01*
X86078048Y-55561243D01*
X86024131Y-55538910D01*
X86024119Y-55538907D01*
X85826007Y-55499500D01*
X85826003Y-55499500D01*
X84773997Y-55499500D01*
X84773992Y-55499500D01*
X84575880Y-55538907D01*
X84575872Y-55538909D01*
X84389247Y-55616212D01*
X84389237Y-55616217D01*
X84221281Y-55728441D01*
X84078441Y-55871281D01*
X83966217Y-56039237D01*
X83966212Y-56039247D01*
X83888909Y-56225872D01*
X83888907Y-56225880D01*
X83849500Y-56423992D01*
X83849500Y-56626007D01*
X83888907Y-56824119D01*
X83888909Y-56824127D01*
X83966212Y-57010752D01*
X83966217Y-57010762D01*
X84078441Y-57178718D01*
X84221281Y-57321558D01*
X84389237Y-57433782D01*
X84389241Y-57433784D01*
X84389244Y-57433786D01*
X84575873Y-57511091D01*
X84773992Y-57550499D01*
X84773996Y-57550500D01*
X84773997Y-57550500D01*
X85826004Y-57550500D01*
X85826005Y-57550499D01*
X86024127Y-57511091D01*
X86078048Y-57488755D01*
X86147516Y-57481287D01*
X86209995Y-57512562D01*
X86245648Y-57572650D01*
X86249500Y-57603317D01*
X86249500Y-80560183D01*
X86229815Y-80627222D01*
X86177011Y-80672977D01*
X86107853Y-80682921D01*
X86044297Y-80653896D01*
X86008979Y-80602596D01*
X85939309Y-80411178D01*
X85762152Y-80031264D01*
X85552557Y-79668236D01*
X85552549Y-79668225D01*
X85552545Y-79668218D01*
X85312120Y-79324855D01*
X85051024Y-79013695D01*
X85042671Y-79003740D01*
X84746260Y-78707329D01*
X84500326Y-78500965D01*
X84425144Y-78437879D01*
X84081781Y-78197454D01*
X84081770Y-78197447D01*
X84081764Y-78197443D01*
X83973904Y-78135169D01*
X83718742Y-77987851D01*
X83718726Y-77987843D01*
X83338839Y-77810698D01*
X83338831Y-77810695D01*
X83338829Y-77810694D01*
X83338822Y-77810691D01*
X82944913Y-77667320D01*
X82944912Y-77667319D01*
X82944902Y-77667316D01*
X82540015Y-77558828D01*
X82540018Y-77558828D01*
X82540008Y-77558826D01*
X82540002Y-77558824D01*
X82539998Y-77558824D01*
X82127192Y-77486035D01*
X81709597Y-77449500D01*
X81709594Y-77449500D01*
X81290406Y-77449500D01*
X81290402Y-77449500D01*
X80872809Y-77486035D01*
X80872805Y-77486035D01*
X80460001Y-77558824D01*
X80459984Y-77558828D01*
X80055097Y-77667316D01*
X79902063Y-77723016D01*
X79661178Y-77810691D01*
X79661174Y-77810692D01*
X79661168Y-77810695D01*
X79661160Y-77810698D01*
X79281273Y-77987843D01*
X79281257Y-77987851D01*
X78918244Y-78197438D01*
X78918218Y-78197454D01*
X78574855Y-78437879D01*
X78253737Y-78707331D01*
X77957331Y-79003737D01*
X77687879Y-79324855D01*
X77447454Y-79668218D01*
X77447438Y-79668244D01*
X77237851Y-80031257D01*
X77237843Y-80031273D01*
X77060698Y-80411160D01*
X77060695Y-80411168D01*
X77060692Y-80411174D01*
X77060691Y-80411178D01*
X77055309Y-80425965D01*
X76917316Y-80805097D01*
X76808828Y-81209984D01*
X76808824Y-81210001D01*
X76736035Y-81622805D01*
X76736035Y-81622809D01*
X76699500Y-82040402D01*
X76699500Y-82459597D01*
X76736035Y-82877190D01*
X76736035Y-82877194D01*
X76808824Y-83289998D01*
X76808828Y-83290015D01*
X76917316Y-83694902D01*
X76917319Y-83694912D01*
X76917320Y-83694913D01*
X77060691Y-84088822D01*
X77060692Y-84088824D01*
X77060695Y-84088831D01*
X77060698Y-84088839D01*
X77237843Y-84468726D01*
X77237851Y-84468742D01*
X77298644Y-84574038D01*
X77447443Y-84831764D01*
X77447447Y-84831770D01*
X77447454Y-84831781D01*
X77687879Y-85175144D01*
X77882640Y-85407249D01*
X77957329Y-85496260D01*
X78253740Y-85792671D01*
X78277785Y-85812847D01*
X78574855Y-86062120D01*
X78918218Y-86302545D01*
X78918225Y-86302549D01*
X78918236Y-86302557D01*
X79281264Y-86512152D01*
X79281273Y-86512156D01*
X79661160Y-86689301D01*
X79661164Y-86689302D01*
X79661178Y-86689309D01*
X79852595Y-86758979D01*
X79908857Y-86800404D01*
X79933793Y-86865673D01*
X79919483Y-86934062D01*
X79870471Y-86983857D01*
X79810183Y-86999500D01*
X38189817Y-86999500D01*
X38122778Y-86979815D01*
X38077023Y-86927011D01*
X38067079Y-86857853D01*
X38096104Y-86794297D01*
X38147403Y-86758979D01*
X38338822Y-86689309D01*
X38718736Y-86512152D01*
X39081764Y-86302557D01*
X39425143Y-86062121D01*
X39746260Y-85792671D01*
X40042671Y-85496260D01*
X40312121Y-85175143D01*
X40552557Y-84831764D01*
X40762152Y-84468736D01*
X40939309Y-84088822D01*
X41003920Y-83911304D01*
X64699500Y-83911304D01*
X64699500Y-84088695D01*
X64734103Y-84262658D01*
X64734106Y-84262667D01*
X64801983Y-84426540D01*
X64801990Y-84426553D01*
X64900535Y-84574034D01*
X64900538Y-84574038D01*
X65025961Y-84699461D01*
X65025965Y-84699464D01*
X65173446Y-84798009D01*
X65173459Y-84798016D01*
X65254914Y-84831755D01*
X65337334Y-84865894D01*
X65337336Y-84865894D01*
X65337341Y-84865896D01*
X65511304Y-84900499D01*
X65511307Y-84900500D01*
X65511309Y-84900500D01*
X65688693Y-84900500D01*
X65688694Y-84900499D01*
X65746682Y-84888964D01*
X65862658Y-84865896D01*
X65862661Y-84865894D01*
X65862666Y-84865894D01*
X66026547Y-84798013D01*
X66174035Y-84699464D01*
X66299464Y-84574035D01*
X66398013Y-84426547D01*
X66465894Y-84262666D01*
X66470029Y-84241882D01*
X66488964Y-84146682D01*
X66500500Y-84088691D01*
X66500500Y-83911309D01*
X66500500Y-83911306D01*
X66500499Y-83911304D01*
X66465896Y-83737341D01*
X66465893Y-83737332D01*
X66398016Y-83573459D01*
X66398009Y-83573446D01*
X66299464Y-83425965D01*
X66299461Y-83425961D01*
X66174038Y-83300538D01*
X66174034Y-83300535D01*
X66026553Y-83201990D01*
X66026541Y-83201984D01*
X65931013Y-83162416D01*
X65915404Y-83149838D01*
X65897177Y-83141494D01*
X65888756Y-83128364D01*
X65876609Y-83118576D01*
X65870277Y-83099553D01*
X65859456Y-83082681D01*
X65859470Y-83067082D01*
X65854544Y-83052282D01*
X65859501Y-83032857D01*
X65859520Y-83012812D01*
X65867965Y-82999697D01*
X65871823Y-82984582D01*
X65886495Y-82970921D01*
X65887995Y-82968592D01*
X74598500Y-82968592D01*
X74598500Y-83131407D01*
X74630259Y-83291073D01*
X74630262Y-83291082D01*
X74692562Y-83441490D01*
X74692563Y-83441492D01*
X74783015Y-83576862D01*
X74783018Y-83576866D01*
X74898133Y-83691981D01*
X74898137Y-83691984D01*
X75033505Y-83782435D01*
X75033506Y-83782435D01*
X75033507Y-83782436D01*
X75033509Y-83782437D01*
X75105179Y-83812123D01*
X75183919Y-83844738D01*
X75183921Y-83844738D01*
X75183926Y-83844740D01*
X75343592Y-83876499D01*
X75343595Y-83876500D01*
X75343597Y-83876500D01*
X75506405Y-83876500D01*
X75506406Y-83876499D01*
X75559629Y-83865912D01*
X75666073Y-83844740D01*
X75666076Y-83844738D01*
X75666081Y-83844738D01*
X75816495Y-83782435D01*
X75951863Y-83691984D01*
X76066984Y-83576863D01*
X76157435Y-83441495D01*
X76219738Y-83291081D01*
X76219952Y-83290008D01*
X76249189Y-83143019D01*
X76251500Y-83131403D01*
X76251500Y-82968597D01*
X76251500Y-82968594D01*
X76251499Y-82968592D01*
X76219740Y-82808926D01*
X76219737Y-82808917D01*
X76157437Y-82658509D01*
X76157436Y-82658507D01*
X76151106Y-82649034D01*
X76066984Y-82523137D01*
X76066981Y-82523133D01*
X75951866Y-82408018D01*
X75951862Y-82408015D01*
X75816492Y-82317563D01*
X75816490Y-82317562D01*
X75666082Y-82255262D01*
X75666073Y-82255259D01*
X75506406Y-82223500D01*
X75506403Y-82223500D01*
X75343597Y-82223500D01*
X75343594Y-82223500D01*
X75183926Y-82255259D01*
X75183917Y-82255262D01*
X75033509Y-82317562D01*
X75033507Y-82317563D01*
X74898137Y-82408015D01*
X74898133Y-82408018D01*
X74783018Y-82523133D01*
X74783015Y-82523137D01*
X74692563Y-82658507D01*
X74692562Y-82658509D01*
X74630262Y-82808917D01*
X74630259Y-82808926D01*
X74598500Y-82968592D01*
X65887995Y-82968592D01*
X65897348Y-82954068D01*
X65918846Y-82940801D01*
X65922959Y-82936972D01*
X65927057Y-82935014D01*
X65929011Y-82934123D01*
X66076547Y-82873013D01*
X66224035Y-82774464D01*
X66349464Y-82649035D01*
X66448013Y-82501547D01*
X66515894Y-82337666D01*
X66519893Y-82317565D01*
X66550499Y-82163695D01*
X66550500Y-82163693D01*
X66550500Y-81986306D01*
X66550499Y-81986304D01*
X66515896Y-81812341D01*
X66515893Y-81812332D01*
X66474048Y-81711309D01*
X66448013Y-81648453D01*
X66407406Y-81587681D01*
X66386529Y-81521005D01*
X66405013Y-81453625D01*
X66407372Y-81449954D01*
X66423013Y-81426547D01*
X66490894Y-81262666D01*
X66498195Y-81225965D01*
X66523144Y-81100535D01*
X66525500Y-81088691D01*
X66525500Y-80911309D01*
X66525500Y-80911306D01*
X66525499Y-80911304D01*
X66490896Y-80737341D01*
X66490893Y-80737332D01*
X66423016Y-80573459D01*
X66423009Y-80573446D01*
X66324464Y-80425965D01*
X66324461Y-80425961D01*
X66199038Y-80300538D01*
X66199034Y-80300535D01*
X66051553Y-80201990D01*
X66051540Y-80201983D01*
X65943513Y-80157238D01*
X65889109Y-80113398D01*
X65867044Y-80047104D01*
X65884323Y-79979404D01*
X65935460Y-79931793D01*
X65943479Y-79928130D01*
X66076547Y-79873013D01*
X66224035Y-79774464D01*
X66349464Y-79649035D01*
X66448013Y-79501547D01*
X66449054Y-79499035D01*
X66457958Y-79477535D01*
X66515894Y-79337666D01*
X66518443Y-79324855D01*
X66550499Y-79163695D01*
X66550500Y-79163693D01*
X66550500Y-78986306D01*
X66550499Y-78986304D01*
X66515896Y-78812341D01*
X66515893Y-78812332D01*
X66448016Y-78648459D01*
X66448009Y-78648446D01*
X66349464Y-78500965D01*
X66349461Y-78500961D01*
X66224038Y-78375538D01*
X66224034Y-78375535D01*
X66076553Y-78276990D01*
X66076540Y-78276983D01*
X65912667Y-78209106D01*
X65912658Y-78209103D01*
X65738694Y-78174500D01*
X65738691Y-78174500D01*
X65561309Y-78174500D01*
X65561306Y-78174500D01*
X65387341Y-78209103D01*
X65387332Y-78209106D01*
X65223459Y-78276983D01*
X65223446Y-78276990D01*
X65075965Y-78375535D01*
X65075961Y-78375538D01*
X64950538Y-78500961D01*
X64950535Y-78500965D01*
X64851990Y-78648446D01*
X64851983Y-78648459D01*
X64784106Y-78812332D01*
X64784103Y-78812341D01*
X64749500Y-78986304D01*
X64749500Y-79163695D01*
X64784103Y-79337658D01*
X64784106Y-79337667D01*
X64851983Y-79501540D01*
X64851990Y-79501553D01*
X64950535Y-79649034D01*
X64950538Y-79649038D01*
X65075961Y-79774461D01*
X65075965Y-79774464D01*
X65223446Y-79873009D01*
X65223450Y-79873011D01*
X65223453Y-79873013D01*
X65331489Y-79917762D01*
X65385889Y-79961601D01*
X65407955Y-80027895D01*
X65390676Y-80095594D01*
X65339540Y-80143205D01*
X65331486Y-80146883D01*
X65198459Y-80201983D01*
X65198446Y-80201990D01*
X65050965Y-80300535D01*
X65050961Y-80300538D01*
X64925538Y-80425961D01*
X64925535Y-80425965D01*
X64826990Y-80573446D01*
X64826983Y-80573459D01*
X64759106Y-80737332D01*
X64759103Y-80737341D01*
X64724500Y-80911304D01*
X64724500Y-81088695D01*
X64759103Y-81262658D01*
X64759106Y-81262667D01*
X64826987Y-81426547D01*
X64826988Y-81426550D01*
X64867591Y-81487316D01*
X64888469Y-81553994D01*
X64869984Y-81621374D01*
X64867593Y-81625094D01*
X64851994Y-81648440D01*
X64851983Y-81648460D01*
X64784106Y-81812332D01*
X64784103Y-81812341D01*
X64749500Y-81986304D01*
X64749500Y-82163695D01*
X64784103Y-82337658D01*
X64784106Y-82337667D01*
X64851983Y-82501540D01*
X64851990Y-82501553D01*
X64950535Y-82649034D01*
X64950538Y-82649038D01*
X65075961Y-82774461D01*
X65075965Y-82774464D01*
X65223446Y-82873009D01*
X65223453Y-82873013D01*
X65318988Y-82912584D01*
X65373389Y-82956423D01*
X65395455Y-83022716D01*
X65378177Y-83090416D01*
X65327040Y-83138027D01*
X65318987Y-83141705D01*
X65173455Y-83201985D01*
X65173446Y-83201990D01*
X65025965Y-83300535D01*
X65025961Y-83300538D01*
X64900538Y-83425961D01*
X64900535Y-83425965D01*
X64801990Y-83573446D01*
X64801983Y-83573459D01*
X64734106Y-83737332D01*
X64734103Y-83737341D01*
X64699500Y-83911304D01*
X41003920Y-83911304D01*
X41082680Y-83694913D01*
X41191174Y-83290008D01*
X41263965Y-82877188D01*
X41292015Y-82556582D01*
X46225001Y-82556582D01*
X46231408Y-82627102D01*
X46231409Y-82627107D01*
X46281981Y-82789396D01*
X46369927Y-82934877D01*
X46490122Y-83055072D01*
X46635604Y-83143019D01*
X46635603Y-83143019D01*
X46749999Y-83178666D01*
X46750000Y-83178666D01*
X46750000Y-82425000D01*
X46225001Y-82425000D01*
X46225001Y-82556582D01*
X41292015Y-82556582D01*
X41300500Y-82459594D01*
X41300500Y-82388693D01*
X47474499Y-82388693D01*
X47497617Y-82504906D01*
X47500000Y-82529098D01*
X47500000Y-83178666D01*
X47614396Y-83143019D01*
X47614398Y-83143018D01*
X47757662Y-83056411D01*
X47825217Y-83038574D01*
X47890702Y-83059425D01*
X47948453Y-83098013D01*
X47948455Y-83098014D01*
X47948457Y-83098015D01*
X48029064Y-83131403D01*
X48112334Y-83165894D01*
X48112336Y-83165894D01*
X48112341Y-83165896D01*
X48286304Y-83200499D01*
X48286307Y-83200500D01*
X48286309Y-83200500D01*
X48463693Y-83200500D01*
X48463694Y-83200499D01*
X48521682Y-83188964D01*
X48637658Y-83165896D01*
X48637661Y-83165894D01*
X48637666Y-83165894D01*
X48801547Y-83098013D01*
X48914236Y-83022716D01*
X48931109Y-83011442D01*
X48997786Y-82990564D01*
X49065166Y-83009048D01*
X49068891Y-83011442D01*
X49085764Y-83022716D01*
X49198453Y-83098013D01*
X49198455Y-83098014D01*
X49198459Y-83098016D01*
X49303936Y-83141705D01*
X49362334Y-83165894D01*
X49362336Y-83165894D01*
X49362341Y-83165896D01*
X49536304Y-83200499D01*
X49536307Y-83200500D01*
X49536309Y-83200500D01*
X49713693Y-83200500D01*
X49713694Y-83200499D01*
X49771682Y-83188964D01*
X49887658Y-83165896D01*
X49887661Y-83165894D01*
X49887666Y-83165894D01*
X50051547Y-83098013D01*
X50164236Y-83022716D01*
X50181109Y-83011442D01*
X50247786Y-82990564D01*
X50315166Y-83009048D01*
X50318891Y-83011442D01*
X50335764Y-83022716D01*
X50448453Y-83098013D01*
X50448455Y-83098014D01*
X50448459Y-83098016D01*
X50553936Y-83141705D01*
X50612334Y-83165894D01*
X50612336Y-83165894D01*
X50612341Y-83165896D01*
X50786304Y-83200499D01*
X50786307Y-83200500D01*
X50786309Y-83200500D01*
X50963693Y-83200500D01*
X50963694Y-83200499D01*
X51021682Y-83188964D01*
X51137658Y-83165896D01*
X51137661Y-83165894D01*
X51137666Y-83165894D01*
X51301547Y-83098013D01*
X51449035Y-82999464D01*
X51574464Y-82874035D01*
X51673013Y-82726547D01*
X51740894Y-82562666D01*
X51742105Y-82556582D01*
X51768278Y-82425000D01*
X51775500Y-82388691D01*
X51775500Y-81711309D01*
X51775500Y-81711306D01*
X51775499Y-81711304D01*
X51740896Y-81537341D01*
X51740893Y-81537332D01*
X51673016Y-81373459D01*
X51673009Y-81373446D01*
X51574464Y-81225965D01*
X51574461Y-81225961D01*
X51449038Y-81100538D01*
X51449034Y-81100535D01*
X51301553Y-81001990D01*
X51301540Y-81001983D01*
X51137667Y-80934106D01*
X51137658Y-80934103D01*
X50963694Y-80899500D01*
X50963691Y-80899500D01*
X50786309Y-80899500D01*
X50786306Y-80899500D01*
X50612341Y-80934103D01*
X50612332Y-80934106D01*
X50448459Y-81001983D01*
X50448446Y-81001990D01*
X50318891Y-81088557D01*
X50252213Y-81109435D01*
X50184833Y-81090950D01*
X50181109Y-81088557D01*
X50051553Y-81001990D01*
X50051540Y-81001983D01*
X49887667Y-80934106D01*
X49887658Y-80934103D01*
X49713694Y-80899500D01*
X49713691Y-80899500D01*
X49536309Y-80899500D01*
X49536306Y-80899500D01*
X49362341Y-80934103D01*
X49362332Y-80934106D01*
X49198459Y-81001983D01*
X49198446Y-81001990D01*
X49068891Y-81088557D01*
X49002213Y-81109435D01*
X48934833Y-81090950D01*
X48931109Y-81088557D01*
X48801553Y-81001990D01*
X48801540Y-81001983D01*
X48637667Y-80934106D01*
X48637658Y-80934103D01*
X48463694Y-80899500D01*
X48463691Y-80899500D01*
X48286309Y-80899500D01*
X48286306Y-80899500D01*
X48112341Y-80934103D01*
X48112332Y-80934106D01*
X47948459Y-81001983D01*
X47948448Y-81001989D01*
X47890702Y-81040574D01*
X47824024Y-81061451D01*
X47757662Y-81043588D01*
X47614396Y-80956981D01*
X47614394Y-80956980D01*
X47500000Y-80921332D01*
X47500000Y-81570900D01*
X47497909Y-81592123D01*
X47497824Y-81594028D01*
X47497723Y-81594556D01*
X47474500Y-81711309D01*
X47474500Y-82388691D01*
X47474500Y-82388693D01*
X47474499Y-82388693D01*
X41300500Y-82388693D01*
X41300500Y-82040406D01*
X41296989Y-82000272D01*
X46875000Y-82000272D01*
X46875000Y-82099728D01*
X46913060Y-82191614D01*
X46983386Y-82261940D01*
X47075272Y-82300000D01*
X47174728Y-82300000D01*
X47266614Y-82261940D01*
X47336940Y-82191614D01*
X47375000Y-82099728D01*
X47375000Y-82000272D01*
X47336940Y-81908386D01*
X47266614Y-81838060D01*
X47174728Y-81800000D01*
X47075272Y-81800000D01*
X46983386Y-81838060D01*
X46913060Y-81908386D01*
X46875000Y-82000272D01*
X41296989Y-82000272D01*
X41263965Y-81622812D01*
X41249967Y-81543427D01*
X46225000Y-81543427D01*
X46225000Y-81675000D01*
X46750000Y-81675000D01*
X46750000Y-80921333D01*
X46749999Y-80921332D01*
X46635605Y-80956980D01*
X46635603Y-80956981D01*
X46490122Y-81044927D01*
X46369927Y-81165122D01*
X46281980Y-81310604D01*
X46231409Y-81472893D01*
X46225000Y-81543427D01*
X41249967Y-81543427D01*
X41191174Y-81209992D01*
X41082680Y-80805087D01*
X40939309Y-80411178D01*
X40762152Y-80031264D01*
X40552557Y-79668236D01*
X40552549Y-79668225D01*
X40552545Y-79668218D01*
X40312120Y-79324855D01*
X40051024Y-79013695D01*
X40042671Y-79003740D01*
X39746260Y-78707329D01*
X39500326Y-78500965D01*
X39425144Y-78437879D01*
X39081781Y-78197454D01*
X39081770Y-78197447D01*
X39081764Y-78197443D01*
X38973904Y-78135169D01*
X38718742Y-77987851D01*
X38718726Y-77987843D01*
X38338839Y-77810698D01*
X38338831Y-77810695D01*
X38338829Y-77810694D01*
X38338822Y-77810691D01*
X37944913Y-77667320D01*
X37944912Y-77667319D01*
X37944902Y-77667316D01*
X37540015Y-77558828D01*
X37540018Y-77558828D01*
X37540008Y-77558826D01*
X37540002Y-77558824D01*
X37539998Y-77558824D01*
X37127192Y-77486035D01*
X36709597Y-77449500D01*
X36709594Y-77449500D01*
X36290406Y-77449500D01*
X36290402Y-77449500D01*
X35872809Y-77486035D01*
X35872805Y-77486035D01*
X35460001Y-77558824D01*
X35459984Y-77558828D01*
X35055097Y-77667316D01*
X34902063Y-77723016D01*
X34661178Y-77810691D01*
X34661174Y-77810692D01*
X34661168Y-77810695D01*
X34661160Y-77810698D01*
X34281273Y-77987843D01*
X34281257Y-77987851D01*
X33918244Y-78197438D01*
X33918218Y-78197454D01*
X33574855Y-78437879D01*
X33253737Y-78707331D01*
X32957331Y-79003737D01*
X32687879Y-79324855D01*
X32447454Y-79668218D01*
X32447438Y-79668244D01*
X32237851Y-80031257D01*
X32237843Y-80031273D01*
X32060698Y-80411160D01*
X32060695Y-80411168D01*
X32060692Y-80411174D01*
X32060691Y-80411178D01*
X31991020Y-80602595D01*
X31949596Y-80658857D01*
X31884327Y-80683793D01*
X31815938Y-80669483D01*
X31766143Y-80620471D01*
X31750500Y-80560183D01*
X31750500Y-75911304D01*
X67349500Y-75911304D01*
X67349500Y-76088695D01*
X67384103Y-76262658D01*
X67384106Y-76262667D01*
X67451983Y-76426540D01*
X67451990Y-76426553D01*
X67550535Y-76574034D01*
X67550538Y-76574038D01*
X67675961Y-76699461D01*
X67675965Y-76699464D01*
X67823446Y-76798009D01*
X67823459Y-76798016D01*
X67974164Y-76860439D01*
X68028568Y-76904279D01*
X68050633Y-76970573D01*
X68033354Y-77038273D01*
X67982217Y-77085884D01*
X67974164Y-77089561D01*
X67823459Y-77151983D01*
X67823446Y-77151990D01*
X67675965Y-77250535D01*
X67675961Y-77250538D01*
X67550538Y-77375961D01*
X67550535Y-77375965D01*
X67451990Y-77523446D01*
X67451983Y-77523459D01*
X67384106Y-77687332D01*
X67384103Y-77687341D01*
X67349500Y-77861304D01*
X67349500Y-78038695D01*
X67384103Y-78212658D01*
X67384106Y-78212667D01*
X67451989Y-78376552D01*
X67453329Y-78379060D01*
X67453633Y-78380521D01*
X67454318Y-78382175D01*
X67454004Y-78382304D01*
X67467563Y-78447464D01*
X67454251Y-78492797D01*
X67454318Y-78492825D01*
X67454062Y-78493441D01*
X67453329Y-78495940D01*
X67451989Y-78498447D01*
X67384106Y-78662332D01*
X67384103Y-78662341D01*
X67349500Y-78836304D01*
X67349500Y-79013695D01*
X67384103Y-79187658D01*
X67384106Y-79187667D01*
X67451983Y-79351540D01*
X67451990Y-79351553D01*
X67550535Y-79499034D01*
X67550538Y-79499038D01*
X67675961Y-79624461D01*
X67675965Y-79624464D01*
X67823446Y-79723009D01*
X67823459Y-79723016D01*
X67946363Y-79773923D01*
X67987334Y-79790894D01*
X67987336Y-79790894D01*
X67987341Y-79790896D01*
X68161304Y-79825499D01*
X68161307Y-79825500D01*
X68161309Y-79825500D01*
X68338693Y-79825500D01*
X68338694Y-79825499D01*
X68396682Y-79813964D01*
X68512658Y-79790896D01*
X68512661Y-79790894D01*
X68512666Y-79790894D01*
X68676547Y-79723013D01*
X68824035Y-79624464D01*
X68949464Y-79499035D01*
X69048013Y-79351547D01*
X69115894Y-79187666D01*
X69150500Y-79013691D01*
X69150500Y-78836309D01*
X69150500Y-78836306D01*
X69150499Y-78836304D01*
X69115896Y-78662341D01*
X69115893Y-78662332D01*
X69048020Y-78498468D01*
X69048016Y-78498461D01*
X69048013Y-78498453D01*
X69048007Y-78498445D01*
X69046683Y-78495968D01*
X69046378Y-78494504D01*
X69045682Y-78492824D01*
X69046000Y-78492692D01*
X69032433Y-78427567D01*
X69045751Y-78382204D01*
X69045682Y-78382176D01*
X69045949Y-78381529D01*
X69046683Y-78379032D01*
X69048005Y-78376558D01*
X69048013Y-78376547D01*
X69048433Y-78375535D01*
X69089250Y-78276990D01*
X69115894Y-78212666D01*
X69116603Y-78209106D01*
X69150499Y-78038695D01*
X69150500Y-78038693D01*
X69150500Y-77861306D01*
X69150499Y-77861304D01*
X69115896Y-77687341D01*
X69115893Y-77687332D01*
X69048016Y-77523459D01*
X69048009Y-77523446D01*
X68949464Y-77375965D01*
X68949461Y-77375961D01*
X68824038Y-77250538D01*
X68824034Y-77250535D01*
X68676553Y-77151990D01*
X68676541Y-77151983D01*
X68549381Y-77099313D01*
X68525834Y-77089560D01*
X68471431Y-77045721D01*
X68449366Y-76979427D01*
X68466645Y-76911727D01*
X68517782Y-76864117D01*
X68525828Y-76860442D01*
X68612688Y-76824464D01*
X68676541Y-76798016D01*
X68676544Y-76798014D01*
X68676547Y-76798013D01*
X68824035Y-76699464D01*
X68949464Y-76574035D01*
X69048013Y-76426547D01*
X69115894Y-76262666D01*
X69123280Y-76225538D01*
X69150499Y-76088695D01*
X69150500Y-76088693D01*
X69150500Y-76036304D01*
X73599500Y-76036304D01*
X73599500Y-76213695D01*
X73634103Y-76387658D01*
X73634106Y-76387667D01*
X73701983Y-76551540D01*
X73701990Y-76551553D01*
X73800535Y-76699034D01*
X73800538Y-76699038D01*
X73925961Y-76824461D01*
X73925965Y-76824464D01*
X74073446Y-76923009D01*
X74073459Y-76923016D01*
X74188274Y-76970573D01*
X74237334Y-76990894D01*
X74237336Y-76990894D01*
X74237341Y-76990896D01*
X74398286Y-77022910D01*
X74460197Y-77055295D01*
X74494771Y-77116011D01*
X74495712Y-77120335D01*
X74509104Y-77187659D01*
X74509106Y-77187667D01*
X74576983Y-77351540D01*
X74576990Y-77351553D01*
X74675535Y-77499034D01*
X74675538Y-77499038D01*
X74800961Y-77624461D01*
X74800965Y-77624464D01*
X74948446Y-77723009D01*
X74948459Y-77723016D01*
X75071363Y-77773923D01*
X75112334Y-77790894D01*
X75112336Y-77790894D01*
X75112341Y-77790896D01*
X75286304Y-77825499D01*
X75286307Y-77825500D01*
X75286309Y-77825500D01*
X75463693Y-77825500D01*
X75463694Y-77825499D01*
X75538105Y-77810698D01*
X75637658Y-77790896D01*
X75637661Y-77790894D01*
X75637666Y-77790894D01*
X75801547Y-77723013D01*
X75949035Y-77624464D01*
X76074464Y-77499035D01*
X76173013Y-77351547D01*
X76240894Y-77187666D01*
X76240894Y-77187661D01*
X76240896Y-77187658D01*
X76275499Y-77013695D01*
X76275500Y-77013693D01*
X76275500Y-76836306D01*
X76275499Y-76836304D01*
X76240896Y-76662341D01*
X76240893Y-76662332D01*
X76173016Y-76498459D01*
X76173009Y-76498446D01*
X76074464Y-76350965D01*
X76074461Y-76350961D01*
X75949038Y-76225538D01*
X75949034Y-76225535D01*
X75801553Y-76126990D01*
X75801540Y-76126983D01*
X75637667Y-76059106D01*
X75637659Y-76059104D01*
X75476712Y-76027089D01*
X75414801Y-75994704D01*
X75380227Y-75933988D01*
X75379287Y-75929663D01*
X75365896Y-75862341D01*
X75365893Y-75862332D01*
X75298016Y-75698459D01*
X75298009Y-75698446D01*
X75199464Y-75550965D01*
X75199461Y-75550961D01*
X75074038Y-75425538D01*
X75074034Y-75425535D01*
X74926553Y-75326990D01*
X74926540Y-75326983D01*
X74762667Y-75259106D01*
X74762658Y-75259103D01*
X74588694Y-75224500D01*
X74588691Y-75224500D01*
X74411309Y-75224500D01*
X74411306Y-75224500D01*
X74237341Y-75259103D01*
X74237332Y-75259106D01*
X74073459Y-75326983D01*
X74073446Y-75326990D01*
X73925965Y-75425535D01*
X73925961Y-75425538D01*
X73800538Y-75550961D01*
X73800535Y-75550965D01*
X73701990Y-75698446D01*
X73701983Y-75698459D01*
X73634106Y-75862332D01*
X73634103Y-75862341D01*
X73599500Y-76036304D01*
X69150500Y-76036304D01*
X69150500Y-75911306D01*
X69150499Y-75911304D01*
X69115896Y-75737341D01*
X69115893Y-75737332D01*
X69048016Y-75573459D01*
X69048009Y-75573446D01*
X68949464Y-75425965D01*
X68949461Y-75425961D01*
X68824038Y-75300538D01*
X68824034Y-75300535D01*
X68676553Y-75201990D01*
X68676540Y-75201983D01*
X68512667Y-75134106D01*
X68512658Y-75134103D01*
X68338694Y-75099500D01*
X68338691Y-75099500D01*
X68161309Y-75099500D01*
X68161306Y-75099500D01*
X67987341Y-75134103D01*
X67987332Y-75134106D01*
X67823459Y-75201983D01*
X67823446Y-75201990D01*
X67675965Y-75300535D01*
X67675961Y-75300538D01*
X67550538Y-75425961D01*
X67550535Y-75425965D01*
X67451990Y-75573446D01*
X67451983Y-75573459D01*
X67384106Y-75737332D01*
X67384103Y-75737341D01*
X67349500Y-75911304D01*
X31750500Y-75911304D01*
X31750500Y-72336304D01*
X44674500Y-72336304D01*
X44674500Y-72513695D01*
X44709103Y-72687658D01*
X44709106Y-72687667D01*
X44776983Y-72851540D01*
X44776990Y-72851553D01*
X44875535Y-72999034D01*
X44875538Y-72999038D01*
X45000961Y-73124461D01*
X45000965Y-73124464D01*
X45148446Y-73223009D01*
X45148459Y-73223016D01*
X45271363Y-73273923D01*
X45312334Y-73290894D01*
X45312336Y-73290894D01*
X45312341Y-73290896D01*
X45486304Y-73325499D01*
X45486307Y-73325500D01*
X45486309Y-73325500D01*
X45663693Y-73325500D01*
X45663694Y-73325499D01*
X45721682Y-73313964D01*
X45837658Y-73290896D01*
X45837661Y-73290894D01*
X45837666Y-73290894D01*
X46001547Y-73223013D01*
X46149035Y-73124464D01*
X46274464Y-72999035D01*
X46373013Y-72851547D01*
X46440894Y-72687666D01*
X46455879Y-72612332D01*
X46461057Y-72586304D01*
X54974500Y-72586304D01*
X54974500Y-72763695D01*
X55009103Y-72937658D01*
X55009106Y-72937667D01*
X55076983Y-73101540D01*
X55076990Y-73101553D01*
X55175535Y-73249034D01*
X55175538Y-73249038D01*
X55300961Y-73374461D01*
X55300965Y-73374464D01*
X55448446Y-73473009D01*
X55448459Y-73473016D01*
X55571363Y-73523923D01*
X55612334Y-73540894D01*
X55612336Y-73540894D01*
X55612341Y-73540896D01*
X55786304Y-73575499D01*
X55786307Y-73575500D01*
X55786309Y-73575500D01*
X55963693Y-73575500D01*
X55963694Y-73575499D01*
X56021682Y-73563964D01*
X56137658Y-73540896D01*
X56137661Y-73540894D01*
X56137666Y-73540894D01*
X56301547Y-73473013D01*
X56449035Y-73374464D01*
X56574464Y-73249035D01*
X56673013Y-73101547D01*
X56740894Y-72937666D01*
X56775500Y-72763691D01*
X56775500Y-72586309D01*
X56775500Y-72586306D01*
X56775499Y-72586304D01*
X56740896Y-72412341D01*
X56740893Y-72412332D01*
X56673016Y-72248459D01*
X56673009Y-72248446D01*
X56574464Y-72100965D01*
X56574461Y-72100961D01*
X56510681Y-72037181D01*
X56477196Y-71975858D01*
X56482180Y-71906166D01*
X56524052Y-71850233D01*
X56589516Y-71825816D01*
X56598362Y-71825500D01*
X56763693Y-71825500D01*
X56763694Y-71825499D01*
X56846124Y-71809103D01*
X56937658Y-71790896D01*
X56937661Y-71790894D01*
X56937666Y-71790894D01*
X57101547Y-71723013D01*
X57249035Y-71624464D01*
X57374464Y-71499035D01*
X57473013Y-71351547D01*
X57474479Y-71348009D01*
X57509966Y-71262334D01*
X57540894Y-71187666D01*
X57553551Y-71124038D01*
X57575499Y-71013695D01*
X57575500Y-71013693D01*
X57575500Y-70836306D01*
X57575499Y-70836304D01*
X57540896Y-70662341D01*
X57540893Y-70662332D01*
X57531102Y-70638695D01*
X57507806Y-70582452D01*
X57473016Y-70498459D01*
X57473009Y-70498446D01*
X57374464Y-70350965D01*
X57374461Y-70350961D01*
X57249038Y-70225538D01*
X57249034Y-70225535D01*
X57101553Y-70126990D01*
X57101540Y-70126983D01*
X56937667Y-70059106D01*
X56937658Y-70059103D01*
X56763694Y-70024500D01*
X56763691Y-70024500D01*
X56586309Y-70024500D01*
X56586306Y-70024500D01*
X56412341Y-70059103D01*
X56412332Y-70059106D01*
X56248459Y-70126983D01*
X56248446Y-70126990D01*
X56100965Y-70225535D01*
X56100961Y-70225538D01*
X55975538Y-70350961D01*
X55975535Y-70350965D01*
X55876990Y-70498446D01*
X55876983Y-70498459D01*
X55809106Y-70662332D01*
X55809103Y-70662341D01*
X55774500Y-70836304D01*
X55774500Y-71013695D01*
X55809103Y-71187658D01*
X55809106Y-71187667D01*
X55876983Y-71351540D01*
X55876990Y-71351553D01*
X55975535Y-71499034D01*
X55975538Y-71499038D01*
X56039319Y-71562819D01*
X56072804Y-71624142D01*
X56067820Y-71693834D01*
X56025948Y-71749767D01*
X55960484Y-71774184D01*
X55951638Y-71774500D01*
X55786306Y-71774500D01*
X55612341Y-71809103D01*
X55612332Y-71809106D01*
X55448459Y-71876983D01*
X55448446Y-71876990D01*
X55300965Y-71975535D01*
X55300961Y-71975538D01*
X55175538Y-72100961D01*
X55175535Y-72100965D01*
X55076990Y-72248446D01*
X55076983Y-72248459D01*
X55009106Y-72412332D01*
X55009103Y-72412341D01*
X54974500Y-72586304D01*
X46461057Y-72586304D01*
X46467080Y-72556025D01*
X46467080Y-72556024D01*
X46475499Y-72513695D01*
X46475500Y-72513693D01*
X46475500Y-72336306D01*
X46475499Y-72336304D01*
X46440896Y-72162341D01*
X46440893Y-72162332D01*
X46373016Y-71998459D01*
X46373009Y-71998446D01*
X46274464Y-71850965D01*
X46274461Y-71850961D01*
X46149038Y-71725538D01*
X46149034Y-71725535D01*
X46001553Y-71626990D01*
X46001540Y-71626983D01*
X45837667Y-71559106D01*
X45837658Y-71559103D01*
X45663694Y-71524500D01*
X45663691Y-71524500D01*
X45486309Y-71524500D01*
X45486306Y-71524500D01*
X45312341Y-71559103D01*
X45312332Y-71559106D01*
X45148459Y-71626983D01*
X45148446Y-71626990D01*
X45000965Y-71725535D01*
X45000961Y-71725538D01*
X44875538Y-71850961D01*
X44875535Y-71850965D01*
X44776990Y-71998446D01*
X44776983Y-71998459D01*
X44709106Y-72162332D01*
X44709103Y-72162341D01*
X44674500Y-72336304D01*
X31750500Y-72336304D01*
X31750500Y-69436304D01*
X40349500Y-69436304D01*
X40349500Y-69613695D01*
X40384103Y-69787658D01*
X40384106Y-69787667D01*
X40451983Y-69951540D01*
X40451990Y-69951553D01*
X40550535Y-70099034D01*
X40550538Y-70099038D01*
X40675961Y-70224461D01*
X40675965Y-70224464D01*
X40823446Y-70323009D01*
X40823459Y-70323016D01*
X40946363Y-70373923D01*
X40987334Y-70390894D01*
X40987336Y-70390894D01*
X40987341Y-70390896D01*
X41161304Y-70425499D01*
X41161307Y-70425500D01*
X41161309Y-70425500D01*
X41338693Y-70425500D01*
X41338694Y-70425499D01*
X41396682Y-70413964D01*
X41512658Y-70390896D01*
X41512661Y-70390894D01*
X41512666Y-70390894D01*
X41676547Y-70323013D01*
X41824035Y-70224464D01*
X41949464Y-70099035D01*
X42048013Y-69951547D01*
X42115894Y-69787666D01*
X42150500Y-69613691D01*
X42150500Y-69436309D01*
X42150500Y-69436306D01*
X42150499Y-69436304D01*
X42129237Y-69329408D01*
X42125636Y-69311304D01*
X64799500Y-69311304D01*
X64799500Y-69488695D01*
X64834103Y-69662658D01*
X64834106Y-69662667D01*
X64901983Y-69826540D01*
X64901990Y-69826553D01*
X64955148Y-69906109D01*
X64976026Y-69972787D01*
X64957541Y-70040167D01*
X64955148Y-70043891D01*
X64901990Y-70123446D01*
X64901983Y-70123459D01*
X64834106Y-70287332D01*
X64834103Y-70287341D01*
X64799500Y-70461304D01*
X64799500Y-70638695D01*
X64834103Y-70812658D01*
X64834106Y-70812667D01*
X64901983Y-70976540D01*
X64901990Y-70976553D01*
X65000535Y-71124034D01*
X65000538Y-71124038D01*
X65125961Y-71249461D01*
X65125965Y-71249464D01*
X65273446Y-71348009D01*
X65273459Y-71348016D01*
X65335296Y-71373629D01*
X65437334Y-71415894D01*
X65437336Y-71415894D01*
X65437341Y-71415896D01*
X65611304Y-71450499D01*
X65611307Y-71450500D01*
X65611309Y-71450500D01*
X65788693Y-71450500D01*
X65788694Y-71450499D01*
X65860059Y-71436304D01*
X69349500Y-71436304D01*
X69349500Y-71613695D01*
X69384103Y-71787658D01*
X69384106Y-71787667D01*
X69451983Y-71951540D01*
X69451990Y-71951553D01*
X69550535Y-72099034D01*
X69550538Y-72099038D01*
X69675961Y-72224461D01*
X69675965Y-72224464D01*
X69823446Y-72323009D01*
X69823459Y-72323016D01*
X69946363Y-72373923D01*
X69987334Y-72390894D01*
X69987336Y-72390894D01*
X69987341Y-72390896D01*
X70161304Y-72425499D01*
X70161307Y-72425500D01*
X70161309Y-72425500D01*
X70338693Y-72425500D01*
X70338694Y-72425499D01*
X70404891Y-72412332D01*
X70512658Y-72390896D01*
X70512661Y-72390894D01*
X70512666Y-72390894D01*
X70676547Y-72323013D01*
X70824035Y-72224464D01*
X70949464Y-72099035D01*
X71048013Y-71951547D01*
X71048014Y-71951544D01*
X71048016Y-71951541D01*
X71107013Y-71809106D01*
X71110439Y-71800834D01*
X71154279Y-71746431D01*
X71220573Y-71724366D01*
X71288273Y-71741645D01*
X71335883Y-71792782D01*
X71339557Y-71800828D01*
X71342987Y-71809106D01*
X71401983Y-71951541D01*
X71401990Y-71951553D01*
X71500535Y-72099034D01*
X71500538Y-72099038D01*
X71625961Y-72224461D01*
X71625965Y-72224464D01*
X71773446Y-72323009D01*
X71773459Y-72323016D01*
X71896363Y-72373923D01*
X71937334Y-72390894D01*
X71937336Y-72390894D01*
X71937341Y-72390896D01*
X72055677Y-72414434D01*
X72117588Y-72446818D01*
X72152162Y-72507534D01*
X72148423Y-72577304D01*
X72146049Y-72583500D01*
X72134107Y-72612333D01*
X72134105Y-72612337D01*
X72134103Y-72612341D01*
X72099500Y-72786304D01*
X72099500Y-72963695D01*
X72134103Y-73137658D01*
X72134106Y-73137667D01*
X72201983Y-73301540D01*
X72201990Y-73301553D01*
X72300535Y-73449034D01*
X72300538Y-73449038D01*
X72425961Y-73574461D01*
X72425965Y-73574464D01*
X72573446Y-73673009D01*
X72573459Y-73673016D01*
X72696363Y-73723923D01*
X72737334Y-73740894D01*
X72737336Y-73740894D01*
X72737341Y-73740896D01*
X72872257Y-73767732D01*
X72934168Y-73800116D01*
X72968742Y-73860832D01*
X72969683Y-73865158D01*
X72984103Y-73937658D01*
X72984106Y-73937667D01*
X73051983Y-74101540D01*
X73051990Y-74101553D01*
X73150535Y-74249034D01*
X73150538Y-74249038D01*
X73275961Y-74374461D01*
X73275965Y-74374464D01*
X73423446Y-74473009D01*
X73423459Y-74473016D01*
X73546363Y-74523923D01*
X73587334Y-74540894D01*
X73587336Y-74540894D01*
X73587341Y-74540896D01*
X73761304Y-74575499D01*
X73761307Y-74575500D01*
X73761309Y-74575500D01*
X73938693Y-74575500D01*
X73938694Y-74575499D01*
X73996682Y-74563964D01*
X74112658Y-74540896D01*
X74112661Y-74540894D01*
X74112666Y-74540894D01*
X74276547Y-74473013D01*
X74424035Y-74374464D01*
X74549464Y-74249035D01*
X74648013Y-74101547D01*
X74715894Y-73937666D01*
X74750500Y-73763691D01*
X74750500Y-73586309D01*
X74750500Y-73586306D01*
X74750499Y-73586304D01*
X74715896Y-73412341D01*
X74715893Y-73412332D01*
X74648016Y-73248459D01*
X74648009Y-73248446D01*
X74549464Y-73100965D01*
X74549461Y-73100961D01*
X74424038Y-72975538D01*
X74424034Y-72975535D01*
X74276553Y-72876990D01*
X74276540Y-72876983D01*
X74112667Y-72809106D01*
X74112659Y-72809104D01*
X73977741Y-72782267D01*
X73915830Y-72749882D01*
X73881256Y-72689166D01*
X73880331Y-72684916D01*
X73865894Y-72612334D01*
X73811355Y-72480664D01*
X73798016Y-72448459D01*
X73798009Y-72448446D01*
X73699464Y-72300965D01*
X73699461Y-72300961D01*
X73574038Y-72175538D01*
X73574034Y-72175535D01*
X73426553Y-72076990D01*
X73426540Y-72076983D01*
X73262667Y-72009106D01*
X73262659Y-72009104D01*
X73144321Y-71985565D01*
X73082410Y-71953180D01*
X73047836Y-71892464D01*
X73051576Y-71822695D01*
X73053942Y-71816519D01*
X73065894Y-71787666D01*
X73067736Y-71778409D01*
X73089908Y-71666941D01*
X73100500Y-71613691D01*
X73100500Y-71436309D01*
X73100500Y-71436306D01*
X73100499Y-71436304D01*
X73065896Y-71262341D01*
X73065893Y-71262332D01*
X72998016Y-71098459D01*
X72998009Y-71098446D01*
X72899464Y-70950965D01*
X72899461Y-70950961D01*
X72774038Y-70825538D01*
X72774034Y-70825535D01*
X72626553Y-70726990D01*
X72626540Y-70726983D01*
X72462667Y-70659106D01*
X72462658Y-70659103D01*
X72288694Y-70624500D01*
X72288691Y-70624500D01*
X72111309Y-70624500D01*
X72111306Y-70624500D01*
X71937341Y-70659103D01*
X71937332Y-70659106D01*
X71773459Y-70726983D01*
X71773446Y-70726990D01*
X71625965Y-70825535D01*
X71625961Y-70825538D01*
X71500538Y-70950961D01*
X71500535Y-70950965D01*
X71401990Y-71098446D01*
X71401983Y-71098459D01*
X71339561Y-71249164D01*
X71295721Y-71303568D01*
X71229427Y-71325633D01*
X71161727Y-71308354D01*
X71114116Y-71257217D01*
X71110439Y-71249164D01*
X71048016Y-71098459D01*
X71048009Y-71098446D01*
X70949464Y-70950965D01*
X70949461Y-70950961D01*
X70824038Y-70825538D01*
X70824034Y-70825535D01*
X70676553Y-70726990D01*
X70676540Y-70726983D01*
X70512667Y-70659106D01*
X70512658Y-70659103D01*
X70338694Y-70624500D01*
X70338691Y-70624500D01*
X70161309Y-70624500D01*
X70161306Y-70624500D01*
X69987341Y-70659103D01*
X69987332Y-70659106D01*
X69823459Y-70726983D01*
X69823446Y-70726990D01*
X69675965Y-70825535D01*
X69675961Y-70825538D01*
X69550538Y-70950961D01*
X69550535Y-70950965D01*
X69451990Y-71098446D01*
X69451983Y-71098459D01*
X69384106Y-71262332D01*
X69384103Y-71262341D01*
X69349500Y-71436304D01*
X65860059Y-71436304D01*
X65962658Y-71415896D01*
X65962661Y-71415894D01*
X65962666Y-71415894D01*
X66126547Y-71348013D01*
X66126553Y-71348009D01*
X66157824Y-71327115D01*
X66254763Y-71262341D01*
X66274035Y-71249464D01*
X66399464Y-71124035D01*
X66498013Y-70976547D01*
X66565894Y-70812666D01*
X66600500Y-70638691D01*
X66600500Y-70461309D01*
X66600500Y-70461306D01*
X66600499Y-70461304D01*
X66565896Y-70287341D01*
X66565893Y-70287332D01*
X66504266Y-70138549D01*
X77299500Y-70138549D01*
X77299500Y-70361450D01*
X77299501Y-70361466D01*
X77328594Y-70582452D01*
X77328595Y-70582457D01*
X77328596Y-70582463D01*
X77367320Y-70726983D01*
X77386290Y-70797780D01*
X77386293Y-70797790D01*
X77471593Y-71003722D01*
X77471595Y-71003726D01*
X77583052Y-71196774D01*
X77583057Y-71196780D01*
X77583058Y-71196782D01*
X77718751Y-71373622D01*
X77718757Y-71373629D01*
X77876370Y-71531242D01*
X77876377Y-71531248D01*
X77983820Y-71613691D01*
X78053226Y-71666948D01*
X78246274Y-71778405D01*
X78246277Y-71778406D01*
X78246282Y-71778409D01*
X78324817Y-71810939D01*
X78379221Y-71854780D01*
X78401286Y-71921074D01*
X78384007Y-71988773D01*
X78332870Y-72036384D01*
X78277365Y-72049500D01*
X77999984Y-72049500D01*
X77897204Y-72060000D01*
X77897203Y-72060001D01*
X77730664Y-72115186D01*
X77730662Y-72115187D01*
X77581348Y-72207286D01*
X77581344Y-72207289D01*
X77457289Y-72331344D01*
X77457286Y-72331348D01*
X77365187Y-72480662D01*
X77365186Y-72480664D01*
X77310001Y-72647203D01*
X77310000Y-72647204D01*
X77299500Y-72749984D01*
X77299500Y-74750015D01*
X77310000Y-74852795D01*
X77310001Y-74852796D01*
X77365186Y-75019335D01*
X77365187Y-75019337D01*
X77457286Y-75168651D01*
X77457289Y-75168655D01*
X77581344Y-75292710D01*
X77581348Y-75292713D01*
X77730662Y-75384812D01*
X77730664Y-75384813D01*
X77730666Y-75384814D01*
X77897203Y-75439999D01*
X77999992Y-75450500D01*
X77999997Y-75450500D01*
X80000003Y-75450500D01*
X80000008Y-75450500D01*
X80102797Y-75439999D01*
X80269334Y-75384814D01*
X80418655Y-75292711D01*
X80542711Y-75168655D01*
X80634814Y-75019334D01*
X80689999Y-74852797D01*
X80700500Y-74750008D01*
X80700500Y-72749992D01*
X80689999Y-72647203D01*
X80634814Y-72480666D01*
X80614948Y-72448459D01*
X80542713Y-72331348D01*
X80542710Y-72331344D01*
X80418655Y-72207289D01*
X80418651Y-72207286D01*
X80269337Y-72115187D01*
X80269335Y-72115186D01*
X80154045Y-72076983D01*
X80102797Y-72060001D01*
X80102795Y-72060000D01*
X80000015Y-72049500D01*
X80000008Y-72049500D01*
X79722635Y-72049500D01*
X79655596Y-72029815D01*
X79609841Y-71977011D01*
X79599897Y-71907853D01*
X79628922Y-71844297D01*
X79675183Y-71810939D01*
X79753717Y-71778409D01*
X79753718Y-71778407D01*
X79753726Y-71778405D01*
X79946774Y-71666948D01*
X80123624Y-71531247D01*
X80281247Y-71373624D01*
X80416948Y-71196774D01*
X80528405Y-71003726D01*
X80613710Y-70797781D01*
X80671404Y-70582463D01*
X80700500Y-70361457D01*
X80700500Y-70138543D01*
X80671404Y-69917537D01*
X80613710Y-69702219D01*
X80528405Y-69496274D01*
X80416948Y-69303226D01*
X80289661Y-69137341D01*
X80281248Y-69126377D01*
X80281242Y-69126370D01*
X80123629Y-68968757D01*
X80123622Y-68968751D01*
X79946782Y-68833058D01*
X79946780Y-68833057D01*
X79946774Y-68833052D01*
X79753726Y-68721595D01*
X79753722Y-68721593D01*
X79547790Y-68636293D01*
X79547783Y-68636291D01*
X79547781Y-68636290D01*
X79332463Y-68578596D01*
X79332457Y-68578595D01*
X79332452Y-68578594D01*
X79111466Y-68549501D01*
X79111463Y-68549500D01*
X79111457Y-68549500D01*
X78888543Y-68549500D01*
X78888537Y-68549500D01*
X78888533Y-68549501D01*
X78667547Y-68578594D01*
X78667540Y-68578595D01*
X78667537Y-68578596D01*
X78580229Y-68601990D01*
X78452219Y-68636290D01*
X78452209Y-68636293D01*
X78246277Y-68721593D01*
X78246273Y-68721595D01*
X78053226Y-68833052D01*
X78053217Y-68833058D01*
X77876377Y-68968751D01*
X77876370Y-68968757D01*
X77718757Y-69126370D01*
X77718751Y-69126377D01*
X77583058Y-69303217D01*
X77583052Y-69303226D01*
X77471595Y-69496273D01*
X77471593Y-69496277D01*
X77386293Y-69702209D01*
X77386290Y-69702219D01*
X77331659Y-69906108D01*
X77328597Y-69917534D01*
X77328594Y-69917547D01*
X77299501Y-70138533D01*
X77299500Y-70138549D01*
X66504266Y-70138549D01*
X66498013Y-70123453D01*
X66442067Y-70039725D01*
X66439628Y-70035346D01*
X66432976Y-70005968D01*
X66423973Y-69977214D01*
X66425338Y-69972235D01*
X66424199Y-69967201D01*
X66434485Y-69938890D01*
X66442457Y-69909834D01*
X66444834Y-69906134D01*
X66498013Y-69826547D01*
X66565894Y-69662666D01*
X66575636Y-69613693D01*
X66598991Y-69496277D01*
X66600500Y-69488691D01*
X66600500Y-69311309D01*
X66600500Y-69311306D01*
X66600499Y-69311304D01*
X66565896Y-69137341D01*
X66565893Y-69137332D01*
X66561355Y-69126377D01*
X66536303Y-69065894D01*
X66498016Y-68973459D01*
X66498009Y-68973446D01*
X66399464Y-68825965D01*
X66399461Y-68825961D01*
X66274038Y-68700538D01*
X66274034Y-68700535D01*
X66126553Y-68601990D01*
X66126540Y-68601983D01*
X65962667Y-68534106D01*
X65962658Y-68534103D01*
X65788694Y-68499500D01*
X65788691Y-68499500D01*
X65611309Y-68499500D01*
X65611306Y-68499500D01*
X65437341Y-68534103D01*
X65437332Y-68534106D01*
X65273459Y-68601983D01*
X65273446Y-68601990D01*
X65125965Y-68700535D01*
X65125961Y-68700538D01*
X65000538Y-68825961D01*
X65000535Y-68825965D01*
X64901990Y-68973446D01*
X64901983Y-68973459D01*
X64834106Y-69137332D01*
X64834103Y-69137341D01*
X64799500Y-69311304D01*
X42125636Y-69311304D01*
X42115895Y-69262340D01*
X42115894Y-69262334D01*
X42064117Y-69137332D01*
X42048016Y-69098459D01*
X42048009Y-69098446D01*
X41949464Y-68950965D01*
X41949461Y-68950961D01*
X41824038Y-68825538D01*
X41824034Y-68825535D01*
X41676553Y-68726990D01*
X41676540Y-68726983D01*
X41512667Y-68659106D01*
X41512658Y-68659103D01*
X41338694Y-68624500D01*
X41338691Y-68624500D01*
X41161309Y-68624500D01*
X41161306Y-68624500D01*
X40987341Y-68659103D01*
X40987332Y-68659106D01*
X40823459Y-68726983D01*
X40823446Y-68726990D01*
X40675965Y-68825535D01*
X40675961Y-68825538D01*
X40550538Y-68950961D01*
X40550535Y-68950965D01*
X40451990Y-69098446D01*
X40451983Y-69098459D01*
X40384106Y-69262332D01*
X40384103Y-69262341D01*
X40349500Y-69436304D01*
X31750500Y-69436304D01*
X31750500Y-68111304D01*
X71549500Y-68111304D01*
X71549500Y-68288695D01*
X71584103Y-68462658D01*
X71584106Y-68462667D01*
X71651983Y-68626540D01*
X71651990Y-68626553D01*
X71750535Y-68774034D01*
X71750538Y-68774038D01*
X71875961Y-68899461D01*
X71875965Y-68899464D01*
X72023446Y-68998009D01*
X72023459Y-68998016D01*
X72146363Y-69048923D01*
X72187334Y-69065894D01*
X72187336Y-69065894D01*
X72187341Y-69065896D01*
X72361304Y-69100499D01*
X72361307Y-69100500D01*
X72361309Y-69100500D01*
X72538693Y-69100500D01*
X72538694Y-69100499D01*
X72596682Y-69088964D01*
X72712658Y-69065896D01*
X72712661Y-69065894D01*
X72712666Y-69065894D01*
X72876547Y-68998013D01*
X73024035Y-68899464D01*
X73149464Y-68774035D01*
X73248013Y-68626547D01*
X73315894Y-68462666D01*
X73350500Y-68288691D01*
X73350500Y-68111309D01*
X73350500Y-68111306D01*
X73350499Y-68111304D01*
X73315896Y-67937341D01*
X73315893Y-67937332D01*
X73248016Y-67773459D01*
X73248009Y-67773446D01*
X73149464Y-67625965D01*
X73149461Y-67625961D01*
X73024038Y-67500538D01*
X73024034Y-67500535D01*
X72876553Y-67401990D01*
X72876540Y-67401983D01*
X72712667Y-67334106D01*
X72712658Y-67334103D01*
X72538694Y-67299500D01*
X72538691Y-67299500D01*
X72361309Y-67299500D01*
X72361306Y-67299500D01*
X72187341Y-67334103D01*
X72187332Y-67334106D01*
X72023459Y-67401983D01*
X72023446Y-67401990D01*
X71875965Y-67500535D01*
X71875961Y-67500538D01*
X71750538Y-67625961D01*
X71750535Y-67625965D01*
X71651990Y-67773446D01*
X71651983Y-67773459D01*
X71584106Y-67937332D01*
X71584103Y-67937341D01*
X71549500Y-68111304D01*
X31750500Y-68111304D01*
X31750500Y-65936304D01*
X36574500Y-65936304D01*
X36574500Y-66113695D01*
X36609103Y-66287658D01*
X36609106Y-66287667D01*
X36676983Y-66451540D01*
X36676990Y-66451553D01*
X36775535Y-66599034D01*
X36775538Y-66599038D01*
X36900961Y-66724461D01*
X36900965Y-66724464D01*
X37048446Y-66823009D01*
X37048459Y-66823016D01*
X37171363Y-66873923D01*
X37212334Y-66890894D01*
X37212336Y-66890894D01*
X37212341Y-66890896D01*
X37386304Y-66925499D01*
X37386307Y-66925500D01*
X37386309Y-66925500D01*
X37563693Y-66925500D01*
X37563694Y-66925499D01*
X37621682Y-66913964D01*
X37737658Y-66890896D01*
X37737661Y-66890894D01*
X37737666Y-66890894D01*
X37901547Y-66823013D01*
X38049035Y-66724464D01*
X38174464Y-66599035D01*
X38273013Y-66451547D01*
X38340894Y-66287666D01*
X38375500Y-66113691D01*
X38375500Y-65936309D01*
X38375500Y-65936306D01*
X38375499Y-65936304D01*
X38340896Y-65762341D01*
X38340893Y-65762332D01*
X38273016Y-65598459D01*
X38273014Y-65598455D01*
X38273013Y-65598453D01*
X38174464Y-65450965D01*
X38174461Y-65450961D01*
X38134804Y-65411304D01*
X39849500Y-65411304D01*
X39849500Y-65588695D01*
X39884103Y-65762658D01*
X39884106Y-65762667D01*
X39951983Y-65926540D01*
X39951990Y-65926553D01*
X40050535Y-66074034D01*
X40050538Y-66074038D01*
X40175961Y-66199461D01*
X40175965Y-66199464D01*
X40323446Y-66298009D01*
X40323459Y-66298016D01*
X40446363Y-66348923D01*
X40487334Y-66365894D01*
X40487336Y-66365894D01*
X40487341Y-66365896D01*
X40661304Y-66400499D01*
X40661307Y-66400500D01*
X40661309Y-66400500D01*
X40838693Y-66400500D01*
X40838694Y-66400499D01*
X40896682Y-66388964D01*
X41012658Y-66365896D01*
X41012661Y-66365894D01*
X41012666Y-66365894D01*
X41176547Y-66298013D01*
X41306109Y-66211442D01*
X41372786Y-66190564D01*
X41440166Y-66209048D01*
X41443891Y-66211442D01*
X41573453Y-66298013D01*
X41573455Y-66298014D01*
X41573459Y-66298016D01*
X41696363Y-66348923D01*
X41737334Y-66365894D01*
X41737336Y-66365894D01*
X41737341Y-66365896D01*
X41911304Y-66400499D01*
X41911307Y-66400500D01*
X41911309Y-66400500D01*
X42088693Y-66400500D01*
X42088694Y-66400499D01*
X42146682Y-66388964D01*
X42262658Y-66365896D01*
X42262661Y-66365894D01*
X42262666Y-66365894D01*
X42426547Y-66298013D01*
X42574035Y-66199464D01*
X42699464Y-66074035D01*
X42798013Y-65926547D01*
X42835392Y-65836304D01*
X71524500Y-65836304D01*
X71524500Y-66013695D01*
X71559103Y-66187658D01*
X71559106Y-66187667D01*
X71626983Y-66351540D01*
X71626990Y-66351553D01*
X71725535Y-66499034D01*
X71725538Y-66499038D01*
X71850961Y-66624461D01*
X71850965Y-66624464D01*
X71998446Y-66723009D01*
X71998459Y-66723016D01*
X72121363Y-66773923D01*
X72162334Y-66790894D01*
X72162336Y-66790894D01*
X72162341Y-66790896D01*
X72336304Y-66825499D01*
X72336307Y-66825500D01*
X72336309Y-66825500D01*
X72513693Y-66825500D01*
X72513694Y-66825499D01*
X72571682Y-66813964D01*
X72687658Y-66790896D01*
X72687661Y-66790894D01*
X72687666Y-66790894D01*
X72851547Y-66723013D01*
X72999035Y-66624464D01*
X73124464Y-66499035D01*
X73223013Y-66351547D01*
X73290894Y-66187666D01*
X73325500Y-66013691D01*
X73325500Y-65836309D01*
X73325500Y-65836306D01*
X73325499Y-65836304D01*
X73290896Y-65662341D01*
X73290893Y-65662332D01*
X73223016Y-65498459D01*
X73223009Y-65498446D01*
X73124464Y-65350965D01*
X73124461Y-65350961D01*
X72999038Y-65225538D01*
X72999034Y-65225535D01*
X72851553Y-65126990D01*
X72851540Y-65126983D01*
X72687667Y-65059106D01*
X72687658Y-65059103D01*
X72513694Y-65024500D01*
X72513691Y-65024500D01*
X72336309Y-65024500D01*
X72336306Y-65024500D01*
X72162341Y-65059103D01*
X72162332Y-65059106D01*
X71998459Y-65126983D01*
X71998446Y-65126990D01*
X71850965Y-65225535D01*
X71850961Y-65225538D01*
X71725538Y-65350961D01*
X71725535Y-65350965D01*
X71626990Y-65498446D01*
X71626983Y-65498459D01*
X71559106Y-65662332D01*
X71559103Y-65662341D01*
X71524500Y-65836304D01*
X42835392Y-65836304D01*
X42865894Y-65762666D01*
X42865961Y-65762332D01*
X42898559Y-65598447D01*
X42900500Y-65588691D01*
X42900500Y-65411309D01*
X42900500Y-65411306D01*
X42900499Y-65411304D01*
X42865896Y-65237341D01*
X42865893Y-65237332D01*
X42861606Y-65226983D01*
X42820189Y-65126990D01*
X42798016Y-65073459D01*
X42798009Y-65073446D01*
X42699464Y-64925965D01*
X42699461Y-64925961D01*
X42574038Y-64800538D01*
X42574034Y-64800535D01*
X42426553Y-64701990D01*
X42426540Y-64701983D01*
X42262667Y-64634106D01*
X42262658Y-64634103D01*
X42088694Y-64599500D01*
X42088691Y-64599500D01*
X41911309Y-64599500D01*
X41911306Y-64599500D01*
X41737341Y-64634103D01*
X41737332Y-64634106D01*
X41573459Y-64701983D01*
X41573446Y-64701990D01*
X41443891Y-64788557D01*
X41377213Y-64809435D01*
X41309833Y-64790950D01*
X41306109Y-64788557D01*
X41176553Y-64701990D01*
X41176540Y-64701983D01*
X41012667Y-64634106D01*
X41012658Y-64634103D01*
X40838694Y-64599500D01*
X40838691Y-64599500D01*
X40661309Y-64599500D01*
X40661306Y-64599500D01*
X40487341Y-64634103D01*
X40487332Y-64634106D01*
X40323459Y-64701983D01*
X40323446Y-64701990D01*
X40175965Y-64800535D01*
X40175961Y-64800538D01*
X40050538Y-64925961D01*
X40050535Y-64925965D01*
X39951990Y-65073446D01*
X39951983Y-65073459D01*
X39884106Y-65237332D01*
X39884103Y-65237341D01*
X39849500Y-65411304D01*
X38134804Y-65411304D01*
X38049038Y-65325538D01*
X38049034Y-65325535D01*
X37901553Y-65226990D01*
X37901540Y-65226983D01*
X37737667Y-65159106D01*
X37737658Y-65159103D01*
X37563694Y-65124500D01*
X37563691Y-65124500D01*
X37386309Y-65124500D01*
X37386306Y-65124500D01*
X37212341Y-65159103D01*
X37212332Y-65159106D01*
X37048459Y-65226983D01*
X37048446Y-65226990D01*
X36900965Y-65325535D01*
X36900961Y-65325538D01*
X36775538Y-65450961D01*
X36775535Y-65450965D01*
X36676990Y-65598446D01*
X36676983Y-65598459D01*
X36609106Y-65762332D01*
X36609103Y-65762341D01*
X36574500Y-65936304D01*
X31750500Y-65936304D01*
X31750500Y-64011304D01*
X35099500Y-64011304D01*
X35099500Y-64188695D01*
X35134103Y-64362658D01*
X35134106Y-64362667D01*
X35201983Y-64526540D01*
X35201990Y-64526553D01*
X35300535Y-64674034D01*
X35300538Y-64674038D01*
X35425961Y-64799461D01*
X35425965Y-64799464D01*
X35573446Y-64898009D01*
X35573459Y-64898016D01*
X35696363Y-64948923D01*
X35737334Y-64965894D01*
X35737336Y-64965894D01*
X35737341Y-64965896D01*
X35911304Y-65000499D01*
X35911307Y-65000500D01*
X35911309Y-65000500D01*
X36088693Y-65000500D01*
X36088694Y-65000499D01*
X36146682Y-64988964D01*
X36262658Y-64965896D01*
X36262661Y-64965894D01*
X36262666Y-64965894D01*
X36426547Y-64898013D01*
X36574035Y-64799464D01*
X36699464Y-64674035D01*
X36798013Y-64526547D01*
X36865894Y-64362666D01*
X36900500Y-64188691D01*
X36900500Y-64011309D01*
X36900500Y-64011306D01*
X36900499Y-64011304D01*
X36865896Y-63837341D01*
X36865893Y-63837332D01*
X36798016Y-63673459D01*
X36798009Y-63673446D01*
X36699464Y-63525965D01*
X36699461Y-63525961D01*
X36574038Y-63400538D01*
X36574034Y-63400535D01*
X36426553Y-63301990D01*
X36426540Y-63301983D01*
X36262667Y-63234106D01*
X36262658Y-63234103D01*
X36088694Y-63199500D01*
X36088691Y-63199500D01*
X35911309Y-63199500D01*
X35911306Y-63199500D01*
X35737341Y-63234103D01*
X35737332Y-63234106D01*
X35573459Y-63301983D01*
X35573446Y-63301990D01*
X35425965Y-63400535D01*
X35425961Y-63400538D01*
X35300538Y-63525961D01*
X35300535Y-63525965D01*
X35201990Y-63673446D01*
X35201983Y-63673459D01*
X35134106Y-63837332D01*
X35134103Y-63837341D01*
X35099500Y-64011304D01*
X31750500Y-64011304D01*
X31750500Y-59911304D01*
X38924500Y-59911304D01*
X38924500Y-60088695D01*
X38959103Y-60262658D01*
X38959106Y-60262667D01*
X39026983Y-60426540D01*
X39026990Y-60426553D01*
X39125535Y-60574034D01*
X39125538Y-60574038D01*
X39250961Y-60699461D01*
X39250965Y-60699464D01*
X39398446Y-60798009D01*
X39398459Y-60798016D01*
X39482565Y-60832853D01*
X39562334Y-60865894D01*
X39562336Y-60865894D01*
X39562341Y-60865896D01*
X39736304Y-60900499D01*
X39736307Y-60900500D01*
X39878811Y-60900500D01*
X39945850Y-60920185D01*
X39991605Y-60972989D01*
X40001549Y-61042147D01*
X39972524Y-61105703D01*
X39947702Y-61127602D01*
X39875965Y-61175535D01*
X39875961Y-61175538D01*
X39750538Y-61300961D01*
X39750535Y-61300965D01*
X39651990Y-61448446D01*
X39651983Y-61448459D01*
X39584106Y-61612332D01*
X39584103Y-61612341D01*
X39549500Y-61786304D01*
X39549500Y-61963695D01*
X39584103Y-62137658D01*
X39584106Y-62137667D01*
X39651983Y-62301540D01*
X39651990Y-62301553D01*
X39750535Y-62449034D01*
X39750538Y-62449038D01*
X39875961Y-62574461D01*
X39875965Y-62574464D01*
X40023446Y-62673009D01*
X40023459Y-62673016D01*
X40146363Y-62723923D01*
X40187334Y-62740894D01*
X40187336Y-62740894D01*
X40187341Y-62740896D01*
X40361304Y-62775499D01*
X40361307Y-62775500D01*
X40361309Y-62775500D01*
X40538693Y-62775500D01*
X40538694Y-62775499D01*
X40596682Y-62763964D01*
X40712658Y-62740896D01*
X40712661Y-62740894D01*
X40712666Y-62740894D01*
X40876547Y-62673013D01*
X41024035Y-62574464D01*
X41149464Y-62449035D01*
X41248013Y-62301547D01*
X41315894Y-62137666D01*
X41350500Y-61963691D01*
X41350500Y-61786309D01*
X41350500Y-61786306D01*
X41350499Y-61786304D01*
X41315896Y-61612341D01*
X41315893Y-61612332D01*
X41248016Y-61448459D01*
X41248009Y-61448446D01*
X41149464Y-61300965D01*
X41149461Y-61300961D01*
X41024038Y-61175538D01*
X41024034Y-61175535D01*
X40886024Y-61083319D01*
X40886023Y-61083318D01*
X40876554Y-61076991D01*
X40876540Y-61076983D01*
X40712667Y-61009106D01*
X40712658Y-61009103D01*
X40598038Y-60986304D01*
X51874500Y-60986304D01*
X51874500Y-61163695D01*
X51909103Y-61337658D01*
X51909106Y-61337667D01*
X51976983Y-61501540D01*
X51976990Y-61501553D01*
X52075535Y-61649034D01*
X52075538Y-61649038D01*
X52200961Y-61774461D01*
X52200965Y-61774464D01*
X52348446Y-61873009D01*
X52348459Y-61873016D01*
X52471363Y-61923923D01*
X52512334Y-61940894D01*
X52512336Y-61940894D01*
X52512341Y-61940896D01*
X52686304Y-61975499D01*
X52686307Y-61975500D01*
X52686309Y-61975500D01*
X52863693Y-61975500D01*
X52863694Y-61975499D01*
X52923058Y-61963691D01*
X53037658Y-61940896D01*
X53037661Y-61940894D01*
X53037666Y-61940894D01*
X53201547Y-61873013D01*
X53349035Y-61774464D01*
X53474464Y-61649035D01*
X53573013Y-61501547D01*
X53640894Y-61337666D01*
X53648195Y-61300965D01*
X53675499Y-61163695D01*
X53675500Y-61163693D01*
X53675500Y-60986306D01*
X53675499Y-60986304D01*
X53640896Y-60812341D01*
X53640893Y-60812332D01*
X53573016Y-60648459D01*
X53573009Y-60648446D01*
X53474464Y-60500965D01*
X53474461Y-60500961D01*
X53349038Y-60375538D01*
X53349034Y-60375535D01*
X53201553Y-60276990D01*
X53201540Y-60276983D01*
X53037667Y-60209106D01*
X53037658Y-60209103D01*
X52863694Y-60174500D01*
X52863691Y-60174500D01*
X52686309Y-60174500D01*
X52686306Y-60174500D01*
X52512341Y-60209103D01*
X52512332Y-60209106D01*
X52348459Y-60276983D01*
X52348446Y-60276990D01*
X52200965Y-60375535D01*
X52200961Y-60375538D01*
X52075538Y-60500961D01*
X52075535Y-60500965D01*
X51976990Y-60648446D01*
X51976983Y-60648459D01*
X51909106Y-60812332D01*
X51909103Y-60812341D01*
X51874500Y-60986304D01*
X40598038Y-60986304D01*
X40538694Y-60974500D01*
X40538691Y-60974500D01*
X40396189Y-60974500D01*
X40329150Y-60954815D01*
X40283395Y-60902011D01*
X40273451Y-60832853D01*
X40302476Y-60769297D01*
X40327298Y-60747398D01*
X40359479Y-60725894D01*
X40399035Y-60699464D01*
X40449038Y-60649461D01*
X40499819Y-60598681D01*
X40561142Y-60565196D01*
X40630834Y-60570180D01*
X40675181Y-60598681D01*
X40725961Y-60649461D01*
X40725965Y-60649464D01*
X40873446Y-60748009D01*
X40873459Y-60748016D01*
X40994155Y-60798009D01*
X41037334Y-60815894D01*
X41037336Y-60815894D01*
X41037341Y-60815896D01*
X41211304Y-60850499D01*
X41211307Y-60850500D01*
X41211309Y-60850500D01*
X41388693Y-60850500D01*
X41388694Y-60850499D01*
X41477408Y-60832853D01*
X41562658Y-60815896D01*
X41562661Y-60815894D01*
X41562666Y-60815894D01*
X41726547Y-60748013D01*
X41874035Y-60649464D01*
X41999464Y-60524035D01*
X42098013Y-60376547D01*
X42165894Y-60212666D01*
X42166603Y-60209106D01*
X42188964Y-60096682D01*
X42200500Y-60038691D01*
X42200500Y-59861309D01*
X42200500Y-59861306D01*
X42200499Y-59861304D01*
X42165896Y-59687341D01*
X42165893Y-59687332D01*
X42098016Y-59523459D01*
X42098009Y-59523446D01*
X41999464Y-59375965D01*
X41999461Y-59375961D01*
X41874038Y-59250538D01*
X41874034Y-59250535D01*
X41726553Y-59151990D01*
X41726540Y-59151983D01*
X41562667Y-59084106D01*
X41562658Y-59084103D01*
X41388694Y-59049500D01*
X41388691Y-59049500D01*
X41211309Y-59049500D01*
X41211306Y-59049500D01*
X41037341Y-59084103D01*
X41037332Y-59084106D01*
X40873459Y-59151983D01*
X40873446Y-59151990D01*
X40725965Y-59250535D01*
X40725961Y-59250538D01*
X40625181Y-59351319D01*
X40563858Y-59384804D01*
X40494166Y-59379820D01*
X40449819Y-59351319D01*
X40399038Y-59300538D01*
X40399034Y-59300535D01*
X40251553Y-59201990D01*
X40251540Y-59201983D01*
X40087667Y-59134106D01*
X40087658Y-59134103D01*
X39913694Y-59099500D01*
X39913691Y-59099500D01*
X39736309Y-59099500D01*
X39736306Y-59099500D01*
X39562341Y-59134103D01*
X39562332Y-59134106D01*
X39398459Y-59201983D01*
X39398446Y-59201990D01*
X39250965Y-59300535D01*
X39250961Y-59300538D01*
X39125538Y-59425961D01*
X39125535Y-59425965D01*
X39026990Y-59573446D01*
X39026983Y-59573459D01*
X38959106Y-59737332D01*
X38959103Y-59737341D01*
X38924500Y-59911304D01*
X31750500Y-59911304D01*
X31750500Y-57086304D01*
X40724500Y-57086304D01*
X40724500Y-57263695D01*
X40759103Y-57437658D01*
X40759106Y-57437667D01*
X40826983Y-57601540D01*
X40826990Y-57601553D01*
X40925535Y-57749034D01*
X40925538Y-57749038D01*
X41050961Y-57874461D01*
X41050965Y-57874464D01*
X41198446Y-57973009D01*
X41198459Y-57973016D01*
X41268403Y-58001987D01*
X41362334Y-58040894D01*
X41362336Y-58040894D01*
X41362341Y-58040896D01*
X41536304Y-58075499D01*
X41536307Y-58075500D01*
X41536309Y-58075500D01*
X41713693Y-58075500D01*
X41713694Y-58075499D01*
X41771682Y-58063964D01*
X41887658Y-58040896D01*
X41887661Y-58040894D01*
X41887666Y-58040894D01*
X42051547Y-57973013D01*
X42199035Y-57874464D01*
X42324464Y-57749035D01*
X42423013Y-57601547D01*
X42490894Y-57437666D01*
X42493222Y-57425965D01*
X42525499Y-57263695D01*
X42525500Y-57263693D01*
X42525500Y-57111304D01*
X46524500Y-57111304D01*
X46524500Y-57288695D01*
X46559103Y-57462658D01*
X46559106Y-57462667D01*
X46626983Y-57626540D01*
X46626990Y-57626553D01*
X46725535Y-57774034D01*
X46725538Y-57774038D01*
X46850961Y-57899461D01*
X46850965Y-57899464D01*
X46998446Y-57998009D01*
X46998459Y-57998016D01*
X47101978Y-58040894D01*
X47162334Y-58065894D01*
X47162336Y-58065894D01*
X47162341Y-58065896D01*
X47336304Y-58100499D01*
X47336307Y-58100500D01*
X47336309Y-58100500D01*
X47513693Y-58100500D01*
X47513694Y-58100499D01*
X47589181Y-58085484D01*
X47687658Y-58065896D01*
X47687661Y-58065894D01*
X47687666Y-58065894D01*
X47841953Y-58001987D01*
X47851540Y-57998016D01*
X47851540Y-57998015D01*
X47851547Y-57998013D01*
X47981315Y-57911304D01*
X55099500Y-57911304D01*
X55099500Y-58088695D01*
X55134103Y-58262658D01*
X55134106Y-58262667D01*
X55201983Y-58426540D01*
X55201990Y-58426553D01*
X55300535Y-58574034D01*
X55300538Y-58574038D01*
X55425961Y-58699461D01*
X55425965Y-58699464D01*
X55573446Y-58798009D01*
X55573459Y-58798016D01*
X55696363Y-58848923D01*
X55737334Y-58865894D01*
X55737336Y-58865894D01*
X55737341Y-58865896D01*
X55911304Y-58900499D01*
X55911307Y-58900500D01*
X55911309Y-58900500D01*
X56088693Y-58900500D01*
X56088694Y-58900499D01*
X56148058Y-58888691D01*
X56262658Y-58865896D01*
X56262661Y-58865894D01*
X56262666Y-58865894D01*
X56426547Y-58798013D01*
X56574035Y-58699464D01*
X56574038Y-58699461D01*
X56637819Y-58635681D01*
X56699142Y-58602196D01*
X56768834Y-58607180D01*
X56824767Y-58649052D01*
X56849184Y-58714516D01*
X56849500Y-58723362D01*
X56849500Y-58888695D01*
X56884103Y-59062658D01*
X56884106Y-59062667D01*
X56951983Y-59226540D01*
X56951990Y-59226553D01*
X57050535Y-59374034D01*
X57050538Y-59374038D01*
X57175961Y-59499461D01*
X57175965Y-59499464D01*
X57323446Y-59598009D01*
X57323459Y-59598016D01*
X57446363Y-59648923D01*
X57487334Y-59665894D01*
X57487336Y-59665894D01*
X57487341Y-59665896D01*
X57661304Y-59700499D01*
X57661307Y-59700500D01*
X57661309Y-59700500D01*
X57838693Y-59700500D01*
X57838694Y-59700499D01*
X57904891Y-59687332D01*
X58012658Y-59665896D01*
X58012661Y-59665894D01*
X58012666Y-59665894D01*
X58176547Y-59598013D01*
X58324035Y-59499464D01*
X58449464Y-59374035D01*
X58548013Y-59226547D01*
X58615894Y-59062666D01*
X58650500Y-58888691D01*
X58650500Y-58711309D01*
X58650500Y-58711306D01*
X58650499Y-58711304D01*
X58615896Y-58537341D01*
X58615893Y-58537332D01*
X58548016Y-58373459D01*
X58548009Y-58373446D01*
X58449464Y-58225965D01*
X58449461Y-58225961D01*
X58324038Y-58100538D01*
X58324034Y-58100535D01*
X58176553Y-58001990D01*
X58176540Y-58001983D01*
X58012667Y-57934106D01*
X58012658Y-57934103D01*
X57838694Y-57899500D01*
X57838691Y-57899500D01*
X57661309Y-57899500D01*
X57661306Y-57899500D01*
X57487341Y-57934103D01*
X57487332Y-57934106D01*
X57323459Y-58001983D01*
X57323446Y-58001990D01*
X57175965Y-58100535D01*
X57175961Y-58100538D01*
X57112181Y-58164319D01*
X57050858Y-58197804D01*
X56981166Y-58192820D01*
X56925233Y-58150948D01*
X56900816Y-58085484D01*
X56900500Y-58076638D01*
X56900500Y-57911306D01*
X56900499Y-57911304D01*
X56865896Y-57737341D01*
X56865893Y-57737332D01*
X56798016Y-57573459D01*
X56798009Y-57573446D01*
X56699464Y-57425965D01*
X56699461Y-57425961D01*
X56574038Y-57300538D01*
X56574034Y-57300535D01*
X56426553Y-57201990D01*
X56426540Y-57201983D01*
X56262667Y-57134106D01*
X56262658Y-57134103D01*
X56088694Y-57099500D01*
X56088691Y-57099500D01*
X55911309Y-57099500D01*
X55911306Y-57099500D01*
X55737341Y-57134103D01*
X55737332Y-57134106D01*
X55573459Y-57201983D01*
X55573446Y-57201990D01*
X55425965Y-57300535D01*
X55425961Y-57300538D01*
X55300538Y-57425961D01*
X55300535Y-57425965D01*
X55201990Y-57573446D01*
X55201983Y-57573459D01*
X55134106Y-57737332D01*
X55134103Y-57737341D01*
X55099500Y-57911304D01*
X47981315Y-57911304D01*
X47999035Y-57899464D01*
X48024038Y-57874461D01*
X48080964Y-57817536D01*
X48124461Y-57774038D01*
X48124464Y-57774035D01*
X48223013Y-57626547D01*
X48290894Y-57462666D01*
X48295869Y-57437658D01*
X48325499Y-57288695D01*
X48325500Y-57288693D01*
X48325500Y-57111306D01*
X48325499Y-57111304D01*
X48290896Y-56937341D01*
X48290893Y-56937332D01*
X48223016Y-56773459D01*
X48223009Y-56773446D01*
X48124464Y-56625965D01*
X48124461Y-56625961D01*
X47999038Y-56500538D01*
X47999034Y-56500535D01*
X47851553Y-56401990D01*
X47851540Y-56401983D01*
X47687667Y-56334106D01*
X47687658Y-56334103D01*
X47513694Y-56299500D01*
X47513691Y-56299500D01*
X47336309Y-56299500D01*
X47336306Y-56299500D01*
X47162341Y-56334103D01*
X47162332Y-56334106D01*
X46998459Y-56401983D01*
X46998446Y-56401990D01*
X46850965Y-56500535D01*
X46850961Y-56500538D01*
X46725538Y-56625961D01*
X46725535Y-56625965D01*
X46626990Y-56773446D01*
X46626983Y-56773459D01*
X46559106Y-56937332D01*
X46559103Y-56937341D01*
X46524500Y-57111304D01*
X42525500Y-57111304D01*
X42525500Y-57086306D01*
X42525499Y-57086304D01*
X42490896Y-56912341D01*
X42490893Y-56912332D01*
X42423016Y-56748459D01*
X42423009Y-56748446D01*
X42324464Y-56600965D01*
X42324461Y-56600961D01*
X42199038Y-56475538D01*
X42199034Y-56475535D01*
X42051553Y-56376990D01*
X42051540Y-56376983D01*
X41887667Y-56309106D01*
X41887658Y-56309103D01*
X41713694Y-56274500D01*
X41713691Y-56274500D01*
X41536309Y-56274500D01*
X41536306Y-56274500D01*
X41362341Y-56309103D01*
X41362332Y-56309106D01*
X41198459Y-56376983D01*
X41198446Y-56376990D01*
X41050965Y-56475535D01*
X41050961Y-56475538D01*
X40925538Y-56600961D01*
X40925535Y-56600965D01*
X40826990Y-56748446D01*
X40826983Y-56748459D01*
X40759106Y-56912332D01*
X40759103Y-56912341D01*
X40724500Y-57086304D01*
X31750500Y-57086304D01*
X31750500Y-54068995D01*
X32694499Y-54068995D01*
X32721418Y-54204322D01*
X32721421Y-54204332D01*
X32774221Y-54331804D01*
X32774228Y-54331817D01*
X32850885Y-54446541D01*
X32850888Y-54446545D01*
X32948454Y-54544111D01*
X32948458Y-54544114D01*
X33063182Y-54620771D01*
X33063195Y-54620778D01*
X33189293Y-54673009D01*
X33190672Y-54673580D01*
X33190676Y-54673580D01*
X33190677Y-54673581D01*
X33326004Y-54700500D01*
X33326007Y-54700500D01*
X33463995Y-54700500D01*
X33535360Y-54686304D01*
X35424500Y-54686304D01*
X35424500Y-54863695D01*
X35459103Y-55037658D01*
X35459106Y-55037667D01*
X35526983Y-55201540D01*
X35526990Y-55201553D01*
X35625535Y-55349034D01*
X35625538Y-55349038D01*
X35750961Y-55474461D01*
X35750965Y-55474464D01*
X35898446Y-55573009D01*
X35898459Y-55573016D01*
X36002758Y-55616217D01*
X36062334Y-55640894D01*
X36062336Y-55640894D01*
X36062341Y-55640896D01*
X36236304Y-55675499D01*
X36236307Y-55675500D01*
X36236309Y-55675500D01*
X36413693Y-55675500D01*
X36413694Y-55675499D01*
X36471682Y-55663964D01*
X36587658Y-55640896D01*
X36587661Y-55640894D01*
X36587666Y-55640894D01*
X36751547Y-55573013D01*
X36899035Y-55474464D01*
X37024464Y-55349035D01*
X37123013Y-55201547D01*
X37190894Y-55037666D01*
X37225500Y-54863691D01*
X37225500Y-54686309D01*
X37225500Y-54686306D01*
X37225499Y-54686304D01*
X37190896Y-54512341D01*
X37190893Y-54512332D01*
X37123016Y-54348459D01*
X37123009Y-54348446D01*
X37024464Y-54200965D01*
X37024461Y-54200961D01*
X36899038Y-54075538D01*
X36899034Y-54075535D01*
X36751553Y-53976990D01*
X36751540Y-53976983D01*
X36587667Y-53909106D01*
X36587658Y-53909103D01*
X36551110Y-53901834D01*
X36413694Y-53874500D01*
X36413691Y-53874500D01*
X36236309Y-53874500D01*
X36236306Y-53874500D01*
X36062341Y-53909103D01*
X36062332Y-53909106D01*
X35898459Y-53976983D01*
X35898446Y-53976990D01*
X35750965Y-54075535D01*
X35750961Y-54075538D01*
X35625538Y-54200961D01*
X35625535Y-54200965D01*
X35526990Y-54348446D01*
X35526983Y-54348459D01*
X35459106Y-54512332D01*
X35459103Y-54512341D01*
X35424500Y-54686304D01*
X33535360Y-54686304D01*
X33555041Y-54682389D01*
X33599328Y-54673580D01*
X33726811Y-54620775D01*
X33841542Y-54544114D01*
X33939114Y-54446542D01*
X34015775Y-54331811D01*
X34068580Y-54204328D01*
X34095500Y-54068993D01*
X34095500Y-53931007D01*
X34095500Y-53931004D01*
X34068581Y-53795677D01*
X34068580Y-53795676D01*
X34068580Y-53795672D01*
X34064702Y-53786309D01*
X34064700Y-53786304D01*
X51874500Y-53786304D01*
X51874500Y-53963695D01*
X51909103Y-54137658D01*
X51909106Y-54137667D01*
X51976983Y-54301540D01*
X51976990Y-54301553D01*
X52075535Y-54449034D01*
X52075538Y-54449038D01*
X52200961Y-54574461D01*
X52200965Y-54574464D01*
X52348446Y-54673009D01*
X52348459Y-54673016D01*
X52414813Y-54700500D01*
X52512334Y-54740894D01*
X52512336Y-54740894D01*
X52512341Y-54740896D01*
X52686304Y-54775499D01*
X52686307Y-54775500D01*
X52686309Y-54775500D01*
X52863693Y-54775500D01*
X52863694Y-54775499D01*
X52921682Y-54763964D01*
X53037658Y-54740896D01*
X53037661Y-54740894D01*
X53037666Y-54740894D01*
X53201547Y-54673013D01*
X53349035Y-54574464D01*
X53474464Y-54449035D01*
X53573013Y-54301547D01*
X53640894Y-54137666D01*
X53675500Y-53963691D01*
X53675500Y-53786309D01*
X53675500Y-53786306D01*
X53675499Y-53786304D01*
X53640896Y-53612341D01*
X53640893Y-53612332D01*
X53573016Y-53448459D01*
X53573009Y-53448446D01*
X53474464Y-53300965D01*
X53474461Y-53300961D01*
X53349038Y-53175538D01*
X53349034Y-53175535D01*
X53201553Y-53076990D01*
X53201540Y-53076983D01*
X53037667Y-53009106D01*
X53037658Y-53009103D01*
X52863694Y-52974500D01*
X52863691Y-52974500D01*
X52686309Y-52974500D01*
X52686306Y-52974500D01*
X52512341Y-53009103D01*
X52512332Y-53009106D01*
X52348459Y-53076983D01*
X52348446Y-53076990D01*
X52200965Y-53175535D01*
X52200961Y-53175538D01*
X52075538Y-53300961D01*
X52075535Y-53300965D01*
X51976990Y-53448446D01*
X51976983Y-53448459D01*
X51909106Y-53612332D01*
X51909103Y-53612341D01*
X51874500Y-53786304D01*
X34064700Y-53786304D01*
X34015778Y-53668195D01*
X34015771Y-53668182D01*
X33939114Y-53553458D01*
X33939111Y-53553454D01*
X33841545Y-53455888D01*
X33841541Y-53455885D01*
X33726817Y-53379228D01*
X33726804Y-53379221D01*
X33599332Y-53326421D01*
X33599322Y-53326418D01*
X33463995Y-53299500D01*
X33463993Y-53299500D01*
X33326007Y-53299500D01*
X33326005Y-53299500D01*
X33190677Y-53326418D01*
X33190667Y-53326421D01*
X33063195Y-53379221D01*
X33063182Y-53379228D01*
X32948458Y-53455885D01*
X32948454Y-53455888D01*
X32850888Y-53553454D01*
X32850885Y-53553458D01*
X32774228Y-53668182D01*
X32774221Y-53668195D01*
X32721421Y-53795667D01*
X32721418Y-53795677D01*
X32694500Y-53931004D01*
X32694500Y-53931007D01*
X32694500Y-54068993D01*
X32694500Y-54068995D01*
X32694499Y-54068995D01*
X31750500Y-54068995D01*
X31750500Y-51068995D01*
X32694499Y-51068995D01*
X32721418Y-51204322D01*
X32721421Y-51204332D01*
X32774221Y-51331804D01*
X32774228Y-51331817D01*
X32850885Y-51446541D01*
X32850888Y-51446545D01*
X32948454Y-51544111D01*
X32948458Y-51544114D01*
X33063182Y-51620771D01*
X33063195Y-51620778D01*
X33190667Y-51673578D01*
X33190672Y-51673580D01*
X33190676Y-51673580D01*
X33190677Y-51673581D01*
X33326004Y-51700500D01*
X33326007Y-51700500D01*
X33463995Y-51700500D01*
X33555041Y-51682389D01*
X33599328Y-51673580D01*
X33726811Y-51620775D01*
X33841542Y-51544114D01*
X33939114Y-51446542D01*
X34015775Y-51331811D01*
X34068580Y-51204328D01*
X34078115Y-51156391D01*
X34095500Y-51068995D01*
X34095500Y-50931004D01*
X34095499Y-50931002D01*
X34080264Y-50854408D01*
X34076663Y-50836304D01*
X76099500Y-50836304D01*
X76099500Y-51013695D01*
X76134103Y-51187658D01*
X76134106Y-51187667D01*
X76201983Y-51351540D01*
X76201990Y-51351553D01*
X76300535Y-51499034D01*
X76300538Y-51499038D01*
X76425961Y-51624461D01*
X76425965Y-51624464D01*
X76573446Y-51723009D01*
X76573459Y-51723016D01*
X76696363Y-51773923D01*
X76737334Y-51790894D01*
X76737336Y-51790894D01*
X76737341Y-51790896D01*
X76911304Y-51825499D01*
X76911307Y-51825500D01*
X76911309Y-51825500D01*
X77088693Y-51825500D01*
X77088694Y-51825499D01*
X77146682Y-51813964D01*
X77262658Y-51790896D01*
X77262661Y-51790894D01*
X77262666Y-51790894D01*
X77426547Y-51723013D01*
X77574035Y-51624464D01*
X77699464Y-51499035D01*
X77798013Y-51351547D01*
X77865894Y-51187666D01*
X77868721Y-51173457D01*
X77889500Y-51068993D01*
X77900500Y-51013691D01*
X77900500Y-50836309D01*
X77900500Y-50836306D01*
X77900499Y-50836304D01*
X77865896Y-50662341D01*
X77865893Y-50662332D01*
X77820470Y-50552669D01*
X77803337Y-50511304D01*
X79399500Y-50511304D01*
X79399500Y-50688695D01*
X79434103Y-50862658D01*
X79434106Y-50862667D01*
X79501983Y-51026540D01*
X79501990Y-51026553D01*
X79505037Y-51031113D01*
X79525912Y-51097792D01*
X79507425Y-51165171D01*
X79505037Y-51168887D01*
X79501990Y-51173446D01*
X79501983Y-51173459D01*
X79434106Y-51337332D01*
X79434103Y-51337341D01*
X79399500Y-51511304D01*
X79399500Y-51688695D01*
X79434103Y-51862658D01*
X79434106Y-51862667D01*
X79501983Y-52026540D01*
X79501990Y-52026553D01*
X79600535Y-52174034D01*
X79600538Y-52174038D01*
X79725961Y-52299461D01*
X79725965Y-52299464D01*
X79873446Y-52398009D01*
X79873459Y-52398016D01*
X79996363Y-52448923D01*
X80037334Y-52465894D01*
X80037336Y-52465894D01*
X80037341Y-52465896D01*
X80211304Y-52500499D01*
X80211307Y-52500500D01*
X80211309Y-52500500D01*
X80388693Y-52500500D01*
X80388694Y-52500499D01*
X80446682Y-52488964D01*
X80562658Y-52465896D01*
X80562661Y-52465894D01*
X80562666Y-52465894D01*
X80726547Y-52398013D01*
X80756110Y-52378258D01*
X80822784Y-52357381D01*
X80890165Y-52375864D01*
X80893838Y-52378224D01*
X80923453Y-52398013D01*
X81087334Y-52465894D01*
X81087336Y-52465894D01*
X81087341Y-52465896D01*
X81261304Y-52500499D01*
X81261307Y-52500500D01*
X81261309Y-52500500D01*
X81438693Y-52500500D01*
X81438694Y-52500499D01*
X81496682Y-52488964D01*
X81612658Y-52465896D01*
X81612661Y-52465894D01*
X81612666Y-52465894D01*
X81776547Y-52398013D01*
X81924035Y-52299464D01*
X82049464Y-52174035D01*
X82148013Y-52026547D01*
X82215894Y-51862666D01*
X82230171Y-51790894D01*
X82250499Y-51688695D01*
X82250500Y-51688693D01*
X82250500Y-51511306D01*
X82250499Y-51511304D01*
X82215896Y-51337341D01*
X82215893Y-51337332D01*
X82148015Y-51173457D01*
X82148014Y-51173456D01*
X82148013Y-51173453D01*
X82136611Y-51156390D01*
X82115734Y-51089714D01*
X82134218Y-51022334D01*
X82136612Y-51018609D01*
X82148013Y-51001547D01*
X82215894Y-50837666D01*
X82250500Y-50663691D01*
X82250500Y-50486309D01*
X82250500Y-50486306D01*
X82250499Y-50486304D01*
X82215896Y-50312341D01*
X82215893Y-50312332D01*
X82204067Y-50283782D01*
X82179942Y-50225538D01*
X82148016Y-50148459D01*
X82148009Y-50148446D01*
X82049464Y-50000965D01*
X82049461Y-50000961D01*
X81924038Y-49875538D01*
X81924034Y-49875535D01*
X81776553Y-49776990D01*
X81776540Y-49776983D01*
X81612667Y-49709106D01*
X81612658Y-49709103D01*
X81438694Y-49674500D01*
X81438691Y-49674500D01*
X81261309Y-49674500D01*
X81261306Y-49674500D01*
X81087341Y-49709103D01*
X81087332Y-49709106D01*
X80923460Y-49776983D01*
X80923444Y-49776992D01*
X80875181Y-49809240D01*
X80808504Y-49830117D01*
X80741124Y-49811632D01*
X80737400Y-49809238D01*
X80726552Y-49801989D01*
X80726547Y-49801987D01*
X80562667Y-49734106D01*
X80562658Y-49734103D01*
X80388694Y-49699500D01*
X80388691Y-49699500D01*
X80211309Y-49699500D01*
X80211306Y-49699500D01*
X80037341Y-49734103D01*
X80037332Y-49734106D01*
X79873459Y-49801983D01*
X79873446Y-49801990D01*
X79725965Y-49900535D01*
X79725961Y-49900538D01*
X79600538Y-50025961D01*
X79600535Y-50025965D01*
X79501990Y-50173446D01*
X79501983Y-50173459D01*
X79434106Y-50337332D01*
X79434103Y-50337341D01*
X79399500Y-50511304D01*
X77803337Y-50511304D01*
X77798016Y-50498458D01*
X77798009Y-50498446D01*
X77699464Y-50350965D01*
X77699461Y-50350961D01*
X77574038Y-50225538D01*
X77574034Y-50225535D01*
X77426553Y-50126990D01*
X77426540Y-50126983D01*
X77262667Y-50059106D01*
X77262658Y-50059103D01*
X77088694Y-50024500D01*
X77088691Y-50024500D01*
X76911309Y-50024500D01*
X76911306Y-50024500D01*
X76737341Y-50059103D01*
X76737332Y-50059106D01*
X76573459Y-50126983D01*
X76573446Y-50126990D01*
X76425965Y-50225535D01*
X76425961Y-50225538D01*
X76300538Y-50350961D01*
X76300535Y-50350965D01*
X76201990Y-50498446D01*
X76201983Y-50498459D01*
X76134106Y-50662332D01*
X76134103Y-50662341D01*
X76099500Y-50836304D01*
X34076663Y-50836304D01*
X34068581Y-50795677D01*
X34068580Y-50795676D01*
X34068580Y-50795672D01*
X34024269Y-50688695D01*
X34015778Y-50668195D01*
X34015771Y-50668182D01*
X33939114Y-50553458D01*
X33939111Y-50553454D01*
X33841545Y-50455888D01*
X33841541Y-50455885D01*
X33726817Y-50379228D01*
X33726804Y-50379221D01*
X33599332Y-50326421D01*
X33599322Y-50326418D01*
X33463995Y-50299500D01*
X33463993Y-50299500D01*
X33326007Y-50299500D01*
X33326005Y-50299500D01*
X33190677Y-50326418D01*
X33190667Y-50326421D01*
X33063195Y-50379221D01*
X33063182Y-50379228D01*
X32948458Y-50455885D01*
X32948454Y-50455888D01*
X32850888Y-50553454D01*
X32850885Y-50553458D01*
X32774228Y-50668182D01*
X32774221Y-50668195D01*
X32721421Y-50795667D01*
X32721418Y-50795677D01*
X32694500Y-50931004D01*
X32694500Y-50931007D01*
X32694500Y-51068993D01*
X32694500Y-51068995D01*
X32694499Y-51068995D01*
X31750500Y-51068995D01*
X31750500Y-43939816D01*
X31770185Y-43872777D01*
X31822989Y-43827022D01*
X31892147Y-43817078D01*
X31955703Y-43846103D01*
X31991020Y-43897403D01*
X32060691Y-44088822D01*
X32060692Y-44088824D01*
X32060698Y-44088839D01*
X32237843Y-44468726D01*
X32237848Y-44468736D01*
X32447443Y-44831764D01*
X32447447Y-44831770D01*
X32447454Y-44831781D01*
X32687879Y-45175144D01*
X32882640Y-45407249D01*
X32957329Y-45496260D01*
X33253740Y-45792671D01*
X33387255Y-45904704D01*
X33574855Y-46062120D01*
X33918218Y-46302545D01*
X33918225Y-46302549D01*
X33918236Y-46302557D01*
X34281264Y-46512152D01*
X34281273Y-46512156D01*
X34661160Y-46689301D01*
X34661164Y-46689302D01*
X34661178Y-46689309D01*
X35055087Y-46832680D01*
X35055093Y-46832681D01*
X35055097Y-46832683D01*
X35165359Y-46862227D01*
X35459992Y-46941174D01*
X35872812Y-47013965D01*
X36290404Y-47050499D01*
X36290405Y-47050500D01*
X36290406Y-47050500D01*
X36709595Y-47050500D01*
X36709595Y-47050499D01*
X37127188Y-47013965D01*
X37540008Y-46941174D01*
X37944913Y-46832680D01*
X38338822Y-46689309D01*
X38718736Y-46512152D01*
X39081764Y-46302557D01*
X39425143Y-46062121D01*
X39746260Y-45792671D01*
X40042671Y-45496260D01*
X40312121Y-45175143D01*
X40552557Y-44831764D01*
X40762152Y-44468736D01*
X40939309Y-44088822D01*
X41082680Y-43694913D01*
X41191174Y-43290008D01*
X41263965Y-42877188D01*
X41300500Y-42459594D01*
X41300500Y-42061304D01*
X46224500Y-42061304D01*
X46224500Y-42738695D01*
X46259103Y-42912658D01*
X46259106Y-42912667D01*
X46326983Y-43076540D01*
X46326990Y-43076553D01*
X46425535Y-43224034D01*
X46425538Y-43224038D01*
X46550961Y-43349461D01*
X46550965Y-43349464D01*
X46698446Y-43448009D01*
X46698459Y-43448016D01*
X46807108Y-43493019D01*
X46862334Y-43515894D01*
X46862336Y-43515894D01*
X46862341Y-43515896D01*
X47036304Y-43550499D01*
X47036307Y-43550500D01*
X47036309Y-43550500D01*
X47213693Y-43550500D01*
X47213694Y-43550499D01*
X47271682Y-43538964D01*
X47387658Y-43515896D01*
X47387661Y-43515894D01*
X47387666Y-43515894D01*
X47551547Y-43448013D01*
X47681109Y-43361442D01*
X47747786Y-43340564D01*
X47815166Y-43359048D01*
X47818891Y-43361442D01*
X47948453Y-43448013D01*
X47948455Y-43448014D01*
X47948459Y-43448016D01*
X48057108Y-43493019D01*
X48112334Y-43515894D01*
X48112336Y-43515894D01*
X48112341Y-43515896D01*
X48286304Y-43550499D01*
X48286307Y-43550500D01*
X48286309Y-43550500D01*
X48463693Y-43550500D01*
X48463694Y-43550499D01*
X48521682Y-43538964D01*
X48637658Y-43515896D01*
X48637661Y-43515894D01*
X48637666Y-43515894D01*
X48801547Y-43448013D01*
X48931109Y-43361442D01*
X48997786Y-43340564D01*
X49065166Y-43359048D01*
X49068891Y-43361442D01*
X49198453Y-43448013D01*
X49198455Y-43448014D01*
X49198459Y-43448016D01*
X49307108Y-43493019D01*
X49362334Y-43515894D01*
X49362336Y-43515894D01*
X49362341Y-43515896D01*
X49536304Y-43550499D01*
X49536307Y-43550500D01*
X49536309Y-43550500D01*
X49713693Y-43550500D01*
X49713694Y-43550499D01*
X49771682Y-43538964D01*
X49887658Y-43515896D01*
X49887661Y-43515894D01*
X49887666Y-43515894D01*
X50051547Y-43448013D01*
X50109298Y-43409424D01*
X50175970Y-43388547D01*
X50242336Y-43406410D01*
X50385604Y-43493019D01*
X50385603Y-43493019D01*
X50499999Y-43528666D01*
X50500000Y-43528666D01*
X51250000Y-43528666D01*
X51364395Y-43493019D01*
X51509877Y-43405072D01*
X51630072Y-43284877D01*
X51718019Y-43139395D01*
X51768590Y-42977106D01*
X51775000Y-42906572D01*
X51775000Y-42886304D01*
X69474500Y-42886304D01*
X69474500Y-43063695D01*
X69509103Y-43237658D01*
X69509106Y-43237667D01*
X69576983Y-43401540D01*
X69576990Y-43401553D01*
X69675535Y-43549034D01*
X69675538Y-43549038D01*
X69800961Y-43674461D01*
X69800965Y-43674464D01*
X69948446Y-43773009D01*
X69948459Y-43773016D01*
X70052731Y-43816206D01*
X70112334Y-43840894D01*
X70112336Y-43840894D01*
X70112341Y-43840896D01*
X70286304Y-43875499D01*
X70286307Y-43875500D01*
X70286309Y-43875500D01*
X70463693Y-43875500D01*
X70463694Y-43875499D01*
X70521682Y-43863964D01*
X70637658Y-43840896D01*
X70637661Y-43840894D01*
X70637666Y-43840894D01*
X70801547Y-43773013D01*
X70949035Y-43674464D01*
X71074464Y-43549035D01*
X71173013Y-43401547D01*
X71240894Y-43237666D01*
X71243606Y-43224035D01*
X71263964Y-43121682D01*
X71275500Y-43063691D01*
X71275500Y-42886309D01*
X71275500Y-42886306D01*
X71275499Y-42886304D01*
X71240896Y-42712341D01*
X71240893Y-42712332D01*
X71173016Y-42548459D01*
X71173009Y-42548446D01*
X71074464Y-42400965D01*
X71074461Y-42400961D01*
X70949038Y-42275538D01*
X70949034Y-42275535D01*
X70801553Y-42176990D01*
X70801540Y-42176983D01*
X70637667Y-42109106D01*
X70637658Y-42109103D01*
X70463694Y-42074500D01*
X70463691Y-42074500D01*
X70286309Y-42074500D01*
X70286306Y-42074500D01*
X70112341Y-42109103D01*
X70112332Y-42109106D01*
X69948459Y-42176983D01*
X69948446Y-42176990D01*
X69800965Y-42275535D01*
X69800961Y-42275538D01*
X69675538Y-42400961D01*
X69675535Y-42400965D01*
X69576990Y-42548446D01*
X69576983Y-42548459D01*
X69509106Y-42712332D01*
X69509103Y-42712341D01*
X69474500Y-42886304D01*
X51775000Y-42886304D01*
X51775000Y-42775000D01*
X51250000Y-42775000D01*
X51250000Y-43528666D01*
X50500000Y-43528666D01*
X50500000Y-42879098D01*
X50501635Y-42859027D01*
X50501971Y-42856978D01*
X50525500Y-42738691D01*
X50525500Y-42350272D01*
X50625000Y-42350272D01*
X50625000Y-42449728D01*
X50663060Y-42541614D01*
X50733386Y-42611940D01*
X50825272Y-42650000D01*
X50924728Y-42650000D01*
X51016614Y-42611940D01*
X51086940Y-42541614D01*
X51125000Y-42449728D01*
X51125000Y-42350272D01*
X51086940Y-42258386D01*
X51016614Y-42188060D01*
X50924728Y-42150000D01*
X50825272Y-42150000D01*
X50733386Y-42188060D01*
X50663060Y-42258386D01*
X50625000Y-42350272D01*
X50525500Y-42350272D01*
X50525500Y-42061309D01*
X50525500Y-42061306D01*
X50518278Y-42025000D01*
X51250000Y-42025000D01*
X51774999Y-42025000D01*
X51774999Y-41893417D01*
X51768591Y-41822897D01*
X51768590Y-41822892D01*
X51718018Y-41660603D01*
X51630072Y-41515122D01*
X51509877Y-41394927D01*
X51364396Y-41306981D01*
X51364394Y-41306980D01*
X51250000Y-41271332D01*
X51250000Y-42025000D01*
X50518278Y-42025000D01*
X50502383Y-41945092D01*
X50500000Y-41920900D01*
X50500000Y-41271333D01*
X50499999Y-41271332D01*
X50385605Y-41306980D01*
X50385598Y-41306983D01*
X50242334Y-41393588D01*
X50174779Y-41411424D01*
X50109295Y-41390573D01*
X50051547Y-41351987D01*
X50051544Y-41351985D01*
X50051543Y-41351985D01*
X50051542Y-41351984D01*
X49887667Y-41284106D01*
X49887658Y-41284103D01*
X49713694Y-41249500D01*
X49713691Y-41249500D01*
X49536309Y-41249500D01*
X49536306Y-41249500D01*
X49362341Y-41284103D01*
X49362332Y-41284106D01*
X49198459Y-41351983D01*
X49198446Y-41351990D01*
X49068891Y-41438557D01*
X49002213Y-41459435D01*
X48934833Y-41440950D01*
X48931109Y-41438557D01*
X48801553Y-41351990D01*
X48801540Y-41351983D01*
X48637667Y-41284106D01*
X48637658Y-41284103D01*
X48463694Y-41249500D01*
X48463691Y-41249500D01*
X48286309Y-41249500D01*
X48286306Y-41249500D01*
X48112341Y-41284103D01*
X48112332Y-41284106D01*
X47948459Y-41351983D01*
X47948446Y-41351990D01*
X47818891Y-41438557D01*
X47752213Y-41459435D01*
X47684833Y-41440950D01*
X47681109Y-41438557D01*
X47551553Y-41351990D01*
X47551540Y-41351983D01*
X47387667Y-41284106D01*
X47387658Y-41284103D01*
X47213694Y-41249500D01*
X47213691Y-41249500D01*
X47036309Y-41249500D01*
X47036306Y-41249500D01*
X46862341Y-41284103D01*
X46862332Y-41284106D01*
X46698459Y-41351983D01*
X46698446Y-41351990D01*
X46550965Y-41450535D01*
X46550961Y-41450538D01*
X46425538Y-41575961D01*
X46425535Y-41575965D01*
X46326990Y-41723446D01*
X46326983Y-41723459D01*
X46259106Y-41887332D01*
X46259103Y-41887341D01*
X46224500Y-42061304D01*
X41300500Y-42061304D01*
X41300500Y-42040406D01*
X41263965Y-41622812D01*
X41191174Y-41209992D01*
X41141229Y-41023595D01*
X41106665Y-40894598D01*
X41099697Y-40868592D01*
X42323500Y-40868592D01*
X42323500Y-41031407D01*
X42355259Y-41191073D01*
X42355262Y-41191082D01*
X42417562Y-41341490D01*
X42417563Y-41341492D01*
X42508015Y-41476862D01*
X42508018Y-41476866D01*
X42623133Y-41591981D01*
X42623137Y-41591984D01*
X42758505Y-41682435D01*
X42758506Y-41682435D01*
X42758507Y-41682436D01*
X42758509Y-41682437D01*
X42857515Y-41723446D01*
X42908919Y-41744738D01*
X42908921Y-41744738D01*
X42908926Y-41744740D01*
X43068592Y-41776499D01*
X43068595Y-41776500D01*
X43068597Y-41776500D01*
X43231405Y-41776500D01*
X43231406Y-41776499D01*
X43284629Y-41765912D01*
X43391073Y-41744740D01*
X43391076Y-41744738D01*
X43391081Y-41744738D01*
X43541495Y-41682435D01*
X43676863Y-41591984D01*
X43791984Y-41476863D01*
X43882435Y-41341495D01*
X43944738Y-41191081D01*
X43957432Y-41127267D01*
X43976499Y-41031407D01*
X43976500Y-41031405D01*
X43976500Y-40868594D01*
X43976499Y-40868592D01*
X74573500Y-40868592D01*
X74573500Y-41031407D01*
X74605259Y-41191073D01*
X74605262Y-41191082D01*
X74667562Y-41341490D01*
X74667563Y-41341492D01*
X74758015Y-41476862D01*
X74758018Y-41476866D01*
X74873133Y-41591981D01*
X74873137Y-41591984D01*
X75008505Y-41682435D01*
X75008506Y-41682435D01*
X75008507Y-41682436D01*
X75008509Y-41682437D01*
X75107515Y-41723446D01*
X75158919Y-41744738D01*
X75158921Y-41744738D01*
X75158926Y-41744740D01*
X75318592Y-41776499D01*
X75318595Y-41776500D01*
X75318597Y-41776500D01*
X75481405Y-41776500D01*
X75481406Y-41776499D01*
X75534629Y-41765912D01*
X75641073Y-41744740D01*
X75641076Y-41744738D01*
X75641081Y-41744738D01*
X75791495Y-41682435D01*
X75926863Y-41591984D01*
X76041984Y-41476863D01*
X76132435Y-41341495D01*
X76194738Y-41191081D01*
X76207432Y-41127267D01*
X76226499Y-41031407D01*
X76226500Y-41031405D01*
X76226500Y-40868594D01*
X76226499Y-40868592D01*
X76194740Y-40708926D01*
X76194737Y-40708917D01*
X76132437Y-40558509D01*
X76132436Y-40558507D01*
X76041984Y-40423137D01*
X76041981Y-40423133D01*
X75926866Y-40308018D01*
X75926862Y-40308015D01*
X75791492Y-40217563D01*
X75791490Y-40217562D01*
X75641082Y-40155262D01*
X75641073Y-40155259D01*
X75481406Y-40123500D01*
X75481403Y-40123500D01*
X75318597Y-40123500D01*
X75318594Y-40123500D01*
X75158926Y-40155259D01*
X75158917Y-40155262D01*
X75008509Y-40217562D01*
X75008507Y-40217563D01*
X74873137Y-40308015D01*
X74873133Y-40308018D01*
X74758018Y-40423133D01*
X74758015Y-40423137D01*
X74667563Y-40558507D01*
X74667562Y-40558509D01*
X74605262Y-40708917D01*
X74605259Y-40708926D01*
X74573500Y-40868592D01*
X43976499Y-40868592D01*
X43944740Y-40708926D01*
X43944737Y-40708917D01*
X43882437Y-40558509D01*
X43882436Y-40558507D01*
X43791984Y-40423137D01*
X43791981Y-40423133D01*
X43676866Y-40308018D01*
X43676862Y-40308015D01*
X43541492Y-40217563D01*
X43541490Y-40217562D01*
X43391082Y-40155262D01*
X43391073Y-40155259D01*
X43231406Y-40123500D01*
X43231403Y-40123500D01*
X43068597Y-40123500D01*
X43068594Y-40123500D01*
X42908926Y-40155259D01*
X42908917Y-40155262D01*
X42758509Y-40217562D01*
X42758507Y-40217563D01*
X42623137Y-40308015D01*
X42623133Y-40308018D01*
X42508018Y-40423133D01*
X42508015Y-40423137D01*
X42417563Y-40558507D01*
X42417562Y-40558509D01*
X42355262Y-40708917D01*
X42355259Y-40708926D01*
X42323500Y-40868592D01*
X41099697Y-40868592D01*
X41082682Y-40805094D01*
X41082681Y-40805092D01*
X41082680Y-40805087D01*
X40939309Y-40411178D01*
X40762152Y-40031264D01*
X40552557Y-39668236D01*
X40552549Y-39668225D01*
X40552545Y-39668218D01*
X40312120Y-39324855D01*
X40092979Y-39063695D01*
X40042671Y-39003740D01*
X39900235Y-38861304D01*
X59299500Y-38861304D01*
X59299500Y-39038695D01*
X59334103Y-39212658D01*
X59334106Y-39212667D01*
X59401983Y-39376540D01*
X59401990Y-39376553D01*
X59500535Y-39524034D01*
X59500538Y-39524038D01*
X59625961Y-39649461D01*
X59625965Y-39649464D01*
X59773446Y-39748009D01*
X59773459Y-39748016D01*
X59833816Y-39773016D01*
X59937334Y-39815894D01*
X59937336Y-39815894D01*
X59937341Y-39815896D01*
X60111304Y-39850499D01*
X60111307Y-39850500D01*
X60111309Y-39850500D01*
X60288693Y-39850500D01*
X60288694Y-39850499D01*
X60346682Y-39838964D01*
X60462658Y-39815896D01*
X60462661Y-39815894D01*
X60462666Y-39815894D01*
X60626547Y-39748013D01*
X60774035Y-39649464D01*
X60899464Y-39524035D01*
X60998013Y-39376547D01*
X61065894Y-39212666D01*
X61100500Y-39038691D01*
X61100500Y-38861309D01*
X61100500Y-38861306D01*
X61100499Y-38861304D01*
X61824500Y-38861304D01*
X61824500Y-39038695D01*
X61859103Y-39212658D01*
X61859106Y-39212667D01*
X61926983Y-39376540D01*
X61926990Y-39376553D01*
X62025535Y-39524034D01*
X62025538Y-39524038D01*
X62150961Y-39649461D01*
X62150965Y-39649464D01*
X62298446Y-39748009D01*
X62298459Y-39748016D01*
X62358816Y-39773016D01*
X62462334Y-39815894D01*
X62462336Y-39815894D01*
X62462341Y-39815896D01*
X62636304Y-39850499D01*
X62636307Y-39850500D01*
X62636309Y-39850500D01*
X62813693Y-39850500D01*
X62813694Y-39850499D01*
X62871682Y-39838964D01*
X62987658Y-39815896D01*
X62987661Y-39815894D01*
X62987666Y-39815894D01*
X63151547Y-39748013D01*
X63275744Y-39665026D01*
X63342420Y-39644149D01*
X63409800Y-39662633D01*
X63423303Y-39672279D01*
X63425962Y-39674461D01*
X63425965Y-39674464D01*
X63425968Y-39674466D01*
X63573446Y-39773009D01*
X63573459Y-39773016D01*
X63676978Y-39815894D01*
X63737334Y-39840894D01*
X63737336Y-39840894D01*
X63737341Y-39840896D01*
X63911304Y-39875499D01*
X63911307Y-39875500D01*
X63911309Y-39875500D01*
X64088693Y-39875500D01*
X64088694Y-39875499D01*
X64146682Y-39863964D01*
X64262658Y-39840896D01*
X64262661Y-39840894D01*
X64262666Y-39840894D01*
X64426547Y-39773013D01*
X64574035Y-39674464D01*
X64699464Y-39549035D01*
X64798013Y-39401547D01*
X64865894Y-39237666D01*
X64870869Y-39212658D01*
X64900499Y-39063695D01*
X64900500Y-39063693D01*
X64900500Y-38886306D01*
X64900499Y-38886304D01*
X64865896Y-38712341D01*
X64865893Y-38712332D01*
X64798016Y-38548459D01*
X64798009Y-38548446D01*
X64699464Y-38400965D01*
X64699461Y-38400961D01*
X64574038Y-38275538D01*
X64574034Y-38275535D01*
X64426553Y-38176990D01*
X64426540Y-38176983D01*
X64262667Y-38109106D01*
X64262658Y-38109103D01*
X64088694Y-38074500D01*
X64088691Y-38074500D01*
X63911309Y-38074500D01*
X63911306Y-38074500D01*
X63737341Y-38109103D01*
X63737332Y-38109106D01*
X63573459Y-38176983D01*
X63573446Y-38176990D01*
X63449256Y-38259972D01*
X63382578Y-38280850D01*
X63315198Y-38262365D01*
X63301698Y-38252721D01*
X63299036Y-38250536D01*
X63151553Y-38151990D01*
X63151540Y-38151983D01*
X62987667Y-38084106D01*
X62987658Y-38084103D01*
X62813694Y-38049500D01*
X62813691Y-38049500D01*
X62636309Y-38049500D01*
X62636306Y-38049500D01*
X62462341Y-38084103D01*
X62462332Y-38084106D01*
X62298459Y-38151983D01*
X62298446Y-38151990D01*
X62150965Y-38250535D01*
X62150961Y-38250538D01*
X62025538Y-38375961D01*
X62025535Y-38375965D01*
X61926990Y-38523446D01*
X61926983Y-38523459D01*
X61859106Y-38687332D01*
X61859103Y-38687341D01*
X61824500Y-38861304D01*
X61100499Y-38861304D01*
X61065896Y-38687341D01*
X61065893Y-38687332D01*
X60998016Y-38523459D01*
X60998009Y-38523446D01*
X60899464Y-38375965D01*
X60899461Y-38375961D01*
X60774038Y-38250538D01*
X60774034Y-38250535D01*
X60626553Y-38151990D01*
X60626540Y-38151983D01*
X60462667Y-38084106D01*
X60462658Y-38084103D01*
X60288694Y-38049500D01*
X60288691Y-38049500D01*
X60111309Y-38049500D01*
X60111306Y-38049500D01*
X59937341Y-38084103D01*
X59937332Y-38084106D01*
X59773459Y-38151983D01*
X59773446Y-38151990D01*
X59625965Y-38250535D01*
X59625961Y-38250538D01*
X59500538Y-38375961D01*
X59500535Y-38375965D01*
X59401990Y-38523446D01*
X59401983Y-38523459D01*
X59334106Y-38687332D01*
X59334103Y-38687341D01*
X59299500Y-38861304D01*
X39900235Y-38861304D01*
X39746260Y-38707329D01*
X39556920Y-38548453D01*
X39425144Y-38437879D01*
X39081781Y-38197454D01*
X39081770Y-38197447D01*
X39081764Y-38197443D01*
X38885454Y-38084103D01*
X38718742Y-37987851D01*
X38718726Y-37987843D01*
X38338839Y-37810698D01*
X38338831Y-37810695D01*
X38338829Y-37810694D01*
X38338822Y-37810691D01*
X38147404Y-37741020D01*
X38091143Y-37699596D01*
X38066207Y-37634327D01*
X38080517Y-37565938D01*
X38129529Y-37516143D01*
X38189817Y-37500500D01*
X79810183Y-37500500D01*
X79877222Y-37520185D01*
G37*
%TD.AperFunction*%
%TD*%
M02*
