%TF.GenerationSoftware,KiCad,Pcbnew,10.0.3*%
%TF.CreationDate,2026-06-23T00:25:54+01:00*%
%TF.ProjectId,STM32_Buck_converter,53544d33-325f-4427-9563-6b5f636f6e76,rev?*%
%TF.SameCoordinates,Original*%
%TF.FileFunction,Paste,Top*%
%TF.FilePolarity,Positive*%
%FSLAX46Y46*%
G04 Gerber Fmt 4.6, Leading zero omitted, Abs format (unit mm)*
G04 Created by KiCad (PCBNEW 10.0.3) date 2026-06-23 00:25:54*
%MOMM*%
%LPD*%
G01*
G04 APERTURE LIST*
G04 Aperture macros list*
%AMRoundRect*
0 Rectangle with rounded corners*
0 $1 Rounding radius*
0 $2 $3 $4 $5 $6 $7 $8 $9 X,Y pos of 4 corners*
0 Add a 4 corners polygon primitive as box body*
4,1,4,$2,$3,$4,$5,$6,$7,$8,$9,$2,$3,0*
0 Add four circle primitives for the rounded corners*
1,1,$1+$1,$2,$3*
1,1,$1+$1,$4,$5*
1,1,$1+$1,$6,$7*
1,1,$1+$1,$8,$9*
0 Add four rect primitives between the rounded corners*
20,1,$1+$1,$2,$3,$4,$5,0*
20,1,$1+$1,$4,$5,$6,$7,0*
20,1,$1+$1,$6,$7,$8,$9,0*
20,1,$1+$1,$8,$9,$2,$3,0*%
G04 Aperture macros list end*
%ADD10RoundRect,0.218750X0.218750X0.256250X-0.218750X0.256250X-0.218750X-0.256250X0.218750X-0.256250X0*%
%ADD11RoundRect,0.140000X-0.140000X-0.170000X0.140000X-0.170000X0.140000X0.170000X-0.140000X0.170000X0*%
%ADD12RoundRect,0.200000X-0.275000X0.200000X-0.275000X-0.200000X0.275000X-0.200000X0.275000X0.200000X0*%
%ADD13RoundRect,0.150000X-0.150000X0.587500X-0.150000X-0.587500X0.150000X-0.587500X0.150000X0.587500X0*%
%ADD14R,0.740000X2.400000*%
%ADD15RoundRect,0.250000X-0.325000X-0.650000X0.325000X-0.650000X0.325000X0.650000X-0.325000X0.650000X0*%
%ADD16RoundRect,0.225000X-0.225000X-0.375000X0.225000X-0.375000X0.225000X0.375000X-0.225000X0.375000X0*%
%ADD17RoundRect,0.075000X-0.700000X-0.075000X0.700000X-0.075000X0.700000X0.075000X-0.700000X0.075000X0*%
%ADD18RoundRect,0.075000X-0.075000X-0.700000X0.075000X-0.700000X0.075000X0.700000X-0.075000X0.700000X0*%
%ADD19RoundRect,0.140000X0.140000X0.170000X-0.140000X0.170000X-0.140000X-0.170000X0.140000X-0.170000X0*%
%ADD20RoundRect,0.225000X-0.225000X-0.250000X0.225000X-0.250000X0.225000X0.250000X-0.225000X0.250000X0*%
%ADD21RoundRect,0.150000X0.512500X0.150000X-0.512500X0.150000X-0.512500X-0.150000X0.512500X-0.150000X0*%
%ADD22RoundRect,0.135000X0.135000X0.185000X-0.135000X0.185000X-0.135000X-0.185000X0.135000X-0.185000X0*%
%ADD23RoundRect,0.140000X-0.170000X0.140000X-0.170000X-0.140000X0.170000X-0.140000X0.170000X0.140000X0*%
%ADD24RoundRect,0.250000X0.375000X0.625000X-0.375000X0.625000X-0.375000X-0.625000X0.375000X-0.625000X0*%
%ADD25RoundRect,0.218750X0.256250X-0.218750X0.256250X0.218750X-0.256250X0.218750X-0.256250X-0.218750X0*%
%ADD26RoundRect,0.147500X-0.147500X-0.172500X0.147500X-0.172500X0.147500X0.172500X-0.147500X0.172500X0*%
%ADD27RoundRect,0.200000X0.200000X0.275000X-0.200000X0.275000X-0.200000X-0.275000X0.200000X-0.275000X0*%
%ADD28RoundRect,0.200000X0.275000X-0.200000X0.275000X0.200000X-0.275000X0.200000X-0.275000X-0.200000X0*%
%ADD29RoundRect,0.100000X0.600000X-0.100000X0.600000X0.100000X-0.600000X0.100000X-0.600000X-0.100000X0*%
%ADD30RoundRect,0.250000X0.475000X-0.325000X0.475000X0.325000X-0.475000X0.325000X-0.475000X-0.325000X0*%
%ADD31RoundRect,0.250000X0.700000X-0.625000X0.700000X0.625000X-0.700000X0.625000X-0.700000X-0.625000X0*%
%ADD32RoundRect,0.250000X-1.000000X0.700000X-1.000000X-0.700000X1.000000X-0.700000X1.000000X0.700000X0*%
%ADD33RoundRect,0.140000X0.170000X-0.140000X0.170000X0.140000X-0.170000X0.140000X-0.170000X-0.140000X0*%
%ADD34RoundRect,0.150000X0.150000X-0.512500X0.150000X0.512500X-0.150000X0.512500X-0.150000X-0.512500X0*%
%ADD35RoundRect,0.225000X0.250000X-0.225000X0.250000X0.225000X-0.250000X0.225000X-0.250000X-0.225000X0*%
%ADD36R,0.800000X1.000000*%
%ADD37R,1.500000X0.700000*%
%ADD38RoundRect,0.218750X-0.381250X0.218750X-0.381250X-0.218750X0.381250X-0.218750X0.381250X0.218750X0*%
%ADD39RoundRect,0.225000X0.225000X0.250000X-0.225000X0.250000X-0.225000X-0.250000X0.225000X-0.250000X0*%
%ADD40RoundRect,0.135000X-0.135000X-0.185000X0.135000X-0.185000X0.135000X0.185000X-0.135000X0.185000X0*%
%ADD41RoundRect,0.250000X-0.350000X0.450000X-0.350000X-0.450000X0.350000X-0.450000X0.350000X0.450000X0*%
G04 APERTURE END LIST*
D10*
%TO.C,D4*%
X72787500Y-41000000D03*
X71212500Y-41000000D03*
%TD*%
D11*
%TO.C,C8*%
X45770000Y-57175000D03*
X46730000Y-57175000D03*
%TD*%
D12*
%TO.C,R4*%
X71250000Y-73675000D03*
X71250000Y-75325000D03*
%TD*%
D13*
%TO.C,Q1*%
X72450000Y-67062500D03*
X70550000Y-67062500D03*
X71500000Y-68937500D03*
%TD*%
D14*
%TO.C,J2*%
X65290000Y-40550000D03*
X65290000Y-44450000D03*
X64020000Y-40550000D03*
X64020000Y-44450000D03*
X62750000Y-40550000D03*
X62750000Y-44450000D03*
X61480000Y-40550000D03*
X61480000Y-44450000D03*
X60210000Y-40550000D03*
X60210000Y-44450000D03*
%TD*%
D12*
%TO.C,R7*%
X72750000Y-76925000D03*
X72750000Y-78575000D03*
%TD*%
D15*
%TO.C,C13*%
X68275000Y-71500000D03*
X71225000Y-71500000D03*
%TD*%
D16*
%TO.C,D3*%
X73350000Y-64500000D03*
X76650000Y-64500000D03*
%TD*%
D17*
%TO.C,U1*%
X44075000Y-61000000D03*
X44075000Y-61500000D03*
X44075000Y-62000000D03*
X44075000Y-62500000D03*
X44075000Y-63000000D03*
X44075000Y-63500000D03*
X44075000Y-64000000D03*
X44075000Y-64500000D03*
X44075000Y-65000000D03*
X44075000Y-65500000D03*
X44075000Y-66000000D03*
X44075000Y-66500000D03*
X44075000Y-67000000D03*
X44075000Y-67500000D03*
X44075000Y-68000000D03*
X44075000Y-68500000D03*
D18*
X46000000Y-70425000D03*
X46500000Y-70425000D03*
X47000000Y-70425000D03*
X47500000Y-70425000D03*
X48000000Y-70425000D03*
X48500000Y-70425000D03*
X49000000Y-70425000D03*
X49500000Y-70425000D03*
X50000000Y-70425000D03*
X50500000Y-70425000D03*
X51000000Y-70425000D03*
X51500000Y-70425000D03*
X52000000Y-70425000D03*
X52500000Y-70425000D03*
X53000000Y-70425000D03*
X53500000Y-70425000D03*
D17*
X55425000Y-68500000D03*
X55425000Y-68000000D03*
X55425000Y-67500000D03*
X55425000Y-67000000D03*
X55425000Y-66500000D03*
X55425000Y-66000000D03*
X55425000Y-65500000D03*
X55425000Y-65000000D03*
X55425000Y-64500000D03*
X55425000Y-64000000D03*
X55425000Y-63500000D03*
X55425000Y-63000000D03*
X55425000Y-62500000D03*
X55425000Y-62000000D03*
X55425000Y-61500000D03*
X55425000Y-61000000D03*
D18*
X53500000Y-59075000D03*
X53000000Y-59075000D03*
X52500000Y-59075000D03*
X52000000Y-59075000D03*
X51500000Y-59075000D03*
X51000000Y-59075000D03*
X50500000Y-59075000D03*
X50000000Y-59075000D03*
X49500000Y-59075000D03*
X49000000Y-59075000D03*
X48500000Y-59075000D03*
X48000000Y-59075000D03*
X47500000Y-59075000D03*
X47000000Y-59075000D03*
X46500000Y-59075000D03*
X46000000Y-59075000D03*
%TD*%
D19*
%TO.C,C11*%
X39130000Y-66025000D03*
X38170000Y-66025000D03*
%TD*%
D20*
%TO.C,C2*%
X53475000Y-72675000D03*
X55025000Y-72675000D03*
%TD*%
D19*
%TO.C,C5*%
X47230000Y-72425000D03*
X46270000Y-72425000D03*
%TD*%
D21*
%TO.C,U3*%
X78137500Y-53950000D03*
X78137500Y-53000000D03*
X78137500Y-52050000D03*
X75862500Y-52050000D03*
X75862500Y-53000000D03*
X75862500Y-53950000D03*
%TD*%
D15*
%TO.C,C15*%
X61775000Y-80000000D03*
X64725000Y-80000000D03*
%TD*%
%TO.C,C16*%
X61775000Y-83000000D03*
X64725000Y-83000000D03*
%TD*%
D22*
%TO.C,R1*%
X38010000Y-53250000D03*
X36990000Y-53250000D03*
%TD*%
D23*
%TO.C,C14*%
X65500000Y-75270000D03*
X65500000Y-76230000D03*
%TD*%
D12*
%TO.C,R3*%
X41250000Y-70350000D03*
X41250000Y-72000000D03*
%TD*%
D24*
%TO.C,F1*%
X71150000Y-64500000D03*
X68350000Y-64500000D03*
%TD*%
D25*
%TO.C,D1*%
X43250000Y-71962500D03*
X43250000Y-70387500D03*
%TD*%
D26*
%TO.C,L1*%
X38765000Y-68175000D03*
X39735000Y-68175000D03*
%TD*%
D27*
%TO.C,R11*%
X72825000Y-43000000D03*
X71175000Y-43000000D03*
%TD*%
D28*
%TO.C,R5*%
X73000000Y-75325000D03*
X73000000Y-73675000D03*
%TD*%
D29*
%TO.C,J5*%
X82650000Y-54250000D03*
X82650000Y-53600000D03*
X82650000Y-52950000D03*
X82650000Y-52300000D03*
X82650000Y-51650000D03*
D30*
X83070000Y-55270000D03*
D31*
X85300000Y-54075000D03*
X85300000Y-51825000D03*
D30*
X83070000Y-50630000D03*
%TD*%
D32*
%TO.C,L2*%
X61500000Y-72950000D03*
X61500000Y-77050000D03*
%TD*%
D33*
%TO.C,C10*%
X42000000Y-67155000D03*
X42000000Y-66195000D03*
%TD*%
D22*
%TO.C,R9*%
X51260000Y-55250000D03*
X50240000Y-55250000D03*
%TD*%
D33*
%TO.C,C7*%
X56000000Y-59655000D03*
X56000000Y-58695000D03*
%TD*%
D11*
%TO.C,C12*%
X38170000Y-60000000D03*
X39130000Y-60000000D03*
%TD*%
D28*
%TO.C,R6*%
X71000000Y-78575000D03*
X71000000Y-76925000D03*
%TD*%
D34*
%TO.C,U2*%
X67300000Y-76887500D03*
X68250000Y-76887500D03*
X69200000Y-76887500D03*
X69200000Y-74612500D03*
X68250000Y-74612500D03*
X67300000Y-74612500D03*
%TD*%
D35*
%TO.C,C1*%
X57750000Y-61200000D03*
X57750000Y-59650000D03*
%TD*%
D33*
%TO.C,C4*%
X42000000Y-60925000D03*
X42000000Y-59965000D03*
%TD*%
D11*
%TO.C,C6*%
X55020000Y-70925000D03*
X55980000Y-70925000D03*
%TD*%
D36*
%TO.C,SW1*%
X34505000Y-48850000D03*
X32295000Y-48850000D03*
X34505000Y-56150000D03*
X32295000Y-56150000D03*
D37*
X35155000Y-50250000D03*
X35155000Y-53250000D03*
X35155000Y-54750000D03*
%TD*%
D38*
%TO.C,FB1*%
X68250000Y-66937500D03*
X68250000Y-69062500D03*
%TD*%
D39*
%TO.C,C3*%
X44025000Y-57175000D03*
X42475000Y-57175000D03*
%TD*%
D40*
%TO.C,R10*%
X47990000Y-55250000D03*
X49010000Y-55250000D03*
%TD*%
D16*
%TO.C,D2*%
X61600000Y-70000000D03*
X64900000Y-70000000D03*
%TD*%
D22*
%TO.C,R2*%
X42010000Y-63750000D03*
X40990000Y-63750000D03*
%TD*%
D33*
%TO.C,C9*%
X40750000Y-67155000D03*
X40750000Y-66195000D03*
%TD*%
D28*
%TO.C,R8*%
X74500000Y-78575000D03*
X74500000Y-76925000D03*
%TD*%
D41*
%TO.C,Y1*%
X37400000Y-61900000D03*
X37400000Y-64100000D03*
X39100000Y-64100000D03*
X39100000Y-61900000D03*
%TD*%
M02*
