%TF.GenerationSoftware,KiCad,Pcbnew,10.0.3*%
%TF.CreationDate,2026-06-23T00:25:54+01:00*%
%TF.ProjectId,STM32_Buck_converter,53544d33-325f-4427-9563-6b5f636f6e76,rev?*%
%TF.SameCoordinates,Original*%
%TF.FileFunction,Copper,L4,Bot*%
%TF.FilePolarity,Positive*%
%FSLAX46Y46*%
G04 Gerber Fmt 4.6, Leading zero omitted, Abs format (unit mm)*
G04 Created by KiCad (PCBNEW 10.0.3) date 2026-06-23 00:25:54*
%MOMM*%
%LPD*%
G01*
G04 APERTURE LIST*
G04 Aperture macros list*
%AMRoundRect*
0 Rectangle with rounded corners*
0 $1 Rounding radius*
0 $2 $3 $4 $5 $6 $7 $8 $9 X,Y pos of 4 corners*
0 Add a 4 corners polygon primitive as box body*
4,1,4,$2,$3,$4,$5,$6,$7,$8,$9,$2,$3,0*
0 Add four circle primitives for the rounded corners*
1,1,$1+$1,$2,$3*
1,1,$1+$1,$4,$5*
1,1,$1+$1,$6,$7*
1,1,$1+$1,$8,$9*
0 Add four rect primitives between the rounded corners*
20,1,$1+$1,$2,$3,$4,$5,0*
20,1,$1+$1,$4,$5,$6,$7,0*
20,1,$1+$1,$6,$7,$8,$9,0*
20,1,$1+$1,$8,$9,$2,$3,0*%
G04 Aperture macros list end*
%TA.AperFunction,ComponentPad*%
%ADD10RoundRect,0.200000X0.200000X0.450000X-0.200000X0.450000X-0.200000X-0.450000X0.200000X-0.450000X0*%
%TD*%
%TA.AperFunction,ComponentPad*%
%ADD11O,0.800000X1.300000*%
%TD*%
%TA.AperFunction,ComponentPad*%
%ADD12C,0.900000*%
%TD*%
%TA.AperFunction,ComponentPad*%
%ADD13C,8.600000*%
%TD*%
%TA.AperFunction,ComponentPad*%
%ADD14O,1.900000X1.050000*%
%TD*%
%TA.AperFunction,ComponentPad*%
%ADD15RoundRect,0.250001X0.949999X-0.949999X0.949999X0.949999X-0.949999X0.949999X-0.949999X-0.949999X0*%
%TD*%
%TA.AperFunction,ComponentPad*%
%ADD16C,2.400000*%
%TD*%
%TA.AperFunction,ComponentPad*%
%ADD17RoundRect,0.200000X-0.200000X-0.450000X0.200000X-0.450000X0.200000X0.450000X-0.200000X0.450000X0*%
%TD*%
%TA.AperFunction,ViaPad*%
%ADD18C,0.800000*%
%TD*%
%TA.AperFunction,Conductor*%
%ADD19C,0.300000*%
%TD*%
G04 APERTURE END LIST*
D10*
%TO.P,J3,1,Pin_1_1*%
%TO.N,+3.3V*%
X50875000Y-42400000D03*
D11*
%TO.P,J3,2,Pin_2_2*%
%TO.N,I2C1_SCL*%
X49625000Y-42400000D03*
%TO.P,J3,3,Pin_3_3*%
%TO.N,I2C1_SDA*%
X48375000Y-42400000D03*
%TO.P,J3,4,Pin_4_4*%
%TO.N,GND*%
X47125000Y-42400000D03*
%TD*%
D12*
%TO.P,H4,1,1_1*%
%TO.N,GND*%
X33275000Y-42250000D03*
X34219581Y-39969581D03*
X34219581Y-44530419D03*
X36500000Y-39025000D03*
D13*
X36500000Y-42250000D03*
D12*
X36500000Y-45475000D03*
X38780419Y-39969581D03*
X38780419Y-44530419D03*
X39725000Y-42250000D03*
%TD*%
D14*
%TO.P,J5,SH,Shield_SH*%
%TO.N,unconnected-(J5-Shield-PadSH)_5*%
X85300000Y-56525000D03*
%TO.N,unconnected-(J5-Shield-PadSH)_2*%
X85300000Y-49375000D03*
%TD*%
D12*
%TO.P,H3,1,1_1*%
%TO.N,GND*%
X33275000Y-82250000D03*
X34219581Y-79969581D03*
X34219581Y-84530419D03*
X36500000Y-79025000D03*
D13*
X36500000Y-82250000D03*
D12*
X36500000Y-85475000D03*
X38780419Y-79969581D03*
X38780419Y-84530419D03*
X39725000Y-82250000D03*
%TD*%
D15*
%TO.P,J1,1,Pin_1_1*%
%TO.N,+12V*%
X79000000Y-73750000D03*
D16*
%TO.P,J1,2,Pin_2_2*%
%TO.N,GND*%
X79000000Y-70250000D03*
%TD*%
D12*
%TO.P,H1,1,1_1*%
%TO.N,GND*%
X78275000Y-42250000D03*
X79219581Y-39969581D03*
X79219581Y-44530419D03*
X81500000Y-39025000D03*
D13*
X81500000Y-42250000D03*
D12*
X81500000Y-45475000D03*
X83780419Y-39969581D03*
X83780419Y-44530419D03*
X84725000Y-42250000D03*
%TD*%
%TO.P,H2,1,1_1*%
%TO.N,GND*%
X78275000Y-82250000D03*
X79219581Y-79969581D03*
X79219581Y-84530419D03*
X81500000Y-79025000D03*
D13*
X81500000Y-82250000D03*
D12*
X81500000Y-85475000D03*
X83780419Y-79969581D03*
X83780419Y-84530419D03*
X84725000Y-82250000D03*
%TD*%
D17*
%TO.P,J4,1,Pin_1_1*%
%TO.N,+3.3V*%
X47125000Y-82050000D03*
D11*
%TO.P,J4,2,Pin_2_2*%
%TO.N,USART3_TX*%
X48375000Y-82050000D03*
%TO.P,J4,3,Pin_3_3*%
%TO.N,USART3_RX*%
X49625000Y-82050000D03*
%TO.P,J4,4,Pin_4_4*%
%TO.N,GND*%
X50875000Y-82050000D03*
%TD*%
D18*
%TO.N,+3.3V*%
X56000000Y-60325000D03*
X47900000Y-72450000D03*
X62750000Y-80000000D03*
X38750000Y-68900000D03*
X60800000Y-83025000D03*
X54475000Y-71450000D03*
X44000000Y-56300000D03*
X65275000Y-38950000D03*
X38750000Y-67450000D03*
X70125000Y-78600000D03*
X45750000Y-56450000D03*
X60800000Y-80000000D03*
X36300000Y-50300000D03*
X63150000Y-76325000D03*
X59850000Y-77350000D03*
X62750000Y-83025000D03*
X70375000Y-41000000D03*
X42000000Y-61600000D03*
X71000000Y-79375000D03*
X59850000Y-76325000D03*
X63150000Y-77350000D03*
X47300000Y-55300000D03*
X51950000Y-55250000D03*
%TO.N,GND*%
X56675000Y-70925000D03*
X81350000Y-50575000D03*
X77000000Y-50925000D03*
X75375000Y-76925000D03*
X68250000Y-76000000D03*
X72450000Y-68200000D03*
X65625000Y-81000000D03*
X57750000Y-58800000D03*
X55875000Y-72675000D03*
X72200000Y-71525000D03*
X65700000Y-70550000D03*
X36325000Y-54775000D03*
X62725000Y-38950000D03*
X65650000Y-79075000D03*
X68250000Y-77950000D03*
X65700000Y-69400000D03*
X41250000Y-69525000D03*
X45575000Y-72425000D03*
X72425000Y-65925000D03*
X41625000Y-57175000D03*
X42000000Y-65500000D03*
X56000000Y-58000000D03*
X65600000Y-84000000D03*
X81350000Y-51600000D03*
X40750000Y-65500000D03*
X65650000Y-82075000D03*
X80300000Y-50600000D03*
X73850000Y-73675000D03*
X68250000Y-78925000D03*
X70375000Y-42975000D03*
X64000000Y-38975000D03*
X74500000Y-76125000D03*
X47425000Y-57200000D03*
X40450000Y-61875000D03*
X60200000Y-38950000D03*
X39825000Y-60000000D03*
X36000000Y-64100000D03*
X37475000Y-66025000D03*
X41300000Y-59950000D03*
X73000000Y-72875000D03*
X80300000Y-51600000D03*
X70250000Y-71525000D03*
%TO.N,NRST*%
X52775000Y-61075000D03*
X52775000Y-53875000D03*
%TD*%
%TO.N,NRST*%
D19*
X52775000Y-61075000D02*
X52775000Y-53875000D01*
%TD*%
M02*
