%TF.GenerationSoftware,KiCad,Pcbnew,10.0.3*%
%TF.CreationDate,2026-06-23T00:25:54+01:00*%
%TF.ProjectId,STM32_Buck_converter,53544d33-325f-4427-9563-6b5f636f6e76,rev?*%
%TF.SameCoordinates,Original*%
%TF.FileFunction,Legend,Top*%
%TF.FilePolarity,Positive*%
%FSLAX46Y46*%
G04 Gerber Fmt 4.6, Leading zero omitted, Abs format (unit mm)*
G04 Created by KiCad (PCBNEW 10.0.3) date 2026-06-23 00:25:54*
%MOMM*%
%LPD*%
G01*
G04 APERTURE LIST*
%ADD10C,0.100000*%
%ADD11C,0.150000*%
%ADD12C,0.120000*%
G04 APERTURE END LIST*
D10*
X66800000Y-39750000D02*
X67250000Y-39375000D01*
X67250000Y-39650000D01*
X67800000Y-39650000D01*
X67800000Y-39925000D01*
X67250000Y-39925000D01*
X67250000Y-40200000D01*
X66800000Y-39750000D01*
G36*
X67250000Y-39650000D02*
G01*
X67800000Y-39650000D01*
X67800000Y-39925000D01*
X67250000Y-39925000D01*
X67250000Y-40200000D01*
X66800000Y-39750000D01*
X67250000Y-39375000D01*
X67250000Y-39650000D01*
G37*
X42856066Y-61000000D02*
G75*
G02*
X42643934Y-61000000I-106066J0D01*
G01*
X42643934Y-61000000D02*
G75*
G02*
X42856066Y-61000000I106066J0D01*
G01*
X67380902Y-77800000D02*
G75*
G02*
X67269098Y-77800000I-55902J0D01*
G01*
X67269098Y-77800000D02*
G75*
G02*
X67380902Y-77800000I55902J0D01*
G01*
X73245711Y-66750000D02*
G75*
G02*
X73104289Y-66750000I-70711J0D01*
G01*
X73104289Y-66750000D02*
G75*
G02*
X73245711Y-66750000I70711J0D01*
G01*
X79406066Y-53925000D02*
G75*
G02*
X79193934Y-53925000I-106066J0D01*
G01*
X79193934Y-53925000D02*
G75*
G02*
X79406066Y-53925000I106066J0D01*
G01*
X42256265Y-69717133D02*
X42865789Y-69717133D01*
X42561027Y-70021895D02*
X42561027Y-69412371D01*
X64931265Y-68492133D02*
X65540789Y-68492133D01*
X65236027Y-68796895D02*
X65236027Y-68187371D01*
X70256265Y-41742133D02*
X70865789Y-41742133D01*
X70561027Y-42046895D02*
X70561027Y-41437371D01*
X77506265Y-64467133D02*
X78115789Y-64467133D01*
X77811027Y-64771895D02*
X77811027Y-64162371D01*
X45737217Y-64559657D02*
X45737217Y-65202514D01*
X45737217Y-65202514D02*
X45694360Y-65331085D01*
X45694360Y-65331085D02*
X45608646Y-65416800D01*
X45608646Y-65416800D02*
X45480074Y-65459657D01*
X45480074Y-65459657D02*
X45394360Y-65459657D01*
X46594360Y-65459657D02*
X46165788Y-65459657D01*
X46165788Y-65459657D02*
X46165788Y-64559657D01*
X47408645Y-65373942D02*
X47365788Y-65416800D01*
X47365788Y-65416800D02*
X47237216Y-65459657D01*
X47237216Y-65459657D02*
X47151502Y-65459657D01*
X47151502Y-65459657D02*
X47022931Y-65416800D01*
X47022931Y-65416800D02*
X46937216Y-65331085D01*
X46937216Y-65331085D02*
X46894359Y-65245371D01*
X46894359Y-65245371D02*
X46851502Y-65073942D01*
X46851502Y-65073942D02*
X46851502Y-64945371D01*
X46851502Y-64945371D02*
X46894359Y-64773942D01*
X46894359Y-64773942D02*
X46937216Y-64688228D01*
X46937216Y-64688228D02*
X47022931Y-64602514D01*
X47022931Y-64602514D02*
X47151502Y-64559657D01*
X47151502Y-64559657D02*
X47237216Y-64559657D01*
X47237216Y-64559657D02*
X47365788Y-64602514D01*
X47365788Y-64602514D02*
X47408645Y-64645371D01*
X48051502Y-64559657D02*
X48051502Y-65202514D01*
X48051502Y-65202514D02*
X48008645Y-65331085D01*
X48008645Y-65331085D02*
X47922931Y-65416800D01*
X47922931Y-65416800D02*
X47794359Y-65459657D01*
X47794359Y-65459657D02*
X47708645Y-65459657D01*
X48908645Y-65459657D02*
X48480073Y-65459657D01*
X48480073Y-65459657D02*
X48480073Y-64559657D01*
X49722930Y-65373942D02*
X49680073Y-65416800D01*
X49680073Y-65416800D02*
X49551501Y-65459657D01*
X49551501Y-65459657D02*
X49465787Y-65459657D01*
X49465787Y-65459657D02*
X49337216Y-65416800D01*
X49337216Y-65416800D02*
X49251501Y-65331085D01*
X49251501Y-65331085D02*
X49208644Y-65245371D01*
X49208644Y-65245371D02*
X49165787Y-65073942D01*
X49165787Y-65073942D02*
X49165787Y-64945371D01*
X49165787Y-64945371D02*
X49208644Y-64773942D01*
X49208644Y-64773942D02*
X49251501Y-64688228D01*
X49251501Y-64688228D02*
X49337216Y-64602514D01*
X49337216Y-64602514D02*
X49465787Y-64559657D01*
X49465787Y-64559657D02*
X49551501Y-64559657D01*
X49551501Y-64559657D02*
X49680073Y-64602514D01*
X49680073Y-64602514D02*
X49722930Y-64645371D01*
X50365787Y-64559657D02*
X50365787Y-65202514D01*
X50365787Y-65202514D02*
X50322930Y-65331085D01*
X50322930Y-65331085D02*
X50237216Y-65416800D01*
X50237216Y-65416800D02*
X50108644Y-65459657D01*
X50108644Y-65459657D02*
X50022930Y-65459657D01*
X51222930Y-65459657D02*
X50794358Y-65459657D01*
X50794358Y-65459657D02*
X50794358Y-64559657D01*
X52037215Y-65373942D02*
X51994358Y-65416800D01*
X51994358Y-65416800D02*
X51865786Y-65459657D01*
X51865786Y-65459657D02*
X51780072Y-65459657D01*
X51780072Y-65459657D02*
X51651501Y-65416800D01*
X51651501Y-65416800D02*
X51565786Y-65331085D01*
X51565786Y-65331085D02*
X51522929Y-65245371D01*
X51522929Y-65245371D02*
X51480072Y-65073942D01*
X51480072Y-65073942D02*
X51480072Y-64945371D01*
X51480072Y-64945371D02*
X51522929Y-64773942D01*
X51522929Y-64773942D02*
X51565786Y-64688228D01*
X51565786Y-64688228D02*
X51651501Y-64602514D01*
X51651501Y-64602514D02*
X51780072Y-64559657D01*
X51780072Y-64559657D02*
X51865786Y-64559657D01*
X51865786Y-64559657D02*
X51994358Y-64602514D01*
X51994358Y-64602514D02*
X52037215Y-64645371D01*
X52680072Y-64559657D02*
X52680072Y-65202514D01*
X52680072Y-65202514D02*
X52637215Y-65331085D01*
X52637215Y-65331085D02*
X52551501Y-65416800D01*
X52551501Y-65416800D02*
X52422929Y-65459657D01*
X52422929Y-65459657D02*
X52337215Y-65459657D01*
X53537215Y-65459657D02*
X53108643Y-65459657D01*
X53108643Y-65459657D02*
X53108643Y-64559657D01*
X54351500Y-65373942D02*
X54308643Y-65416800D01*
X54308643Y-65416800D02*
X54180071Y-65459657D01*
X54180071Y-65459657D02*
X54094357Y-65459657D01*
X54094357Y-65459657D02*
X53965786Y-65416800D01*
X53965786Y-65416800D02*
X53880071Y-65331085D01*
X53880071Y-65331085D02*
X53837214Y-65245371D01*
X53837214Y-65245371D02*
X53794357Y-65073942D01*
X53794357Y-65073942D02*
X53794357Y-64945371D01*
X53794357Y-64945371D02*
X53837214Y-64773942D01*
X53837214Y-64773942D02*
X53880071Y-64688228D01*
X53880071Y-64688228D02*
X53965786Y-64602514D01*
X53965786Y-64602514D02*
X54094357Y-64559657D01*
X54094357Y-64559657D02*
X54180071Y-64559657D01*
X54180071Y-64559657D02*
X54308643Y-64602514D01*
X54308643Y-64602514D02*
X54351500Y-64645371D01*
X36375312Y-58222419D02*
X36041979Y-57746228D01*
X35803884Y-58222419D02*
X35803884Y-57222419D01*
X35803884Y-57222419D02*
X36184836Y-57222419D01*
X36184836Y-57222419D02*
X36280074Y-57270038D01*
X36280074Y-57270038D02*
X36327693Y-57317657D01*
X36327693Y-57317657D02*
X36375312Y-57412895D01*
X36375312Y-57412895D02*
X36375312Y-57555752D01*
X36375312Y-57555752D02*
X36327693Y-57650990D01*
X36327693Y-57650990D02*
X36280074Y-57698609D01*
X36280074Y-57698609D02*
X36184836Y-57746228D01*
X36184836Y-57746228D02*
X35803884Y-57746228D01*
X36803884Y-57222419D02*
X36803884Y-58031942D01*
X36803884Y-58031942D02*
X36851503Y-58127180D01*
X36851503Y-58127180D02*
X36899122Y-58174800D01*
X36899122Y-58174800D02*
X36994360Y-58222419D01*
X36994360Y-58222419D02*
X37184836Y-58222419D01*
X37184836Y-58222419D02*
X37280074Y-58174800D01*
X37280074Y-58174800D02*
X37327693Y-58127180D01*
X37327693Y-58127180D02*
X37375312Y-58031942D01*
X37375312Y-58031942D02*
X37375312Y-57222419D01*
X37851503Y-58222419D02*
X37851503Y-57222419D01*
X37851503Y-57222419D02*
X38422931Y-58222419D01*
X38422931Y-58222419D02*
X38422931Y-57222419D01*
X36737217Y-48148609D02*
X36880074Y-48196228D01*
X36880074Y-48196228D02*
X36927693Y-48243847D01*
X36927693Y-48243847D02*
X36975312Y-48339085D01*
X36975312Y-48339085D02*
X36975312Y-48481942D01*
X36975312Y-48481942D02*
X36927693Y-48577180D01*
X36927693Y-48577180D02*
X36880074Y-48624800D01*
X36880074Y-48624800D02*
X36784836Y-48672419D01*
X36784836Y-48672419D02*
X36403884Y-48672419D01*
X36403884Y-48672419D02*
X36403884Y-47672419D01*
X36403884Y-47672419D02*
X36737217Y-47672419D01*
X36737217Y-47672419D02*
X36832455Y-47720038D01*
X36832455Y-47720038D02*
X36880074Y-47767657D01*
X36880074Y-47767657D02*
X36927693Y-47862895D01*
X36927693Y-47862895D02*
X36927693Y-47958133D01*
X36927693Y-47958133D02*
X36880074Y-48053371D01*
X36880074Y-48053371D02*
X36832455Y-48100990D01*
X36832455Y-48100990D02*
X36737217Y-48148609D01*
X36737217Y-48148609D02*
X36403884Y-48148609D01*
X37594360Y-47672419D02*
X37784836Y-47672419D01*
X37784836Y-47672419D02*
X37880074Y-47720038D01*
X37880074Y-47720038D02*
X37975312Y-47815276D01*
X37975312Y-47815276D02*
X38022931Y-48005752D01*
X38022931Y-48005752D02*
X38022931Y-48339085D01*
X38022931Y-48339085D02*
X37975312Y-48529561D01*
X37975312Y-48529561D02*
X37880074Y-48624800D01*
X37880074Y-48624800D02*
X37784836Y-48672419D01*
X37784836Y-48672419D02*
X37594360Y-48672419D01*
X37594360Y-48672419D02*
X37499122Y-48624800D01*
X37499122Y-48624800D02*
X37403884Y-48529561D01*
X37403884Y-48529561D02*
X37356265Y-48339085D01*
X37356265Y-48339085D02*
X37356265Y-48005752D01*
X37356265Y-48005752D02*
X37403884Y-47815276D01*
X37403884Y-47815276D02*
X37499122Y-47720038D01*
X37499122Y-47720038D02*
X37594360Y-47672419D01*
X38641979Y-47672419D02*
X38832455Y-47672419D01*
X38832455Y-47672419D02*
X38927693Y-47720038D01*
X38927693Y-47720038D02*
X39022931Y-47815276D01*
X39022931Y-47815276D02*
X39070550Y-48005752D01*
X39070550Y-48005752D02*
X39070550Y-48339085D01*
X39070550Y-48339085D02*
X39022931Y-48529561D01*
X39022931Y-48529561D02*
X38927693Y-48624800D01*
X38927693Y-48624800D02*
X38832455Y-48672419D01*
X38832455Y-48672419D02*
X38641979Y-48672419D01*
X38641979Y-48672419D02*
X38546741Y-48624800D01*
X38546741Y-48624800D02*
X38451503Y-48529561D01*
X38451503Y-48529561D02*
X38403884Y-48339085D01*
X38403884Y-48339085D02*
X38403884Y-48005752D01*
X38403884Y-48005752D02*
X38451503Y-47815276D01*
X38451503Y-47815276D02*
X38546741Y-47720038D01*
X38546741Y-47720038D02*
X38641979Y-47672419D01*
X39356265Y-47672419D02*
X39927693Y-47672419D01*
X39641979Y-48672419D02*
X39641979Y-47672419D01*
X39856265Y-74074800D02*
X39999122Y-74122419D01*
X39999122Y-74122419D02*
X40237217Y-74122419D01*
X40237217Y-74122419D02*
X40332455Y-74074800D01*
X40332455Y-74074800D02*
X40380074Y-74027180D01*
X40380074Y-74027180D02*
X40427693Y-73931942D01*
X40427693Y-73931942D02*
X40427693Y-73836704D01*
X40427693Y-73836704D02*
X40380074Y-73741466D01*
X40380074Y-73741466D02*
X40332455Y-73693847D01*
X40332455Y-73693847D02*
X40237217Y-73646228D01*
X40237217Y-73646228D02*
X40046741Y-73598609D01*
X40046741Y-73598609D02*
X39951503Y-73550990D01*
X39951503Y-73550990D02*
X39903884Y-73503371D01*
X39903884Y-73503371D02*
X39856265Y-73408133D01*
X39856265Y-73408133D02*
X39856265Y-73312895D01*
X39856265Y-73312895D02*
X39903884Y-73217657D01*
X39903884Y-73217657D02*
X39951503Y-73170038D01*
X39951503Y-73170038D02*
X40046741Y-73122419D01*
X40046741Y-73122419D02*
X40284836Y-73122419D01*
X40284836Y-73122419D02*
X40427693Y-73170038D01*
X40713408Y-73122419D02*
X41284836Y-73122419D01*
X40999122Y-74122419D02*
X40999122Y-73122419D01*
X41570551Y-73836704D02*
X42046741Y-73836704D01*
X41475313Y-74122419D02*
X41808646Y-73122419D01*
X41808646Y-73122419D02*
X42141979Y-74122419D01*
X42332456Y-73122419D02*
X42903884Y-73122419D01*
X42618170Y-74122419D02*
X42618170Y-73122419D01*
X43237218Y-73122419D02*
X43237218Y-73931942D01*
X43237218Y-73931942D02*
X43284837Y-74027180D01*
X43284837Y-74027180D02*
X43332456Y-74074800D01*
X43332456Y-74074800D02*
X43427694Y-74122419D01*
X43427694Y-74122419D02*
X43618170Y-74122419D01*
X43618170Y-74122419D02*
X43713408Y-74074800D01*
X43713408Y-74074800D02*
X43761027Y-74027180D01*
X43761027Y-74027180D02*
X43808646Y-73931942D01*
X43808646Y-73931942D02*
X43808646Y-73122419D01*
X44237218Y-74074800D02*
X44380075Y-74122419D01*
X44380075Y-74122419D02*
X44618170Y-74122419D01*
X44618170Y-74122419D02*
X44713408Y-74074800D01*
X44713408Y-74074800D02*
X44761027Y-74027180D01*
X44761027Y-74027180D02*
X44808646Y-73931942D01*
X44808646Y-73931942D02*
X44808646Y-73836704D01*
X44808646Y-73836704D02*
X44761027Y-73741466D01*
X44761027Y-73741466D02*
X44713408Y-73693847D01*
X44713408Y-73693847D02*
X44618170Y-73646228D01*
X44618170Y-73646228D02*
X44427694Y-73598609D01*
X44427694Y-73598609D02*
X44332456Y-73550990D01*
X44332456Y-73550990D02*
X44284837Y-73503371D01*
X44284837Y-73503371D02*
X44237218Y-73408133D01*
X44237218Y-73408133D02*
X44237218Y-73312895D01*
X44237218Y-73312895D02*
X44284837Y-73217657D01*
X44284837Y-73217657D02*
X44332456Y-73170038D01*
X44332456Y-73170038D02*
X44427694Y-73122419D01*
X44427694Y-73122419D02*
X44665789Y-73122419D01*
X44665789Y-73122419D02*
X44808646Y-73170038D01*
X47503884Y-79472419D02*
X47503884Y-80281942D01*
X47503884Y-80281942D02*
X47551503Y-80377180D01*
X47551503Y-80377180D02*
X47599122Y-80424800D01*
X47599122Y-80424800D02*
X47694360Y-80472419D01*
X47694360Y-80472419D02*
X47884836Y-80472419D01*
X47884836Y-80472419D02*
X47980074Y-80424800D01*
X47980074Y-80424800D02*
X48027693Y-80377180D01*
X48027693Y-80377180D02*
X48075312Y-80281942D01*
X48075312Y-80281942D02*
X48075312Y-79472419D01*
X48503884Y-80186704D02*
X48980074Y-80186704D01*
X48408646Y-80472419D02*
X48741979Y-79472419D01*
X48741979Y-79472419D02*
X49075312Y-80472419D01*
X49980074Y-80472419D02*
X49646741Y-79996228D01*
X49408646Y-80472419D02*
X49408646Y-79472419D01*
X49408646Y-79472419D02*
X49789598Y-79472419D01*
X49789598Y-79472419D02*
X49884836Y-79520038D01*
X49884836Y-79520038D02*
X49932455Y-79567657D01*
X49932455Y-79567657D02*
X49980074Y-79662895D01*
X49980074Y-79662895D02*
X49980074Y-79805752D01*
X49980074Y-79805752D02*
X49932455Y-79900990D01*
X49932455Y-79900990D02*
X49884836Y-79948609D01*
X49884836Y-79948609D02*
X49789598Y-79996228D01*
X49789598Y-79996228D02*
X49408646Y-79996228D01*
X50265789Y-79472419D02*
X50837217Y-79472419D01*
X50551503Y-80472419D02*
X50551503Y-79472419D01*
X48103884Y-45047419D02*
X48103884Y-44047419D01*
X48532455Y-44142657D02*
X48580074Y-44095038D01*
X48580074Y-44095038D02*
X48675312Y-44047419D01*
X48675312Y-44047419D02*
X48913407Y-44047419D01*
X48913407Y-44047419D02*
X49008645Y-44095038D01*
X49008645Y-44095038D02*
X49056264Y-44142657D01*
X49056264Y-44142657D02*
X49103883Y-44237895D01*
X49103883Y-44237895D02*
X49103883Y-44333133D01*
X49103883Y-44333133D02*
X49056264Y-44475990D01*
X49056264Y-44475990D02*
X48484836Y-45047419D01*
X48484836Y-45047419D02*
X49103883Y-45047419D01*
X50103883Y-44952180D02*
X50056264Y-44999800D01*
X50056264Y-44999800D02*
X49913407Y-45047419D01*
X49913407Y-45047419D02*
X49818169Y-45047419D01*
X49818169Y-45047419D02*
X49675312Y-44999800D01*
X49675312Y-44999800D02*
X49580074Y-44904561D01*
X49580074Y-44904561D02*
X49532455Y-44809323D01*
X49532455Y-44809323D02*
X49484836Y-44618847D01*
X49484836Y-44618847D02*
X49484836Y-44475990D01*
X49484836Y-44475990D02*
X49532455Y-44285514D01*
X49532455Y-44285514D02*
X49580074Y-44190276D01*
X49580074Y-44190276D02*
X49675312Y-44095038D01*
X49675312Y-44095038D02*
X49818169Y-44047419D01*
X49818169Y-44047419D02*
X49913407Y-44047419D01*
X49913407Y-44047419D02*
X50056264Y-44095038D01*
X50056264Y-44095038D02*
X50103883Y-44142657D01*
X56106265Y-42399800D02*
X56249122Y-42447419D01*
X56249122Y-42447419D02*
X56487217Y-42447419D01*
X56487217Y-42447419D02*
X56582455Y-42399800D01*
X56582455Y-42399800D02*
X56630074Y-42352180D01*
X56630074Y-42352180D02*
X56677693Y-42256942D01*
X56677693Y-42256942D02*
X56677693Y-42161704D01*
X56677693Y-42161704D02*
X56630074Y-42066466D01*
X56630074Y-42066466D02*
X56582455Y-42018847D01*
X56582455Y-42018847D02*
X56487217Y-41971228D01*
X56487217Y-41971228D02*
X56296741Y-41923609D01*
X56296741Y-41923609D02*
X56201503Y-41875990D01*
X56201503Y-41875990D02*
X56153884Y-41828371D01*
X56153884Y-41828371D02*
X56106265Y-41733133D01*
X56106265Y-41733133D02*
X56106265Y-41637895D01*
X56106265Y-41637895D02*
X56153884Y-41542657D01*
X56153884Y-41542657D02*
X56201503Y-41495038D01*
X56201503Y-41495038D02*
X56296741Y-41447419D01*
X56296741Y-41447419D02*
X56534836Y-41447419D01*
X56534836Y-41447419D02*
X56677693Y-41495038D01*
X57011027Y-41447419D02*
X57249122Y-42447419D01*
X57249122Y-42447419D02*
X57439598Y-41733133D01*
X57439598Y-41733133D02*
X57630074Y-42447419D01*
X57630074Y-42447419D02*
X57868170Y-41447419D01*
X58249122Y-42447419D02*
X58249122Y-41447419D01*
X58249122Y-41447419D02*
X58487217Y-41447419D01*
X58487217Y-41447419D02*
X58630074Y-41495038D01*
X58630074Y-41495038D02*
X58725312Y-41590276D01*
X58725312Y-41590276D02*
X58772931Y-41685514D01*
X58772931Y-41685514D02*
X58820550Y-41875990D01*
X58820550Y-41875990D02*
X58820550Y-42018847D01*
X58820550Y-42018847D02*
X58772931Y-42209323D01*
X58772931Y-42209323D02*
X58725312Y-42304561D01*
X58725312Y-42304561D02*
X58630074Y-42399800D01*
X58630074Y-42399800D02*
X58487217Y-42447419D01*
X58487217Y-42447419D02*
X58249122Y-42447419D01*
X56906265Y-86849800D02*
X57049122Y-86897419D01*
X57049122Y-86897419D02*
X57287217Y-86897419D01*
X57287217Y-86897419D02*
X57382455Y-86849800D01*
X57382455Y-86849800D02*
X57430074Y-86802180D01*
X57430074Y-86802180D02*
X57477693Y-86706942D01*
X57477693Y-86706942D02*
X57477693Y-86611704D01*
X57477693Y-86611704D02*
X57430074Y-86516466D01*
X57430074Y-86516466D02*
X57382455Y-86468847D01*
X57382455Y-86468847D02*
X57287217Y-86421228D01*
X57287217Y-86421228D02*
X57096741Y-86373609D01*
X57096741Y-86373609D02*
X57001503Y-86325990D01*
X57001503Y-86325990D02*
X56953884Y-86278371D01*
X56953884Y-86278371D02*
X56906265Y-86183133D01*
X56906265Y-86183133D02*
X56906265Y-86087895D01*
X56906265Y-86087895D02*
X56953884Y-85992657D01*
X56953884Y-85992657D02*
X57001503Y-85945038D01*
X57001503Y-85945038D02*
X57096741Y-85897419D01*
X57096741Y-85897419D02*
X57334836Y-85897419D01*
X57334836Y-85897419D02*
X57477693Y-85945038D01*
X57763408Y-85897419D02*
X58334836Y-85897419D01*
X58049122Y-86897419D02*
X58049122Y-85897419D01*
X58668170Y-86897419D02*
X58668170Y-85897419D01*
X58668170Y-85897419D02*
X59001503Y-86611704D01*
X59001503Y-86611704D02*
X59334836Y-85897419D01*
X59334836Y-85897419D02*
X59334836Y-86897419D01*
X59715789Y-85897419D02*
X60334836Y-85897419D01*
X60334836Y-85897419D02*
X60001503Y-86278371D01*
X60001503Y-86278371D02*
X60144360Y-86278371D01*
X60144360Y-86278371D02*
X60239598Y-86325990D01*
X60239598Y-86325990D02*
X60287217Y-86373609D01*
X60287217Y-86373609D02*
X60334836Y-86468847D01*
X60334836Y-86468847D02*
X60334836Y-86706942D01*
X60334836Y-86706942D02*
X60287217Y-86802180D01*
X60287217Y-86802180D02*
X60239598Y-86849800D01*
X60239598Y-86849800D02*
X60144360Y-86897419D01*
X60144360Y-86897419D02*
X59858646Y-86897419D01*
X59858646Y-86897419D02*
X59763408Y-86849800D01*
X59763408Y-86849800D02*
X59715789Y-86802180D01*
X60715789Y-85992657D02*
X60763408Y-85945038D01*
X60763408Y-85945038D02*
X60858646Y-85897419D01*
X60858646Y-85897419D02*
X61096741Y-85897419D01*
X61096741Y-85897419D02*
X61191979Y-85945038D01*
X61191979Y-85945038D02*
X61239598Y-85992657D01*
X61239598Y-85992657D02*
X61287217Y-86087895D01*
X61287217Y-86087895D02*
X61287217Y-86183133D01*
X61287217Y-86183133D02*
X61239598Y-86325990D01*
X61239598Y-86325990D02*
X60668170Y-86897419D01*
X60668170Y-86897419D02*
X61287217Y-86897419D01*
X62049122Y-86373609D02*
X61715789Y-86373609D01*
X61715789Y-86897419D02*
X61715789Y-85897419D01*
X61715789Y-85897419D02*
X62191979Y-85897419D01*
X63001503Y-86230752D02*
X63001503Y-86897419D01*
X62763408Y-85849800D02*
X62525313Y-86564085D01*
X62525313Y-86564085D02*
X63144360Y-86564085D01*
X64620551Y-86373609D02*
X64763408Y-86421228D01*
X64763408Y-86421228D02*
X64811027Y-86468847D01*
X64811027Y-86468847D02*
X64858646Y-86564085D01*
X64858646Y-86564085D02*
X64858646Y-86706942D01*
X64858646Y-86706942D02*
X64811027Y-86802180D01*
X64811027Y-86802180D02*
X64763408Y-86849800D01*
X64763408Y-86849800D02*
X64668170Y-86897419D01*
X64668170Y-86897419D02*
X64287218Y-86897419D01*
X64287218Y-86897419D02*
X64287218Y-85897419D01*
X64287218Y-85897419D02*
X64620551Y-85897419D01*
X64620551Y-85897419D02*
X64715789Y-85945038D01*
X64715789Y-85945038D02*
X64763408Y-85992657D01*
X64763408Y-85992657D02*
X64811027Y-86087895D01*
X64811027Y-86087895D02*
X64811027Y-86183133D01*
X64811027Y-86183133D02*
X64763408Y-86278371D01*
X64763408Y-86278371D02*
X64715789Y-86325990D01*
X64715789Y-86325990D02*
X64620551Y-86373609D01*
X64620551Y-86373609D02*
X64287218Y-86373609D01*
X65477694Y-85897419D02*
X65668170Y-85897419D01*
X65668170Y-85897419D02*
X65763408Y-85945038D01*
X65763408Y-85945038D02*
X65858646Y-86040276D01*
X65858646Y-86040276D02*
X65906265Y-86230752D01*
X65906265Y-86230752D02*
X65906265Y-86564085D01*
X65906265Y-86564085D02*
X65858646Y-86754561D01*
X65858646Y-86754561D02*
X65763408Y-86849800D01*
X65763408Y-86849800D02*
X65668170Y-86897419D01*
X65668170Y-86897419D02*
X65477694Y-86897419D01*
X65477694Y-86897419D02*
X65382456Y-86849800D01*
X65382456Y-86849800D02*
X65287218Y-86754561D01*
X65287218Y-86754561D02*
X65239599Y-86564085D01*
X65239599Y-86564085D02*
X65239599Y-86230752D01*
X65239599Y-86230752D02*
X65287218Y-86040276D01*
X65287218Y-86040276D02*
X65382456Y-85945038D01*
X65382456Y-85945038D02*
X65477694Y-85897419D01*
X66287218Y-86611704D02*
X66763408Y-86611704D01*
X66191980Y-86897419D02*
X66525313Y-85897419D01*
X66525313Y-85897419D02*
X66858646Y-86897419D01*
X67763408Y-86897419D02*
X67430075Y-86421228D01*
X67191980Y-86897419D02*
X67191980Y-85897419D01*
X67191980Y-85897419D02*
X67572932Y-85897419D01*
X67572932Y-85897419D02*
X67668170Y-85945038D01*
X67668170Y-85945038D02*
X67715789Y-85992657D01*
X67715789Y-85992657D02*
X67763408Y-86087895D01*
X67763408Y-86087895D02*
X67763408Y-86230752D01*
X67763408Y-86230752D02*
X67715789Y-86325990D01*
X67715789Y-86325990D02*
X67668170Y-86373609D01*
X67668170Y-86373609D02*
X67572932Y-86421228D01*
X67572932Y-86421228D02*
X67191980Y-86421228D01*
X68191980Y-86897419D02*
X68191980Y-85897419D01*
X68191980Y-85897419D02*
X68430075Y-85897419D01*
X68430075Y-85897419D02*
X68572932Y-85945038D01*
X68572932Y-85945038D02*
X68668170Y-86040276D01*
X68668170Y-86040276D02*
X68715789Y-86135514D01*
X68715789Y-86135514D02*
X68763408Y-86325990D01*
X68763408Y-86325990D02*
X68763408Y-86468847D01*
X68763408Y-86468847D02*
X68715789Y-86659323D01*
X68715789Y-86659323D02*
X68668170Y-86754561D01*
X68668170Y-86754561D02*
X68572932Y-86849800D01*
X68572932Y-86849800D02*
X68430075Y-86897419D01*
X68430075Y-86897419D02*
X68191980Y-86897419D01*
X70191980Y-87230752D02*
X70191980Y-85802180D01*
X72239599Y-86897419D02*
X71906266Y-86421228D01*
X71668171Y-86897419D02*
X71668171Y-85897419D01*
X71668171Y-85897419D02*
X72049123Y-85897419D01*
X72049123Y-85897419D02*
X72144361Y-85945038D01*
X72144361Y-85945038D02*
X72191980Y-85992657D01*
X72191980Y-85992657D02*
X72239599Y-86087895D01*
X72239599Y-86087895D02*
X72239599Y-86230752D01*
X72239599Y-86230752D02*
X72191980Y-86325990D01*
X72191980Y-86325990D02*
X72144361Y-86373609D01*
X72144361Y-86373609D02*
X72049123Y-86421228D01*
X72049123Y-86421228D02*
X71668171Y-86421228D01*
X72668171Y-86373609D02*
X73001504Y-86373609D01*
X73144361Y-86897419D02*
X72668171Y-86897419D01*
X72668171Y-86897419D02*
X72668171Y-85897419D01*
X72668171Y-85897419D02*
X73144361Y-85897419D01*
X73430076Y-85897419D02*
X73763409Y-86897419D01*
X73763409Y-86897419D02*
X74096742Y-85897419D01*
X75715790Y-86897419D02*
X75144362Y-86897419D01*
X75430076Y-86897419D02*
X75430076Y-85897419D01*
X75430076Y-85897419D02*
X75334838Y-86040276D01*
X75334838Y-86040276D02*
X75239600Y-86135514D01*
X75239600Y-86135514D02*
X75144362Y-86183133D01*
X70708646Y-38872419D02*
X71327693Y-38872419D01*
X71327693Y-38872419D02*
X70994360Y-39253371D01*
X70994360Y-39253371D02*
X71137217Y-39253371D01*
X71137217Y-39253371D02*
X71232455Y-39300990D01*
X71232455Y-39300990D02*
X71280074Y-39348609D01*
X71280074Y-39348609D02*
X71327693Y-39443847D01*
X71327693Y-39443847D02*
X71327693Y-39681942D01*
X71327693Y-39681942D02*
X71280074Y-39777180D01*
X71280074Y-39777180D02*
X71232455Y-39824800D01*
X71232455Y-39824800D02*
X71137217Y-39872419D01*
X71137217Y-39872419D02*
X70851503Y-39872419D01*
X70851503Y-39872419D02*
X70756265Y-39824800D01*
X70756265Y-39824800D02*
X70708646Y-39777180D01*
X71613408Y-38872419D02*
X71946741Y-39872419D01*
X71946741Y-39872419D02*
X72280074Y-38872419D01*
X72518170Y-38872419D02*
X73137217Y-38872419D01*
X73137217Y-38872419D02*
X72803884Y-39253371D01*
X72803884Y-39253371D02*
X72946741Y-39253371D01*
X72946741Y-39253371D02*
X73041979Y-39300990D01*
X73041979Y-39300990D02*
X73089598Y-39348609D01*
X73089598Y-39348609D02*
X73137217Y-39443847D01*
X73137217Y-39443847D02*
X73137217Y-39681942D01*
X73137217Y-39681942D02*
X73089598Y-39777180D01*
X73089598Y-39777180D02*
X73041979Y-39824800D01*
X73041979Y-39824800D02*
X72946741Y-39872419D01*
X72946741Y-39872419D02*
X72661027Y-39872419D01*
X72661027Y-39872419D02*
X72565789Y-39824800D01*
X72565789Y-39824800D02*
X72518170Y-39777180D01*
X77303884Y-67697419D02*
X77303884Y-66697419D01*
X77303884Y-66697419D02*
X77684836Y-66697419D01*
X77684836Y-66697419D02*
X77780074Y-66745038D01*
X77780074Y-66745038D02*
X77827693Y-66792657D01*
X77827693Y-66792657D02*
X77875312Y-66887895D01*
X77875312Y-66887895D02*
X77875312Y-67030752D01*
X77875312Y-67030752D02*
X77827693Y-67125990D01*
X77827693Y-67125990D02*
X77780074Y-67173609D01*
X77780074Y-67173609D02*
X77684836Y-67221228D01*
X77684836Y-67221228D02*
X77303884Y-67221228D01*
X78494360Y-66697419D02*
X78684836Y-66697419D01*
X78684836Y-66697419D02*
X78780074Y-66745038D01*
X78780074Y-66745038D02*
X78875312Y-66840276D01*
X78875312Y-66840276D02*
X78922931Y-67030752D01*
X78922931Y-67030752D02*
X78922931Y-67364085D01*
X78922931Y-67364085D02*
X78875312Y-67554561D01*
X78875312Y-67554561D02*
X78780074Y-67649800D01*
X78780074Y-67649800D02*
X78684836Y-67697419D01*
X78684836Y-67697419D02*
X78494360Y-67697419D01*
X78494360Y-67697419D02*
X78399122Y-67649800D01*
X78399122Y-67649800D02*
X78303884Y-67554561D01*
X78303884Y-67554561D02*
X78256265Y-67364085D01*
X78256265Y-67364085D02*
X78256265Y-67030752D01*
X78256265Y-67030752D02*
X78303884Y-66840276D01*
X78303884Y-66840276D02*
X78399122Y-66745038D01*
X78399122Y-66745038D02*
X78494360Y-66697419D01*
X79256265Y-66697419D02*
X79494360Y-67697419D01*
X79494360Y-67697419D02*
X79684836Y-66983133D01*
X79684836Y-66983133D02*
X79875312Y-67697419D01*
X79875312Y-67697419D02*
X80113408Y-66697419D01*
X80494360Y-67173609D02*
X80827693Y-67173609D01*
X80970550Y-67697419D02*
X80494360Y-67697419D01*
X80494360Y-67697419D02*
X80494360Y-66697419D01*
X80494360Y-66697419D02*
X80970550Y-66697419D01*
X81970550Y-67697419D02*
X81637217Y-67221228D01*
X81399122Y-67697419D02*
X81399122Y-66697419D01*
X81399122Y-66697419D02*
X81780074Y-66697419D01*
X81780074Y-66697419D02*
X81875312Y-66745038D01*
X81875312Y-66745038D02*
X81922931Y-66792657D01*
X81922931Y-66792657D02*
X81970550Y-66887895D01*
X81970550Y-66887895D02*
X81970550Y-67030752D01*
X81970550Y-67030752D02*
X81922931Y-67125990D01*
X81922931Y-67125990D02*
X81875312Y-67173609D01*
X81875312Y-67173609D02*
X81780074Y-67221228D01*
X81780074Y-67221228D02*
X81399122Y-67221228D01*
X83503884Y-57897419D02*
X83503884Y-58706942D01*
X83503884Y-58706942D02*
X83551503Y-58802180D01*
X83551503Y-58802180D02*
X83599122Y-58849800D01*
X83599122Y-58849800D02*
X83694360Y-58897419D01*
X83694360Y-58897419D02*
X83884836Y-58897419D01*
X83884836Y-58897419D02*
X83980074Y-58849800D01*
X83980074Y-58849800D02*
X84027693Y-58802180D01*
X84027693Y-58802180D02*
X84075312Y-58706942D01*
X84075312Y-58706942D02*
X84075312Y-57897419D01*
X84503884Y-58849800D02*
X84646741Y-58897419D01*
X84646741Y-58897419D02*
X84884836Y-58897419D01*
X84884836Y-58897419D02*
X84980074Y-58849800D01*
X84980074Y-58849800D02*
X85027693Y-58802180D01*
X85027693Y-58802180D02*
X85075312Y-58706942D01*
X85075312Y-58706942D02*
X85075312Y-58611704D01*
X85075312Y-58611704D02*
X85027693Y-58516466D01*
X85027693Y-58516466D02*
X84980074Y-58468847D01*
X84980074Y-58468847D02*
X84884836Y-58421228D01*
X84884836Y-58421228D02*
X84694360Y-58373609D01*
X84694360Y-58373609D02*
X84599122Y-58325990D01*
X84599122Y-58325990D02*
X84551503Y-58278371D01*
X84551503Y-58278371D02*
X84503884Y-58183133D01*
X84503884Y-58183133D02*
X84503884Y-58087895D01*
X84503884Y-58087895D02*
X84551503Y-57992657D01*
X84551503Y-57992657D02*
X84599122Y-57945038D01*
X84599122Y-57945038D02*
X84694360Y-57897419D01*
X84694360Y-57897419D02*
X84932455Y-57897419D01*
X84932455Y-57897419D02*
X85075312Y-57945038D01*
X85837217Y-58373609D02*
X85980074Y-58421228D01*
X85980074Y-58421228D02*
X86027693Y-58468847D01*
X86027693Y-58468847D02*
X86075312Y-58564085D01*
X86075312Y-58564085D02*
X86075312Y-58706942D01*
X86075312Y-58706942D02*
X86027693Y-58802180D01*
X86027693Y-58802180D02*
X85980074Y-58849800D01*
X85980074Y-58849800D02*
X85884836Y-58897419D01*
X85884836Y-58897419D02*
X85503884Y-58897419D01*
X85503884Y-58897419D02*
X85503884Y-57897419D01*
X85503884Y-57897419D02*
X85837217Y-57897419D01*
X85837217Y-57897419D02*
X85932455Y-57945038D01*
X85932455Y-57945038D02*
X85980074Y-57992657D01*
X85980074Y-57992657D02*
X86027693Y-58087895D01*
X86027693Y-58087895D02*
X86027693Y-58183133D01*
X86027693Y-58183133D02*
X85980074Y-58278371D01*
X85980074Y-58278371D02*
X85932455Y-58325990D01*
X85932455Y-58325990D02*
X85837217Y-58373609D01*
X85837217Y-58373609D02*
X85503884Y-58373609D01*
X64426503Y-48942741D02*
X65140789Y-48942741D01*
X64283646Y-49371312D02*
X64783646Y-47871312D01*
X64783646Y-47871312D02*
X65283646Y-49371312D01*
X66069360Y-48657026D02*
X66069360Y-49371312D01*
X65569360Y-47871312D02*
X66069360Y-48657026D01*
X66069360Y-48657026D02*
X66569360Y-47871312D01*
X66712217Y-49514169D02*
X67855074Y-49514169D01*
X68212216Y-49371312D02*
X68212216Y-47871312D01*
X68212216Y-47871312D02*
X68783645Y-47871312D01*
X68783645Y-47871312D02*
X68926502Y-47942741D01*
X68926502Y-47942741D02*
X68997931Y-48014169D01*
X68997931Y-48014169D02*
X69069359Y-48157026D01*
X69069359Y-48157026D02*
X69069359Y-48371312D01*
X69069359Y-48371312D02*
X68997931Y-48514169D01*
X68997931Y-48514169D02*
X68926502Y-48585598D01*
X68926502Y-48585598D02*
X68783645Y-48657026D01*
X68783645Y-48657026D02*
X68212216Y-48657026D01*
X70569359Y-49228455D02*
X70497931Y-49299884D01*
X70497931Y-49299884D02*
X70283645Y-49371312D01*
X70283645Y-49371312D02*
X70140788Y-49371312D01*
X70140788Y-49371312D02*
X69926502Y-49299884D01*
X69926502Y-49299884D02*
X69783645Y-49157026D01*
X69783645Y-49157026D02*
X69712216Y-49014169D01*
X69712216Y-49014169D02*
X69640788Y-48728455D01*
X69640788Y-48728455D02*
X69640788Y-48514169D01*
X69640788Y-48514169D02*
X69712216Y-48228455D01*
X69712216Y-48228455D02*
X69783645Y-48085598D01*
X69783645Y-48085598D02*
X69926502Y-47942741D01*
X69926502Y-47942741D02*
X70140788Y-47871312D01*
X70140788Y-47871312D02*
X70283645Y-47871312D01*
X70283645Y-47871312D02*
X70497931Y-47942741D01*
X70497931Y-47942741D02*
X70569359Y-48014169D01*
X71712216Y-48585598D02*
X71926502Y-48657026D01*
X71926502Y-48657026D02*
X71997931Y-48728455D01*
X71997931Y-48728455D02*
X72069359Y-48871312D01*
X72069359Y-48871312D02*
X72069359Y-49085598D01*
X72069359Y-49085598D02*
X71997931Y-49228455D01*
X71997931Y-49228455D02*
X71926502Y-49299884D01*
X71926502Y-49299884D02*
X71783645Y-49371312D01*
X71783645Y-49371312D02*
X71212216Y-49371312D01*
X71212216Y-49371312D02*
X71212216Y-47871312D01*
X71212216Y-47871312D02*
X71712216Y-47871312D01*
X71712216Y-47871312D02*
X71855074Y-47942741D01*
X71855074Y-47942741D02*
X71926502Y-48014169D01*
X71926502Y-48014169D02*
X71997931Y-48157026D01*
X71997931Y-48157026D02*
X71997931Y-48299884D01*
X71997931Y-48299884D02*
X71926502Y-48442741D01*
X71926502Y-48442741D02*
X71855074Y-48514169D01*
X71855074Y-48514169D02*
X71712216Y-48585598D01*
X71712216Y-48585598D02*
X71212216Y-48585598D01*
X64497931Y-51786228D02*
X64497931Y-50286228D01*
X64497931Y-50286228D02*
X64855074Y-50286228D01*
X64855074Y-50286228D02*
X65069360Y-50357657D01*
X65069360Y-50357657D02*
X65212217Y-50500514D01*
X65212217Y-50500514D02*
X65283646Y-50643371D01*
X65283646Y-50643371D02*
X65355074Y-50929085D01*
X65355074Y-50929085D02*
X65355074Y-51143371D01*
X65355074Y-51143371D02*
X65283646Y-51429085D01*
X65283646Y-51429085D02*
X65212217Y-51571942D01*
X65212217Y-51571942D02*
X65069360Y-51714800D01*
X65069360Y-51714800D02*
X64855074Y-51786228D01*
X64855074Y-51786228D02*
X64497931Y-51786228D01*
X66569360Y-51714800D02*
X66426503Y-51786228D01*
X66426503Y-51786228D02*
X66140789Y-51786228D01*
X66140789Y-51786228D02*
X65997931Y-51714800D01*
X65997931Y-51714800D02*
X65926503Y-51571942D01*
X65926503Y-51571942D02*
X65926503Y-51000514D01*
X65926503Y-51000514D02*
X65997931Y-50857657D01*
X65997931Y-50857657D02*
X66140789Y-50786228D01*
X66140789Y-50786228D02*
X66426503Y-50786228D01*
X66426503Y-50786228D02*
X66569360Y-50857657D01*
X66569360Y-50857657D02*
X66640789Y-51000514D01*
X66640789Y-51000514D02*
X66640789Y-51143371D01*
X66640789Y-51143371D02*
X65926503Y-51286228D01*
X67212217Y-51714800D02*
X67355074Y-51786228D01*
X67355074Y-51786228D02*
X67640788Y-51786228D01*
X67640788Y-51786228D02*
X67783645Y-51714800D01*
X67783645Y-51714800D02*
X67855074Y-51571942D01*
X67855074Y-51571942D02*
X67855074Y-51500514D01*
X67855074Y-51500514D02*
X67783645Y-51357657D01*
X67783645Y-51357657D02*
X67640788Y-51286228D01*
X67640788Y-51286228D02*
X67426503Y-51286228D01*
X67426503Y-51286228D02*
X67283645Y-51214800D01*
X67283645Y-51214800D02*
X67212217Y-51071942D01*
X67212217Y-51071942D02*
X67212217Y-51000514D01*
X67212217Y-51000514D02*
X67283645Y-50857657D01*
X67283645Y-50857657D02*
X67426503Y-50786228D01*
X67426503Y-50786228D02*
X67640788Y-50786228D01*
X67640788Y-50786228D02*
X67783645Y-50857657D01*
X68497931Y-51786228D02*
X68497931Y-50786228D01*
X68497931Y-50286228D02*
X68426503Y-50357657D01*
X68426503Y-50357657D02*
X68497931Y-50429085D01*
X68497931Y-50429085D02*
X68569360Y-50357657D01*
X68569360Y-50357657D02*
X68497931Y-50286228D01*
X68497931Y-50286228D02*
X68497931Y-50429085D01*
X69855075Y-50786228D02*
X69855075Y-52000514D01*
X69855075Y-52000514D02*
X69783646Y-52143371D01*
X69783646Y-52143371D02*
X69712217Y-52214800D01*
X69712217Y-52214800D02*
X69569360Y-52286228D01*
X69569360Y-52286228D02*
X69355075Y-52286228D01*
X69355075Y-52286228D02*
X69212217Y-52214800D01*
X69855075Y-51714800D02*
X69712217Y-51786228D01*
X69712217Y-51786228D02*
X69426503Y-51786228D01*
X69426503Y-51786228D02*
X69283646Y-51714800D01*
X69283646Y-51714800D02*
X69212217Y-51643371D01*
X69212217Y-51643371D02*
X69140789Y-51500514D01*
X69140789Y-51500514D02*
X69140789Y-51071942D01*
X69140789Y-51071942D02*
X69212217Y-50929085D01*
X69212217Y-50929085D02*
X69283646Y-50857657D01*
X69283646Y-50857657D02*
X69426503Y-50786228D01*
X69426503Y-50786228D02*
X69712217Y-50786228D01*
X69712217Y-50786228D02*
X69855075Y-50857657D01*
X70569360Y-50786228D02*
X70569360Y-51786228D01*
X70569360Y-50929085D02*
X70640789Y-50857657D01*
X70640789Y-50857657D02*
X70783646Y-50786228D01*
X70783646Y-50786228D02*
X70997932Y-50786228D01*
X70997932Y-50786228D02*
X71140789Y-50857657D01*
X71140789Y-50857657D02*
X71212218Y-51000514D01*
X71212218Y-51000514D02*
X71212218Y-51786228D01*
X71855075Y-51714800D02*
X71997932Y-51786228D01*
X71997932Y-51786228D02*
X72283646Y-51786228D01*
X72283646Y-51786228D02*
X72426503Y-51714800D01*
X72426503Y-51714800D02*
X72497932Y-51571942D01*
X72497932Y-51571942D02*
X72497932Y-51500514D01*
X72497932Y-51500514D02*
X72426503Y-51357657D01*
X72426503Y-51357657D02*
X72283646Y-51286228D01*
X72283646Y-51286228D02*
X72069361Y-51286228D01*
X72069361Y-51286228D02*
X71926503Y-51214800D01*
X71926503Y-51214800D02*
X71855075Y-51071942D01*
X71855075Y-51071942D02*
X71855075Y-51000514D01*
X71855075Y-51000514D02*
X71926503Y-50857657D01*
X71926503Y-50857657D02*
X72069361Y-50786228D01*
X72069361Y-50786228D02*
X72283646Y-50786228D01*
X72283646Y-50786228D02*
X72426503Y-50857657D01*
D11*
X78605826Y-76762200D02*
X79748684Y-76762200D01*
X79177255Y-77333628D02*
X79177255Y-76190771D01*
%TO.C,D4*%
D12*
X71200000Y-41735000D02*
X73485000Y-41735000D01*
X73485000Y-40265000D02*
X71200000Y-40265000D01*
X73485000Y-41735000D02*
X73485000Y-40265000D01*
%TO.C,C8*%
X46142164Y-56815000D02*
X46357836Y-56815000D01*
X46142164Y-57535000D02*
X46357836Y-57535000D01*
%TO.C,R4*%
X70727500Y-74262742D02*
X70727500Y-74737258D01*
X71772500Y-74262742D02*
X71772500Y-74737258D01*
%TO.C,Q1*%
X69940000Y-67240000D02*
X69990000Y-67240000D01*
X69940000Y-68760000D02*
X69940000Y-67240000D01*
X70940000Y-68760000D02*
X69940000Y-68760000D01*
X71110000Y-67240000D02*
X71890000Y-67240000D01*
X73010000Y-67240000D02*
X73060000Y-67240000D01*
X73060000Y-67240000D02*
X73060000Y-68760000D01*
X73060000Y-68760000D02*
X72060000Y-68760000D01*
X71880000Y-66700000D02*
X71550000Y-66940000D01*
X71550000Y-66460000D01*
X71880000Y-66700000D01*
G36*
X71880000Y-66700000D02*
G01*
X71550000Y-66940000D01*
X71550000Y-66460000D01*
X71880000Y-66700000D01*
G37*
%TO.C,J3*%
X45515000Y-37840000D02*
X49000000Y-37840000D01*
X45515000Y-43560000D02*
X45515000Y-37840000D01*
X46585000Y-43260000D02*
X46585000Y-43560000D01*
X46585000Y-43560000D02*
X45515000Y-43560000D01*
X49000000Y-43260000D02*
X46585000Y-43260000D01*
X49000000Y-43260000D02*
X51415000Y-43260000D01*
X51125000Y-43550000D02*
X51125000Y-43850000D01*
X51125000Y-43850000D02*
X51625000Y-43850000D01*
X51415000Y-43260000D02*
X51415000Y-43560000D01*
X51415000Y-43560000D02*
X52485000Y-43560000D01*
X52485000Y-37840000D02*
X49000000Y-37840000D01*
X52485000Y-43560000D02*
X52485000Y-37840000D01*
%TO.C,J2*%
X59465000Y-40685000D02*
X59465000Y-44315000D01*
X59530000Y-40685000D02*
X59465000Y-40685000D01*
X59530000Y-44315000D02*
X59465000Y-44315000D01*
X65970000Y-39410000D02*
X65970000Y-40685000D01*
X66035000Y-40685000D02*
X65970000Y-40685000D01*
X66035000Y-40685000D02*
X66035000Y-44315000D01*
X66035000Y-44315000D02*
X65970000Y-44315000D01*
%TO.C,R7*%
X72227500Y-77512742D02*
X72227500Y-77987258D01*
X73272500Y-77512742D02*
X73272500Y-77987258D01*
%TO.C,C13*%
X69038748Y-70590000D02*
X70461252Y-70590000D01*
X69038748Y-72410000D02*
X70461252Y-72410000D01*
%TO.C,D3*%
X72640000Y-63500000D02*
X72640000Y-65500000D01*
X72640000Y-63500000D02*
X76650000Y-63500000D01*
X72640000Y-65500000D02*
X76650000Y-65500000D01*
%TO.C,U1*%
X44640000Y-59640000D02*
X45590000Y-59640000D01*
X44640000Y-60590000D02*
X44640000Y-59640000D01*
X44640000Y-69860000D02*
X44640000Y-68910000D01*
X45590000Y-69860000D02*
X44640000Y-69860000D01*
X53910000Y-59640000D02*
X54860000Y-59640000D01*
X54860000Y-59640000D02*
X54860000Y-60590000D01*
X54860000Y-68910000D02*
X54860000Y-69860000D01*
X54860000Y-69860000D02*
X53910000Y-69860000D01*
X44000000Y-60590000D02*
X43660000Y-60120000D01*
X44340000Y-60120000D01*
X44000000Y-60590000D01*
G36*
X44000000Y-60590000D02*
G01*
X43660000Y-60120000D01*
X44340000Y-60120000D01*
X44000000Y-60590000D01*
G37*
%TO.C,C11*%
X38757836Y-65665000D02*
X38542164Y-65665000D01*
X38757836Y-66385000D02*
X38542164Y-66385000D01*
%TO.C,C2*%
X54109420Y-72165000D02*
X54390580Y-72165000D01*
X54109420Y-73185000D02*
X54390580Y-73185000D01*
%TO.C,C5*%
X46857836Y-72065000D02*
X46642164Y-72065000D01*
X46857836Y-72785000D02*
X46642164Y-72785000D01*
%TO.C,U3*%
X76090000Y-51440000D02*
X77910000Y-51440000D01*
X76090000Y-51490000D02*
X76090000Y-51440000D01*
X76090000Y-54560000D02*
X76090000Y-54510000D01*
X77910000Y-51440000D02*
X77910000Y-51490000D01*
X77910000Y-54510000D02*
X77910000Y-54560000D01*
X77910000Y-54560000D02*
X76090000Y-54560000D01*
X78450000Y-54510000D02*
X78690000Y-54840000D01*
X78210000Y-54840000D01*
X78450000Y-54510000D01*
G36*
X78690000Y-54840000D02*
G01*
X78210000Y-54840000D01*
X78450000Y-54510000D01*
X78690000Y-54840000D01*
G37*
%TO.C,C15*%
X62538748Y-79090000D02*
X63961252Y-79090000D01*
X62538748Y-80910000D02*
X63961252Y-80910000D01*
%TO.C,C16*%
X62538748Y-82090000D02*
X63961252Y-82090000D01*
X62538748Y-83910000D02*
X63961252Y-83910000D01*
%TO.C,R1*%
X37653641Y-52870000D02*
X37346359Y-52870000D01*
X37653641Y-53630000D02*
X37346359Y-53630000D01*
%TO.C,C14*%
X65140000Y-75642164D02*
X65140000Y-75857836D01*
X65860000Y-75642164D02*
X65860000Y-75857836D01*
%TO.C,R3*%
X40727500Y-70937742D02*
X40727500Y-71412258D01*
X41772500Y-70937742D02*
X41772500Y-71412258D01*
%TO.C,F1*%
X70352064Y-63590000D02*
X69147936Y-63590000D01*
X70352064Y-65410000D02*
X69147936Y-65410000D01*
%TO.C,D1*%
X42515000Y-70375000D02*
X42515000Y-72660000D01*
X42515000Y-72660000D02*
X43985000Y-72660000D01*
X43985000Y-72660000D02*
X43985000Y-70375000D01*
%TO.C,R11*%
X72237258Y-42477500D02*
X71762742Y-42477500D01*
X72237258Y-43522500D02*
X71762742Y-43522500D01*
%TO.C,R5*%
X72477500Y-74737258D02*
X72477500Y-74262742D01*
X73522500Y-74737258D02*
X73522500Y-74262742D01*
%TO.C,J5*%
X81690000Y-54710000D02*
X81690000Y-54260000D01*
X81690000Y-54710000D02*
X82080000Y-54710000D01*
X82390000Y-49140000D02*
X82390000Y-49790000D01*
X82390000Y-56760000D02*
X82390000Y-56100000D01*
X84120000Y-49140000D02*
X82390000Y-49140000D01*
X84120000Y-56760000D02*
X82390000Y-56760000D01*
X86690000Y-49140000D02*
X86480000Y-49140000D01*
X86690000Y-56760000D02*
X86480000Y-56760000D01*
%TO.C,L2*%
X58790000Y-72190000D02*
X59990000Y-72190000D01*
X58790000Y-77810000D02*
X58790000Y-72190000D01*
X59990000Y-77810000D02*
X58790000Y-77810000D01*
X63010000Y-72190000D02*
X64210000Y-72190000D01*
X64210000Y-72190000D02*
X64210000Y-77810000D01*
X64210000Y-77810000D02*
X63010000Y-77810000D01*
%TO.C,C10*%
X41640000Y-66782836D02*
X41640000Y-66567164D01*
X42360000Y-66782836D02*
X42360000Y-66567164D01*
%TO.C,R9*%
X50903641Y-54870000D02*
X50596359Y-54870000D01*
X50903641Y-55630000D02*
X50596359Y-55630000D01*
%TO.C,C7*%
X55640000Y-59282836D02*
X55640000Y-59067164D01*
X56360000Y-59282836D02*
X56360000Y-59067164D01*
%TO.C,C12*%
X38542164Y-59640000D02*
X38757836Y-59640000D01*
X38542164Y-60360000D02*
X38757836Y-60360000D01*
%TO.C,J1*%
X75780000Y-68380000D02*
X83620000Y-68380000D01*
X75780000Y-75620000D02*
X75780000Y-68380000D01*
X82000000Y-75620000D02*
X82000000Y-68380000D01*
X83100000Y-75620000D02*
X83100000Y-68380000D01*
X83620000Y-68380000D02*
X83620000Y-73450000D01*
X83620000Y-74050000D02*
X83620000Y-75620000D01*
X83620000Y-75620000D02*
X75780000Y-75620000D01*
X83620000Y-73750000D02*
X84230000Y-73310000D01*
X84230000Y-74190000D01*
X83620000Y-73750000D01*
G36*
X84230000Y-74190000D02*
G01*
X83620000Y-73750000D01*
X84230000Y-73310000D01*
X84230000Y-74190000D01*
G37*
%TO.C,R6*%
X70477500Y-77987258D02*
X70477500Y-77512742D01*
X71522500Y-77987258D02*
X71522500Y-77512742D01*
%TO.C,U2*%
X66690000Y-74840000D02*
X66740000Y-74840000D01*
X66690000Y-76660000D02*
X66690000Y-74840000D01*
X66740000Y-76660000D02*
X66690000Y-76660000D01*
X69760000Y-74840000D02*
X69810000Y-74840000D01*
X69810000Y-74840000D02*
X69810000Y-76660000D01*
X69810000Y-76660000D02*
X69760000Y-76660000D01*
X66740000Y-77200000D02*
X66410000Y-77440000D01*
X66410000Y-76960000D01*
X66740000Y-77200000D01*
G36*
X66740000Y-77200000D02*
G01*
X66410000Y-77440000D01*
X66410000Y-76960000D01*
X66740000Y-77200000D01*
G37*
%TO.C,C1*%
X57240000Y-60565580D02*
X57240000Y-60284420D01*
X58260000Y-60565580D02*
X58260000Y-60284420D01*
%TO.C,C4*%
X41640000Y-60552836D02*
X41640000Y-60337164D01*
X42360000Y-60552836D02*
X42360000Y-60337164D01*
%TO.C,C6*%
X55392164Y-70565000D02*
X55607836Y-70565000D01*
X55392164Y-71285000D02*
X55607836Y-71285000D01*
%TO.C,SW1*%
X30495000Y-51300000D02*
X30495000Y-52200000D01*
X30705000Y-51100000D02*
X30495000Y-51300000D01*
X30705000Y-52400000D02*
X30495000Y-52200000D01*
X30705000Y-52400000D02*
X31995000Y-52400000D01*
X31995000Y-49650000D02*
X31995000Y-55350000D01*
X31995000Y-51100000D02*
X30705000Y-51100000D01*
X33005000Y-55950000D02*
X33795000Y-55950000D01*
X33795000Y-49050000D02*
X33005000Y-49050000D01*
X34845000Y-50900000D02*
X34845000Y-52600000D01*
X34845000Y-53900000D02*
X34845000Y-54100000D01*
%TO.C,FB1*%
X67690000Y-67600378D02*
X67690000Y-68399622D01*
X68810000Y-67600378D02*
X68810000Y-68399622D01*
%TO.C,C3*%
X43390580Y-56665000D02*
X43109420Y-56665000D01*
X43390580Y-57685000D02*
X43109420Y-57685000D01*
%TO.C,R10*%
X48346359Y-54870000D02*
X48653641Y-54870000D01*
X48346359Y-55630000D02*
X48653641Y-55630000D01*
%TO.C,D2*%
X60890000Y-69000000D02*
X60890000Y-71000000D01*
X60890000Y-69000000D02*
X64900000Y-69000000D01*
X60890000Y-71000000D02*
X64900000Y-71000000D01*
%TO.C,J4*%
X45515000Y-80890000D02*
X45515000Y-86610000D01*
X45515000Y-86610000D02*
X49000000Y-86610000D01*
X46585000Y-80890000D02*
X45515000Y-80890000D01*
X46585000Y-81190000D02*
X46585000Y-80890000D01*
X46875000Y-80600000D02*
X46375000Y-80600000D01*
X46875000Y-80900000D02*
X46875000Y-80600000D01*
X49000000Y-81190000D02*
X46585000Y-81190000D01*
X49000000Y-81190000D02*
X51415000Y-81190000D01*
X51415000Y-80890000D02*
X52485000Y-80890000D01*
X51415000Y-81190000D02*
X51415000Y-80890000D01*
X52485000Y-80890000D02*
X52485000Y-86610000D01*
X52485000Y-86610000D02*
X49000000Y-86610000D01*
%TO.C,R2*%
X41653641Y-63370000D02*
X41346359Y-63370000D01*
X41653641Y-64130000D02*
X41346359Y-64130000D01*
%TO.C,C9*%
X40390000Y-66782836D02*
X40390000Y-66567164D01*
X41110000Y-66782836D02*
X41110000Y-66567164D01*
%TO.C,R8*%
X73977500Y-77987258D02*
X73977500Y-77512742D01*
X75022500Y-77987258D02*
X75022500Y-77512742D01*
%TO.C,Y1*%
X36540000Y-60940000D02*
X36540000Y-65060000D01*
X39960000Y-60940000D02*
X36540000Y-60940000D01*
%TD*%
M02*
