M48
; DRILL file KiCad 10.0.3 date 2026-06-23T00:25:21
; FORMAT={-:-/ absolute / metric / decimal}
; #@! TF.CreationDate,2026-06-23T00:25:21+01:00
; #@! TF.GenerationSoftware,Kicad,Pcbnew,10.0.3
; #@! TF.FileFunction,Plated,1,4,PTH
FMAT,2
METRIC
; #@! TA.AperFunction,Plated,PTH,ViaDrill
T1C0.400
; #@! TA.AperFunction,Plated,PTH,ComponentDrill
T2C0.450
; #@! TA.AperFunction,Plated,PTH,ComponentDrill
T3C0.500
; #@! TA.AperFunction,Plated,PTH,ComponentDrill
T4C0.600
; #@! TA.AperFunction,Plated,PTH,ComponentDrill
T5C1.200
; #@! TA.AperFunction,Plated,PTH,ComponentDrill
T6C4.300
%
G90
G05
T1
X36.0Y-64.1
X36.3Y-50.3
X36.325Y-54.775
X37.475Y-66.025
X38.75Y-67.45
X38.75Y-68.9
X39.825Y-60.0
X40.45Y-61.875
X40.75Y-65.5
X41.25Y-69.525
X41.3Y-59.95
X41.625Y-57.175
X42.0Y-61.6
X42.0Y-65.5
X44.0Y-56.3
X45.575Y-72.425
X45.75Y-56.45
X47.3Y-55.3
X47.425Y-57.2
X47.9Y-72.45
X51.95Y-55.25
X52.775Y-53.875
X52.775Y-61.075
X54.475Y-71.45
X55.875Y-72.675
X56.0Y-58.0
X56.0Y-60.325
X56.675Y-70.925
X57.75Y-58.8
X59.85Y-76.325
X59.85Y-77.35
X60.2Y-38.95
X60.8Y-80.0
X60.8Y-83.025
X62.725Y-38.95
X62.75Y-80.0
X62.75Y-83.025
X63.15Y-76.325
X63.15Y-77.35
X64.0Y-38.975
X65.275Y-38.95
X65.6Y-84.0
X65.625Y-81.0
X65.65Y-79.075
X65.65Y-82.075
X65.7Y-69.4
X65.7Y-70.55
X68.25Y-76.0
X68.25Y-77.95
X68.25Y-78.925
X70.125Y-78.6
X70.25Y-71.525
X70.375Y-41.0
X70.375Y-42.975
X71.0Y-79.375
X72.2Y-71.525
X72.425Y-65.925
X72.45Y-68.2
X73.0Y-72.875
X73.85Y-73.675
X74.5Y-76.125
X75.375Y-76.925
X77.0Y-50.925
X80.3Y-50.6
X80.3Y-51.6
X81.35Y-50.575
X81.35Y-51.6
T3
X47.125Y-42.4
X47.125Y-82.05
X48.375Y-42.4
X48.375Y-82.05
X49.625Y-42.4
X49.625Y-82.05
X50.875Y-42.4
X50.875Y-82.05
T4
X33.275Y-42.25
X33.275Y-82.25
X34.22Y-39.97
X34.22Y-44.53
X34.22Y-79.97
X34.22Y-84.53
X36.5Y-39.025
X36.5Y-45.475
X36.5Y-79.025
X36.5Y-85.475
X38.78Y-39.97
X38.78Y-44.53
X38.78Y-79.97
X38.78Y-84.53
X39.725Y-42.25
X39.725Y-82.25
X78.275Y-42.25
X78.275Y-82.25
X79.22Y-39.97
X79.22Y-44.53
X79.22Y-79.97
X79.22Y-84.53
X81.5Y-39.025
X81.5Y-45.475
X81.5Y-79.025
X81.5Y-85.475
X83.78Y-39.97
X83.78Y-44.53
X83.78Y-79.97
X83.78Y-84.53
X84.725Y-42.25
X84.725Y-82.25
T5
X79.0Y-70.25
X79.0Y-73.75
T6
X36.5Y-42.25
X36.5Y-82.25
X81.5Y-42.25
X81.5Y-82.25
T2
G00X84.9Y-49.375
M15
G01X85.7Y-49.375
M16
G05
G00X85.7Y-56.525
M15
G01X84.9Y-56.525
M16
G05
M30
